<svg width="483" height="343" viewBox="0 0 483 343" fill="none" xmlns="http://www.w3.org/2000/svg">
<path d="M125.827 337.169C-18.7152 327.818 25.0536 265.862 10.0249 160.055C-5.00383 54.2468 -15.6807 7.64115 74.9316 0.872124C165.544 -5.8969 199 44.9998 288 39.9999C377 35 454.61 196.529 395.571 293.151C336.533 389.773 314.139 311.452 125.827 337.169Z" fill="#262742"/>
<path d="M53.4524 267.101C53.4524 267.698 53.3837 268.229 53.2461 268.694C53.1085 269.154 52.9108 269.543 52.6528 269.861C52.3949 270.175 52.0789 270.413 51.7049 270.577C51.3308 270.74 50.9031 270.822 50.4216 270.822C49.9444 270.822 49.5166 270.74 49.1383 270.577C48.7643 270.413 48.4462 270.175 48.1839 269.861C47.9217 269.543 47.7196 269.154 47.5778 268.694C47.4402 268.229 47.3714 267.698 47.3714 267.101V264.902C47.3714 264.304 47.4402 263.775 47.5778 263.315C47.7153 262.851 47.9131 262.46 48.171 262.142C48.4333 261.824 48.7514 261.583 49.1254 261.42C49.5037 261.252 49.9315 261.168 50.4087 261.168C50.8902 261.168 51.3179 261.252 51.692 261.42C52.0703 261.583 52.3884 261.824 52.6464 262.142C52.9086 262.46 53.1085 262.851 53.2461 263.315C53.3837 263.775 53.4524 264.304 53.4524 264.902V267.101ZM48.5708 266.862L52.2272 264.057C52.1584 263.434 51.9757 262.961 51.6791 262.638C51.3867 262.312 50.9633 262.148 50.4087 262.148C49.781 262.148 49.3167 262.361 49.0158 262.787C48.7192 263.208 48.5708 263.825 48.5708 264.637V266.862ZM52.253 265.198L48.6031 267.991C48.6762 268.597 48.8632 269.059 49.1641 269.377C49.465 269.695 49.8842 269.854 50.4216 269.854C51.0536 269.854 51.5157 269.639 51.808 269.209C52.1047 268.78 52.253 268.161 52.253 267.352V265.198Z" fill="#D5D3DC"/>
<path d="M145.818 265.985L146.289 261.304H151.106V262.464H147.295L147.03 264.966C147.215 264.859 147.437 264.764 147.695 264.683C147.953 264.601 148.251 264.56 148.591 264.56C149.025 264.56 149.414 264.635 149.758 264.786C150.102 264.936 150.394 265.149 150.635 265.424C150.876 265.695 151.061 266.024 151.19 266.411C151.319 266.798 151.383 267.228 151.383 267.701C151.383 268.148 151.323 268.562 151.203 268.945C151.082 269.328 150.9 269.659 150.655 269.938C150.414 270.213 150.109 270.43 149.739 270.59C149.369 270.744 148.935 270.822 148.436 270.822C148.054 270.822 147.692 270.768 147.353 270.66C147.013 270.553 146.71 270.392 146.444 270.177C146.181 269.962 145.964 269.691 145.792 269.364C145.625 269.038 145.519 268.657 145.476 268.223H146.611C146.684 268.756 146.88 269.16 147.198 269.435C147.521 269.71 147.933 269.848 148.436 269.848C148.72 269.848 148.971 269.798 149.191 269.7C149.41 269.596 149.593 269.452 149.739 269.268C149.889 269.078 150.001 268.853 150.074 268.59C150.152 268.328 150.19 268.036 150.19 267.713C150.19 267.421 150.147 267.148 150.061 266.894C149.98 266.641 149.859 266.422 149.7 266.237C149.541 266.048 149.345 265.899 149.113 265.792C148.881 265.684 148.615 265.631 148.314 265.631C148.116 265.631 147.944 265.646 147.798 265.676C147.656 265.701 147.527 265.74 147.411 265.792C147.295 265.843 147.185 265.906 147.082 265.979C146.983 266.052 146.88 266.136 146.772 266.23L145.818 265.985ZM155.414 267.436L154.537 268.281V270.693H153.337V260.788H154.537V266.849L155.317 266.011L157.606 263.715H159.057L156.233 266.624L159.489 270.693H157.974L155.414 267.436Z" fill="#D5D3DC"/>
<path d="M248.2 270.693H247.007V262.825L244.551 263.76V262.671L248.104 261.304H248.2V270.693ZM258.157 267.101C258.157 267.698 258.088 268.229 257.951 268.694C257.813 269.154 257.615 269.543 257.357 269.861C257.1 270.175 256.784 270.413 256.41 270.577C256.035 270.74 255.608 270.822 255.126 270.822C254.649 270.822 254.221 270.74 253.843 270.577C253.469 270.413 253.151 270.175 252.889 269.861C252.626 269.543 252.424 269.154 252.282 268.694C252.145 268.229 252.076 267.698 252.076 267.101V264.902C252.076 264.304 252.145 263.775 252.282 263.315C252.42 262.851 252.618 262.46 252.876 262.142C253.138 261.824 253.456 261.583 253.83 261.42C254.208 261.252 254.636 261.168 255.113 261.168C255.595 261.168 256.023 261.252 256.397 261.42C256.775 261.583 257.093 261.824 257.351 262.142C257.613 262.46 257.813 262.851 257.951 263.315C258.088 263.775 258.157 264.304 258.157 264.902V267.101ZM253.275 266.862L256.932 264.057C256.863 263.434 256.68 262.961 256.384 262.638C256.091 262.312 255.668 262.148 255.113 262.148C254.486 262.148 254.021 262.361 253.72 262.787C253.424 263.208 253.275 263.825 253.275 264.637V266.862ZM256.958 265.198L253.308 267.991C253.381 268.597 253.568 269.059 253.869 269.377C254.17 269.695 254.589 269.854 255.126 269.854C255.758 269.854 256.22 269.639 256.513 269.21C256.809 268.78 256.958 268.161 256.958 267.352V265.198ZM262.284 267.436L261.407 268.281V270.693H260.208V260.788H261.407V266.849L262.187 266.011L264.477 263.715H265.928L263.103 266.624L266.36 270.693H264.844L262.284 267.436Z" fill="#D5D3DC"/>
<path d="M349.452 270.693H348.259V262.825L345.802 263.76V262.671L349.356 261.304H349.452V270.693ZM353.941 265.985L354.411 261.304H359.228V262.464H355.417L355.153 264.966C355.338 264.859 355.559 264.764 355.817 264.683C356.075 264.601 356.374 264.56 356.714 264.56C357.148 264.56 357.537 264.635 357.881 264.786C358.225 264.936 358.517 265.149 358.758 265.424C358.998 265.695 359.183 266.024 359.312 266.411C359.441 266.798 359.506 267.228 359.506 267.701C359.506 268.148 359.446 268.562 359.325 268.945C359.205 269.328 359.022 269.659 358.777 269.938C358.536 270.213 358.231 270.43 357.861 270.59C357.492 270.744 357.057 270.822 356.559 270.822C356.176 270.822 355.815 270.768 355.475 270.66C355.136 270.553 354.833 270.392 354.566 270.177C354.304 269.962 354.087 269.691 353.915 269.364C353.747 269.038 353.642 268.657 353.599 268.223H354.734C354.807 268.756 355.002 269.16 355.321 269.435C355.643 269.71 356.056 269.848 356.559 269.848C356.842 269.848 357.094 269.798 357.313 269.7C357.532 269.596 357.715 269.452 357.861 269.268C358.012 269.078 358.124 268.853 358.197 268.59C358.274 268.328 358.313 268.036 358.313 267.713C358.313 267.421 358.27 267.148 358.184 266.894C358.102 266.641 357.982 266.422 357.823 266.237C357.664 266.048 357.468 265.899 357.236 265.792C357.004 265.684 356.737 265.631 356.436 265.631C356.238 265.631 356.067 265.646 355.92 265.676C355.778 265.701 355.649 265.74 355.533 265.792C355.417 265.843 355.308 265.906 355.205 265.979C355.106 266.052 355.002 266.136 354.895 266.23L353.941 265.985ZM363.536 267.436L362.659 268.281V270.693H361.46V260.788H362.659V266.849L363.439 266.011L365.729 263.715H367.18L364.355 266.624L367.612 270.693H366.096L363.536 267.436Z" fill="#D5D3DC"/>
<path d="M454.011 270.793H448.245V269.989L451.128 266.786C451.386 266.5 451.601 266.247 451.774 266.025C451.948 265.803 452.087 265.6 452.191 265.415C452.296 265.225 452.371 265.048 452.415 264.883C452.459 264.714 452.482 264.54 452.482 264.363C452.482 264.145 452.445 263.942 452.373 263.753C452.304 263.559 452.202 263.392 452.065 263.251C451.932 263.11 451.768 262.999 451.575 262.919C451.386 262.834 451.17 262.792 450.928 262.792C450.634 262.792 450.378 262.834 450.161 262.919C449.947 263.003 449.768 263.124 449.623 263.281C449.482 263.434 449.375 263.622 449.303 263.843C449.234 264.065 449.2 264.313 449.2 264.587H448.076C448.076 264.216 448.14 263.867 448.269 263.541C448.398 263.211 448.584 262.923 448.825 262.677C449.071 262.431 449.369 262.236 449.72 262.091C450.074 261.946 450.477 261.873 450.928 261.873C451.343 261.873 451.716 261.936 452.046 262.06C452.381 262.181 452.663 262.351 452.893 262.568C453.122 262.786 453.297 263.044 453.418 263.342C453.543 263.64 453.606 263.964 453.606 264.315C453.606 264.577 453.561 264.836 453.473 265.094C453.384 265.348 453.263 265.6 453.11 265.85C452.961 266.099 452.786 266.347 452.584 266.593C452.387 266.835 452.177 267.077 451.956 267.318L449.593 269.881H454.011V270.793ZM461.571 267.427C461.571 267.987 461.506 268.485 461.378 268.92C461.249 269.351 461.063 269.715 460.822 270.014C460.58 270.308 460.284 270.531 459.933 270.684C459.583 270.838 459.182 270.914 458.73 270.914C458.283 270.914 457.882 270.838 457.528 270.684C457.177 270.531 456.879 270.308 456.633 270.014C456.388 269.715 456.198 269.351 456.065 268.92C455.936 268.485 455.872 267.987 455.872 267.427V265.366C455.872 264.806 455.936 264.311 456.065 263.88C456.194 263.444 456.38 263.078 456.621 262.78C456.867 262.481 457.165 262.256 457.516 262.103C457.87 261.946 458.271 261.867 458.718 261.867C459.17 261.867 459.571 261.946 459.921 262.103C460.276 262.256 460.574 262.481 460.815 262.78C461.061 263.078 461.249 263.444 461.378 263.88C461.506 264.311 461.571 264.806 461.571 265.366V267.427ZM456.996 267.203L460.423 264.575C460.358 263.99 460.187 263.547 459.909 263.245C459.635 262.939 459.238 262.786 458.718 262.786C458.13 262.786 457.695 262.985 457.413 263.384C457.135 263.779 456.996 264.357 456.996 265.118V267.203ZM460.447 265.644L457.026 268.261C457.095 268.829 457.27 269.262 457.552 269.56C457.834 269.859 458.227 270.008 458.73 270.008C459.323 270.008 459.756 269.806 460.03 269.403C460.308 269 460.447 268.42 460.447 267.663V265.644ZM465.439 267.741L464.617 268.533V270.793H463.493V261.51H464.617V267.191L465.348 266.406L467.493 264.254H468.853L466.206 266.98L469.258 270.793H467.838L465.439 267.741Z" fill="#D5D3DC"/>
<rect x="49.3027" y="75.9994" width="2.20112" height="173.889" fill="#576084"/>
<rect x="101.029" y="75.9994" width="1.10056" height="173.889" fill="#576084"/>
<rect x="151.652" y="75.9994" width="1.10056" height="173.889" fill="#576084"/>
<rect x="202.281" y="75.9994" width="1.10056" height="173.889" fill="#576084"/>
<rect x="252.906" y="75.9994" width="1.10056" height="173.889" fill="#576084"/>
<rect x="303.533" y="75.9994" width="1.10056" height="173.889" fill="#576084"/>
<rect x="355.258" y="75.9994" width="1.10056" height="173.889" fill="#576084"/>
<rect x="406.986" y="75.9994" width="1.10056" height="173.889" fill="#576084"/>
<rect x="458.711" y="75.9994" width="1.10056" height="173.889" fill="#576084"/>
<rect x="51.5039" y="120.022" width="395.102" height="41.8213" fill="#E94560"/>
<path d="M303.549 147.43H302.356V139.562L299.899 140.498V139.408L303.453 138.041H303.549V147.43ZM308.895 146.372C309.321 146.372 309.695 146.336 310.017 146.263C310.34 146.185 310.619 146.078 310.856 145.94C311.096 145.803 311.296 145.641 311.455 145.456C311.614 145.267 311.743 145.061 311.842 144.837C311.945 144.61 312.021 144.371 312.068 144.122C312.115 143.868 312.145 143.61 312.158 143.348C312.055 143.477 311.937 143.599 311.804 143.715C311.67 143.827 311.52 143.926 311.352 144.012C311.184 144.098 310.997 144.167 310.791 144.218C310.589 144.266 310.368 144.289 310.127 144.289C309.663 144.289 309.261 144.199 308.921 144.018C308.586 143.834 308.308 143.593 308.089 143.296C307.87 143 307.709 142.664 307.605 142.29C307.502 141.916 307.451 141.54 307.451 141.162C307.451 140.719 307.511 140.302 307.631 139.911C307.756 139.515 307.939 139.171 308.179 138.879C308.424 138.582 308.728 138.348 309.089 138.176C309.454 138 309.878 137.912 310.359 137.912C310.72 137.912 311.045 137.963 311.333 138.066C311.625 138.165 311.881 138.305 312.1 138.486C312.324 138.662 312.515 138.872 312.674 139.118C312.833 139.358 312.962 139.621 313.061 139.904C313.164 140.184 313.239 140.478 313.287 140.788C313.334 141.093 313.358 141.4 313.358 141.71V142.142C313.358 142.542 313.338 142.952 313.3 143.374C313.261 143.791 313.184 144.195 313.067 144.586C312.956 144.977 312.797 145.347 312.59 145.695C312.384 146.039 312.115 146.34 311.784 146.598C311.453 146.856 311.051 147.06 310.578 147.211C310.105 147.361 309.544 147.436 308.895 147.436H308.773V146.372H308.895ZM310.32 143.303C310.522 143.303 310.718 143.27 310.907 143.206C311.101 143.137 311.277 143.043 311.436 142.922C311.599 142.798 311.743 142.654 311.868 142.49C311.997 142.322 312.098 142.138 312.171 141.936V141.549C312.171 141.132 312.122 140.76 312.023 140.433C311.928 140.106 311.797 139.831 311.629 139.608C311.466 139.38 311.275 139.206 311.055 139.085C310.841 138.965 310.611 138.905 310.365 138.905C310.086 138.905 309.839 138.961 309.624 139.072C309.409 139.184 309.226 139.339 309.076 139.537C308.93 139.73 308.818 139.962 308.74 140.233C308.663 140.5 308.624 140.788 308.624 141.097C308.624 141.372 308.659 141.643 308.728 141.91C308.796 142.172 308.899 142.406 309.037 142.613C309.179 142.819 309.355 142.987 309.566 143.116C309.781 143.24 310.032 143.303 310.32 143.303ZM318.568 147.152C318.568 147.355 318.542 147.565 318.491 147.784C318.443 148.008 318.37 148.227 318.271 148.442C318.177 148.661 318.061 148.87 317.923 149.068C317.786 149.265 317.627 149.442 317.446 149.597L316.704 149.19C316.911 148.889 317.057 148.569 317.143 148.229C317.229 147.89 317.272 147.537 317.272 147.172V146.018H318.568V147.152ZM323.901 142.722L324.372 138.041H329.189V139.201H325.378L325.113 141.703C325.298 141.596 325.52 141.501 325.778 141.42C326.036 141.338 326.334 141.297 326.674 141.297C327.108 141.297 327.497 141.372 327.841 141.523C328.185 141.673 328.477 141.886 328.718 142.161C328.959 142.432 329.144 142.761 329.273 143.148C329.402 143.535 329.466 143.965 329.466 144.438C329.466 144.885 329.406 145.3 329.286 145.682C329.165 146.065 328.983 146.396 328.738 146.675C328.497 146.95 328.192 147.168 327.822 147.327C327.452 147.481 327.018 147.559 326.519 147.559C326.137 147.559 325.775 147.505 325.436 147.398C325.096 147.29 324.793 147.129 324.527 146.914C324.264 146.699 324.047 146.428 323.875 146.101C323.708 145.775 323.602 145.394 323.559 144.96H324.694C324.767 145.493 324.963 145.897 325.281 146.172C325.604 146.447 326.016 146.585 326.519 146.585C326.803 146.585 327.054 146.536 327.274 146.437C327.493 146.334 327.676 146.189 327.822 146.005C327.972 145.815 328.084 145.59 328.157 145.328C328.235 145.065 328.273 144.773 328.273 144.451C328.273 144.158 328.23 143.885 328.144 143.632C328.063 143.378 327.942 143.159 327.783 142.974C327.624 142.785 327.428 142.636 327.196 142.529C326.964 142.421 326.698 142.368 326.397 142.368C326.199 142.368 326.027 142.383 325.881 142.413C325.739 142.439 325.61 142.477 325.494 142.529C325.378 142.58 325.268 142.643 325.165 142.716C325.066 142.789 324.963 142.873 324.855 142.967L323.901 142.722ZM336.244 144.276H337.553V145.25H336.244V147.43H335.051V145.25H330.769V144.547L334.973 138.041H336.244V144.276ZM332.091 144.276H335.051V139.627L334.857 139.988L332.091 144.276ZM339.765 142.722L340.235 138.041H345.053V139.201H341.241L340.977 141.703C341.162 141.596 341.383 141.501 341.641 141.42C341.899 141.338 342.198 141.297 342.538 141.297C342.972 141.297 343.361 141.372 343.705 141.523C344.049 141.673 344.341 141.886 344.582 142.161C344.823 142.432 345.007 142.761 345.136 143.148C345.265 143.535 345.33 143.965 345.33 144.438C345.33 144.885 345.27 145.3 345.149 145.682C345.029 146.065 344.846 146.396 344.601 146.675C344.36 146.95 344.055 147.168 343.685 147.327C343.316 147.481 342.881 147.559 342.383 147.559C342 147.559 341.639 147.505 341.299 147.398C340.96 147.29 340.657 147.129 340.39 146.914C340.128 146.699 339.911 146.428 339.739 146.101C339.571 145.775 339.466 145.394 339.423 144.96H340.558C340.631 145.493 340.827 145.897 341.145 146.172C341.467 146.447 341.88 146.585 342.383 146.585C342.667 146.585 342.918 146.536 343.137 146.437C343.357 146.334 343.539 146.189 343.685 146.005C343.836 145.815 343.948 145.59 344.021 145.328C344.098 145.065 344.137 144.773 344.137 144.451C344.137 144.158 344.094 143.885 344.008 143.632C343.926 143.378 343.806 143.159 343.647 142.974C343.488 142.785 343.292 142.636 343.06 142.529C342.828 142.421 342.561 142.368 342.26 142.368C342.063 142.368 341.891 142.383 341.744 142.413C341.603 142.439 341.474 142.477 341.357 142.529C341.241 142.58 341.132 142.643 341.029 142.716C340.93 142.789 340.827 142.873 340.719 142.967L339.765 142.722ZM349.347 146.656C349.347 146.527 349.367 146.407 349.405 146.295C349.448 146.183 349.508 146.086 349.586 146.005C349.663 145.919 349.76 145.852 349.876 145.805C349.992 145.757 350.128 145.734 350.282 145.734C350.437 145.734 350.573 145.757 350.689 145.805C350.809 145.852 350.908 145.919 350.985 146.005C351.067 146.086 351.127 146.183 351.166 146.295C351.209 146.407 351.23 146.527 351.23 146.656C351.23 146.781 351.209 146.899 351.166 147.011C351.127 147.118 351.067 147.213 350.985 147.294C350.908 147.376 350.809 147.438 350.689 147.481C350.573 147.529 350.437 147.552 350.282 147.552C350.128 147.552 349.992 147.529 349.876 147.481C349.76 147.438 349.663 147.376 349.586 147.294C349.508 147.213 349.448 147.118 349.405 147.011C349.367 146.899 349.347 146.781 349.347 146.656ZM361.148 138.711L357.26 147.43H356.009L359.884 139.085H354.803V138.041H361.148V138.711ZM367.532 138.034V139.105H367.429C367.034 139.105 366.679 139.145 366.365 139.227C366.056 139.309 365.783 139.421 365.546 139.562C365.31 139.704 365.106 139.874 364.934 140.072C364.766 140.265 364.626 140.478 364.514 140.71C364.403 140.942 364.317 141.185 364.256 141.439C364.196 141.693 364.158 141.951 364.14 142.213C364.252 142.08 364.381 141.957 364.527 141.845C364.673 141.729 364.83 141.63 364.998 141.549C365.17 141.463 365.353 141.396 365.546 141.349C365.744 141.297 365.95 141.271 366.165 141.271C366.634 141.271 367.038 141.362 367.378 141.542C367.717 141.718 367.997 141.953 368.216 142.245C368.435 142.537 368.596 142.868 368.7 143.238C368.803 143.608 368.854 143.984 368.854 144.367C368.854 144.805 368.792 145.218 368.667 145.605C368.547 145.992 368.364 146.331 368.119 146.624C367.874 146.912 367.569 147.14 367.203 147.307C366.842 147.475 366.423 147.559 365.946 147.559C365.606 147.559 365.295 147.509 365.011 147.41C364.731 147.312 364.48 147.178 364.256 147.011C364.033 146.839 363.837 146.637 363.67 146.404C363.502 146.172 363.362 145.923 363.25 145.656C363.143 145.39 363.061 145.113 363.005 144.825C362.95 144.536 362.922 144.248 362.922 143.96V143.399C362.922 142.969 362.947 142.54 362.999 142.11C363.055 141.675 363.147 141.261 363.276 140.865C363.405 140.47 363.579 140.1 363.799 139.756C364.018 139.408 364.293 139.107 364.624 138.853C364.959 138.599 365.357 138.4 365.817 138.253C366.277 138.107 366.814 138.034 367.429 138.034H367.532ZM365.972 142.264C365.77 142.264 365.574 142.297 365.385 142.361C365.196 142.426 365.02 142.516 364.856 142.632C364.693 142.748 364.549 142.888 364.424 143.051C364.299 143.215 364.201 143.395 364.127 143.593V143.993C364.127 144.405 364.177 144.773 364.276 145.095C364.375 145.414 364.508 145.682 364.676 145.901C364.843 146.121 365.037 146.288 365.256 146.404C365.475 146.516 365.705 146.572 365.946 146.572C366.225 146.572 366.473 146.518 366.688 146.411C366.903 146.303 367.083 146.155 367.229 145.966C367.38 145.777 367.492 145.551 367.565 145.289C367.642 145.022 367.681 144.734 367.681 144.425C367.681 144.15 367.646 143.883 367.577 143.625C367.509 143.363 367.403 143.131 367.262 142.929C367.12 142.727 366.941 142.565 366.726 142.445C366.511 142.325 366.26 142.264 365.972 142.264ZM383.57 140.323C383.682 140.323 383.798 140.328 383.918 140.336C384.039 140.341 384.153 140.351 384.26 140.369C384.372 140.381 384.473 140.399 384.563 140.42C384.658 140.442 384.735 140.465 384.795 140.491L384.634 141.658C384.402 141.607 384.18 141.57 383.97 141.549C383.763 141.523 383.546 141.51 383.319 141.51C382.76 141.51 382.306 141.637 381.958 141.89C381.614 142.144 381.36 142.499 381.197 142.954V147.43H379.997V140.452H381.132L381.19 141.562C381.474 141.179 381.814 140.878 382.209 140.659C382.609 140.435 383.063 140.323 383.57 140.323ZM390.012 147.559C389.522 147.559 389.071 147.475 388.658 147.307C388.25 147.14 387.899 146.905 387.607 146.604C387.315 146.303 387.087 145.947 386.923 145.534C386.76 145.121 386.678 144.672 386.678 144.186V143.915C386.678 143.352 386.769 142.849 386.949 142.406C387.13 141.959 387.368 141.583 387.665 141.278C387.966 140.968 388.305 140.732 388.684 140.568C389.066 140.405 389.458 140.323 389.857 140.323C390.36 140.323 390.799 140.412 391.173 140.588C391.551 140.76 391.865 141.001 392.114 141.31C392.364 141.615 392.549 141.976 392.669 142.393C392.794 142.81 392.856 143.262 392.856 143.748V144.283H387.871C387.884 144.601 387.944 144.9 388.052 145.179C388.164 145.459 388.314 145.704 388.503 145.914C388.697 146.121 388.927 146.284 389.193 146.404C389.46 146.525 389.754 146.585 390.077 146.585C390.502 146.585 390.881 146.499 391.212 146.327C391.543 146.155 391.818 145.927 392.037 145.644L392.766 146.211C392.65 146.387 392.503 146.557 392.327 146.72C392.155 146.879 391.955 147.021 391.728 147.146C391.5 147.271 391.242 147.37 390.954 147.443C390.666 147.52 390.352 147.559 390.012 147.559ZM389.857 141.304C389.617 141.304 389.389 141.349 389.174 141.439C388.959 141.525 388.765 141.654 388.593 141.826C388.422 141.994 388.275 142.202 388.155 142.451C388.039 142.696 387.957 142.98 387.91 143.303H391.663V143.212C391.65 142.98 391.605 142.75 391.528 142.522C391.455 142.295 391.345 142.09 391.199 141.91C391.053 141.729 390.868 141.583 390.644 141.471C390.425 141.359 390.163 141.304 389.857 141.304ZM394.642 143.883C394.642 143.363 394.705 142.886 394.829 142.451C394.954 142.013 395.137 141.637 395.377 141.323C395.618 141.009 395.913 140.764 396.261 140.588C396.613 140.412 397.013 140.323 397.46 140.323C397.873 140.323 398.236 140.394 398.55 140.536C398.868 140.674 399.143 140.876 399.376 141.142L399.427 140.452H400.523V150.112H399.33V146.798C399.098 147.043 398.827 147.232 398.518 147.365C398.208 147.494 397.852 147.559 397.447 147.559C397.005 147.559 396.609 147.468 396.261 147.288C395.917 147.107 395.625 146.858 395.384 146.54C395.143 146.222 394.958 145.848 394.829 145.418C394.705 144.984 394.642 144.517 394.642 144.018V143.883ZM395.835 144.018C395.835 144.358 395.872 144.683 395.945 144.992C396.022 145.302 396.138 145.575 396.293 145.811C396.448 146.048 396.643 146.237 396.88 146.379C397.121 146.516 397.407 146.585 397.738 146.585C398.12 146.585 398.441 146.499 398.698 146.327C398.956 146.155 399.167 145.932 399.33 145.656V142.213C399.249 142.08 399.154 141.959 399.047 141.852C398.943 141.74 398.825 141.643 398.692 141.562C398.563 141.48 398.419 141.418 398.26 141.375C398.105 141.327 397.935 141.304 397.751 141.304C397.419 141.304 397.134 141.375 396.893 141.516C396.652 141.658 396.452 141.85 396.293 142.09C396.138 142.327 396.022 142.6 395.945 142.909C395.872 143.219 395.835 143.543 395.835 143.883V144.018ZM404.367 148.236H403.296L407.217 138.041H408.281L404.367 148.236ZM415.362 145.579C415.362 145.437 415.334 145.31 415.278 145.199C415.222 145.082 415.127 144.977 414.994 144.883C414.861 144.788 414.685 144.702 414.465 144.625C414.246 144.543 413.973 144.47 413.646 144.405C413.246 144.324 412.881 144.225 412.55 144.109C412.223 143.993 411.942 143.855 411.705 143.696C411.473 143.533 411.293 143.344 411.164 143.129C411.035 142.909 410.97 142.656 410.97 142.368C410.97 142.084 411.037 141.819 411.17 141.574C411.303 141.325 411.49 141.108 411.731 140.923C411.972 140.738 412.258 140.592 412.589 140.485C412.924 140.377 413.292 140.323 413.691 140.323C414.121 140.323 414.508 140.379 414.852 140.491C415.196 140.603 415.488 140.758 415.729 140.955C415.97 141.153 416.155 141.385 416.284 141.652C416.417 141.914 416.484 142.198 416.484 142.503H415.291C415.291 142.353 415.252 142.206 415.175 142.065C415.097 141.918 414.99 141.789 414.852 141.678C414.715 141.566 414.547 141.476 414.349 141.407C414.156 141.338 413.936 141.304 413.691 141.304C413.438 141.304 413.214 141.332 413.021 141.387C412.832 141.443 412.673 141.519 412.544 141.613C412.419 141.708 412.324 141.817 412.26 141.942C412.195 142.067 412.163 142.196 412.163 142.329C412.163 142.466 412.189 142.589 412.241 142.696C412.292 142.804 412.38 142.901 412.505 142.987C412.634 143.073 412.804 143.15 413.014 143.219C413.229 143.288 413.5 143.354 413.827 143.419C414.257 143.509 414.642 143.614 414.981 143.735C415.321 143.851 415.607 143.993 415.839 144.16C416.071 144.324 416.247 144.515 416.368 144.734C416.492 144.954 416.555 145.207 416.555 145.495C416.555 145.805 416.484 146.086 416.342 146.34C416.204 146.594 416.011 146.811 415.761 146.991C415.512 147.172 415.213 147.312 414.865 147.41C414.517 147.509 414.136 147.559 413.724 147.559C413.251 147.559 412.829 147.496 412.46 147.372C412.09 147.243 411.776 147.075 411.518 146.869C411.265 146.658 411.069 146.415 410.931 146.14C410.798 145.865 410.732 145.579 410.732 145.282H411.925C411.942 145.527 412.006 145.734 412.118 145.901C412.234 146.069 412.376 146.205 412.544 146.308C412.716 146.411 412.905 146.484 413.111 146.527C413.317 146.57 413.522 146.591 413.724 146.591C414.227 146.591 414.624 146.499 414.917 146.314C415.209 146.129 415.357 145.884 415.362 145.579ZM421.739 147.559C421.249 147.559 420.798 147.475 420.385 147.307C419.977 147.14 419.626 146.905 419.334 146.604C419.042 146.303 418.814 145.947 418.65 145.534C418.487 145.121 418.405 144.672 418.405 144.186V143.915C418.405 143.352 418.496 142.849 418.676 142.406C418.857 141.959 419.095 141.583 419.392 141.278C419.693 140.968 420.033 140.732 420.411 140.568C420.794 140.405 421.185 140.323 421.585 140.323C422.088 140.323 422.526 140.412 422.9 140.588C423.278 140.76 423.592 141.001 423.842 141.31C424.091 141.615 424.276 141.976 424.396 142.393C424.521 142.81 424.583 143.262 424.583 143.748V144.283H419.598C419.611 144.601 419.671 144.9 419.779 145.179C419.891 145.459 420.041 145.704 420.23 145.914C420.424 146.121 420.654 146.284 420.92 146.404C421.187 146.525 421.481 146.585 421.804 146.585C422.229 146.585 422.608 146.499 422.939 146.327C423.27 146.155 423.545 145.927 423.764 145.644L424.493 146.211C424.377 146.387 424.231 146.557 424.054 146.72C423.882 146.879 423.682 147.021 423.455 147.146C423.227 147.271 422.969 147.37 422.681 147.443C422.393 147.52 422.079 147.559 421.739 147.559ZM421.585 141.304C421.344 141.304 421.116 141.349 420.901 141.439C420.686 141.525 420.493 141.654 420.321 141.826C420.149 141.994 420.002 142.202 419.882 142.451C419.766 142.696 419.684 142.98 419.637 143.303H423.39V143.212C423.377 142.98 423.332 142.75 423.255 142.522C423.182 142.295 423.072 142.09 422.926 141.91C422.78 141.729 422.595 141.583 422.371 141.471C422.152 141.359 421.89 141.304 421.585 141.304ZM429.561 146.591C429.776 146.591 429.985 146.557 430.187 146.488C430.393 146.419 430.576 146.325 430.735 146.205C430.894 146.08 431.021 145.936 431.116 145.772C431.214 145.605 431.266 145.424 431.27 145.231H432.399C432.395 145.54 432.313 145.837 432.154 146.121C431.999 146.4 431.791 146.647 431.528 146.862C431.266 147.073 430.965 147.243 430.625 147.372C430.286 147.496 429.931 147.559 429.561 147.559C429.033 147.559 428.571 147.464 428.175 147.275C427.779 147.086 427.448 146.832 427.182 146.514C426.92 146.192 426.722 145.822 426.589 145.405C426.455 144.984 426.389 144.541 426.389 144.076V143.806C426.389 143.346 426.455 142.905 426.589 142.484C426.722 142.062 426.92 141.693 427.182 141.375C427.448 141.052 427.779 140.796 428.175 140.607C428.571 140.418 429.033 140.323 429.561 140.323C429.974 140.323 430.352 140.39 430.696 140.523C431.045 140.652 431.343 140.831 431.593 141.059C431.846 141.282 432.044 141.549 432.186 141.858C432.328 142.168 432.399 142.499 432.399 142.851H431.27C431.266 142.641 431.219 142.443 431.128 142.258C431.042 142.069 430.924 141.903 430.774 141.761C430.623 141.62 430.443 141.508 430.232 141.426C430.026 141.344 429.802 141.304 429.561 141.304C429.192 141.304 428.88 141.379 428.626 141.529C428.377 141.675 428.175 141.869 428.02 142.11C427.865 142.346 427.754 142.613 427.685 142.909C427.62 143.206 427.588 143.505 427.588 143.806V144.076C427.588 144.382 427.62 144.685 427.685 144.986C427.754 145.282 427.863 145.551 428.014 145.792C428.169 146.028 428.371 146.222 428.62 146.372C428.874 146.518 429.187 146.591 429.561 146.591Z" fill="white"/>
<path d="M71.7464 146.43H69.9408L67.3291 140.375V146.43H65.5041V137.041H67.3291L69.9214 143.07L69.9279 137.041H71.7464V146.43ZM77.9112 146.43C77.8682 146.344 77.8317 146.245 77.8016 146.133C77.7715 146.021 77.7457 145.903 77.7242 145.778C77.6253 145.886 77.5114 145.987 77.3824 146.082C77.2535 146.176 77.1095 146.26 76.9504 146.333C76.7956 146.402 76.6237 146.456 76.4345 146.494C76.2453 146.537 76.0411 146.559 75.8219 146.559C75.4651 146.559 75.1362 146.507 74.8352 146.404C74.5386 146.301 74.2828 146.157 74.0679 145.972C73.8529 145.787 73.6852 145.568 73.5649 145.314C73.4445 145.056 73.3843 144.777 73.3843 144.476C73.3843 143.741 73.6573 143.173 74.2033 142.773C74.7536 142.369 75.5725 142.167 76.6602 142.167H77.6597V141.755C77.6597 141.419 77.5501 141.155 77.3309 140.961C77.1116 140.764 76.7956 140.665 76.3829 140.665C76.0175 140.665 75.7509 140.744 75.5833 140.903C75.4156 141.058 75.3318 141.267 75.3318 141.529H73.5391C73.5391 141.232 73.6036 140.951 73.7325 140.684C73.8658 140.418 74.0571 140.183 74.3065 139.981C74.5601 139.779 74.8675 139.62 75.2286 139.504C75.594 139.384 76.011 139.323 76.4796 139.323C76.9009 139.323 77.2922 139.375 77.6533 139.478C78.0187 139.581 78.3347 139.734 78.6012 139.936C78.8678 140.138 79.0763 140.394 79.2267 140.703C79.3772 141.009 79.4524 141.363 79.4524 141.767V144.76C79.4524 145.134 79.4761 145.443 79.5234 145.688C79.5707 145.933 79.6395 146.144 79.7297 146.32V146.43H77.9112ZM76.2023 145.172C76.3829 145.172 76.5506 145.151 76.7053 145.108C76.8601 145.065 76.9998 145.009 77.1245 144.94C77.2492 144.871 77.3566 144.794 77.4469 144.708C77.5372 144.618 77.6081 144.527 77.6597 144.437V143.238H76.744C76.4646 143.238 76.226 143.266 76.0282 143.322C75.8305 143.373 75.6693 143.448 75.5446 143.547C75.4199 143.642 75.3275 143.758 75.2673 143.895C75.2071 144.029 75.177 144.175 75.177 144.334C75.177 144.575 75.2609 144.775 75.4285 144.934C75.6005 145.093 75.8584 145.172 76.2023 145.172ZM83.1088 139.452L83.2184 140.42C83.4678 140.071 83.7709 139.803 84.1277 139.614C84.4845 139.42 84.88 139.323 85.3142 139.323C85.6668 139.323 85.9892 139.375 86.2815 139.478C86.5739 139.581 86.8253 139.747 87.036 139.975C87.251 140.198 87.4165 140.488 87.5325 140.845C87.6529 141.198 87.7131 141.628 87.7131 142.135V146.43H85.9204V142.161C85.9204 141.886 85.8882 141.66 85.8237 141.484C85.7635 141.303 85.6753 141.161 85.5593 141.058C85.4432 140.955 85.3035 140.884 85.1401 140.845C84.9767 140.802 84.7919 140.781 84.5855 140.781C84.2803 140.781 84.0202 140.843 83.8053 140.968C83.5903 141.088 83.4162 141.256 83.2829 141.471V146.43H81.4838V139.452H83.1088ZM89.1705 142.877C89.1705 142.369 89.2436 141.901 89.3897 141.471C89.5359 141.037 89.7487 140.66 90.0282 140.342C90.3119 140.024 90.6558 139.775 91.0599 139.594C91.4683 139.414 91.9348 139.323 92.4593 139.323C92.9838 139.323 93.4502 139.414 93.8586 139.594C94.267 139.775 94.611 140.024 94.8904 140.342C95.1741 140.66 95.3891 141.037 95.5353 141.471C95.6814 141.901 95.7545 142.369 95.7545 142.877V143.012C95.7545 143.524 95.6814 143.996 95.5353 144.431C95.3891 144.861 95.1763 145.235 94.8969 145.553C94.6174 145.871 94.2735 146.12 93.8651 146.301C93.4567 146.477 92.9924 146.565 92.4722 146.565C91.9477 146.565 91.4791 146.477 91.0664 146.301C90.658 146.12 90.3119 145.871 90.0282 145.553C89.7487 145.235 89.5359 144.861 89.3897 144.431C89.2436 143.996 89.1705 143.524 89.1705 143.012V142.877ZM90.9632 143.012C90.9632 143.304 90.9911 143.579 91.047 143.837C91.1029 144.091 91.1911 144.315 91.3114 144.508C91.4318 144.697 91.5866 144.848 91.7757 144.959C91.9692 145.071 92.2013 145.127 92.4722 145.127C92.7344 145.127 92.9601 145.071 93.1493 144.959C93.3384 144.848 93.4911 144.697 93.6071 144.508C93.7275 144.315 93.8156 144.091 93.8715 143.837C93.9274 143.579 93.9554 143.304 93.9554 143.012V142.877C93.9554 142.593 93.9274 142.324 93.8715 142.071C93.8156 141.817 93.7275 141.593 93.6071 141.4C93.4911 141.206 93.3384 141.054 93.1493 140.942C92.9601 140.83 92.7301 140.774 92.4593 140.774C92.1927 140.774 91.9649 140.83 91.7757 140.942C91.5866 141.054 91.4318 141.206 91.3114 141.4C91.1911 141.593 91.1029 141.817 91.047 142.071C90.9911 142.324 90.9632 142.593 90.9632 142.877V143.012ZM101.848 144.515C101.848 144.407 101.823 144.312 101.771 144.231C101.724 144.149 101.636 144.074 101.507 144.005C101.382 143.932 101.214 143.865 101.004 143.805C100.793 143.745 100.526 143.685 100.204 143.625C99.7956 143.543 99.4216 143.442 99.082 143.322C98.7467 143.197 98.4586 143.049 98.2179 142.877C97.9771 142.7 97.788 142.498 97.6504 142.27C97.5171 142.043 97.4505 141.78 97.4505 141.484C97.4505 141.196 97.5193 140.921 97.6569 140.658C97.7944 140.396 97.9922 140.166 98.2501 139.968C98.5081 139.771 98.8219 139.614 99.1916 139.498C99.5613 139.381 99.9784 139.323 100.443 139.323C100.928 139.323 101.365 139.381 101.752 139.498C102.139 139.609 102.465 139.766 102.732 139.968C103.003 140.166 103.209 140.402 103.351 140.678C103.493 140.953 103.564 141.252 103.564 141.574H101.771C101.771 141.303 101.661 141.077 101.442 140.897C101.223 140.712 100.89 140.62 100.443 140.62C100.026 140.62 99.7097 140.695 99.4947 140.845C99.2841 140.996 99.1787 141.181 99.1787 141.4C99.1787 141.503 99.2002 141.6 99.2432 141.69C99.2862 141.776 99.3614 141.856 99.4689 141.929C99.5807 141.997 99.7312 142.062 99.9203 142.122C100.109 142.178 100.35 142.227 100.643 142.27C101.064 142.339 101.455 142.427 101.816 142.535C102.177 142.642 102.489 142.782 102.751 142.954C103.013 143.122 103.218 143.328 103.364 143.573C103.514 143.814 103.59 144.102 103.59 144.437C103.59 144.747 103.514 145.033 103.364 145.295C103.218 145.553 103.007 145.776 102.732 145.965C102.461 146.155 102.132 146.303 101.745 146.41C101.358 146.514 100.926 146.565 100.449 146.565C99.9246 146.565 99.4603 146.496 99.0562 146.359C98.6564 146.221 98.3211 146.043 98.0502 145.824C97.7794 145.6 97.573 145.349 97.4312 145.069C97.2936 144.785 97.2248 144.502 97.2248 144.218H98.9337C98.9466 144.407 98.9982 144.57 99.0884 144.708C99.1787 144.841 99.2948 144.951 99.4367 145.037C99.5785 145.119 99.7398 145.179 99.9203 145.217C100.105 145.256 100.294 145.275 100.488 145.275C100.931 145.275 101.268 145.205 101.5 145.063C101.732 144.921 101.848 144.738 101.848 144.515Z" fill="white"/>
<rect x="51.5039" y="170.648" width="249.827" height="41.8213" fill="#E6E6E6"/>
<path d="M158.274 198.056H157.081V190.188L154.624 191.123V190.034L158.177 188.666H158.274V198.056ZM168.095 198.056H161.943V197.198L165.019 193.78C165.294 193.475 165.524 193.204 165.709 192.968C165.894 192.731 166.042 192.514 166.154 192.316C166.266 192.114 166.345 191.925 166.393 191.749C166.44 191.568 166.464 191.383 166.464 191.194C166.464 190.962 166.425 190.745 166.348 190.543C166.274 190.337 166.165 190.158 166.019 190.008C165.877 189.857 165.703 189.739 165.496 189.653C165.294 189.563 165.064 189.518 164.806 189.518C164.493 189.518 164.22 189.563 163.987 189.653C163.76 189.743 163.568 189.872 163.413 190.04C163.263 190.203 163.149 190.403 163.072 190.64C162.999 190.876 162.962 191.141 162.962 191.433H161.763C161.763 191.037 161.831 190.666 161.969 190.317C162.107 189.965 162.304 189.657 162.562 189.395C162.824 189.133 163.143 188.924 163.517 188.77C163.895 188.615 164.325 188.537 164.806 188.537C165.249 188.537 165.647 188.604 165.999 188.737C166.356 188.866 166.657 189.047 166.902 189.279C167.147 189.511 167.334 189.786 167.463 190.104C167.596 190.423 167.663 190.769 167.663 191.143C167.663 191.422 167.616 191.699 167.521 191.975C167.427 192.245 167.298 192.514 167.134 192.781C166.975 193.047 166.788 193.312 166.573 193.574C166.363 193.832 166.139 194.09 165.903 194.348L163.381 197.082H168.095V198.056ZM173.293 197.778C173.293 197.98 173.267 198.191 173.215 198.41C173.168 198.634 173.095 198.853 172.996 199.068C172.901 199.287 172.785 199.496 172.648 199.694C172.51 199.891 172.351 200.068 172.171 200.222L171.429 199.816C171.635 199.515 171.782 199.195 171.868 198.855C171.954 198.516 171.997 198.163 171.997 197.798V196.643H173.293V197.778ZM179.593 192.787H180.444C180.745 192.787 181.01 192.746 181.237 192.665C181.47 192.583 181.663 192.471 181.818 192.329C181.977 192.187 182.097 192.018 182.179 191.82C182.261 191.622 182.301 191.405 182.301 191.169C182.301 190.623 182.162 190.212 181.882 189.937C181.603 189.657 181.194 189.518 180.657 189.518C180.403 189.518 180.171 189.556 179.961 189.634C179.754 189.707 179.576 189.814 179.425 189.956C179.279 190.098 179.165 190.268 179.084 190.466C179.002 190.663 178.961 190.885 178.961 191.13H177.762C177.762 190.773 177.83 190.438 177.968 190.124C178.11 189.806 178.308 189.531 178.561 189.298C178.815 189.062 179.118 188.877 179.47 188.744C179.827 188.606 180.223 188.537 180.657 188.537C181.078 188.537 181.463 188.596 181.811 188.712C182.16 188.823 182.458 188.991 182.708 189.215C182.957 189.438 183.15 189.715 183.288 190.046C183.426 190.377 183.494 190.76 183.494 191.194C183.494 191.375 183.466 191.562 183.411 191.755C183.355 191.949 183.269 192.138 183.153 192.323C183.037 192.503 182.886 192.675 182.701 192.839C182.521 192.998 182.304 193.131 182.05 193.239C182.355 193.337 182.609 193.466 182.811 193.625C183.017 193.784 183.181 193.963 183.301 194.161C183.426 194.358 183.512 194.567 183.559 194.786C183.61 195.005 183.636 195.223 183.636 195.437C183.636 195.876 183.561 196.265 183.411 196.605C183.26 196.944 183.052 197.232 182.785 197.469C182.519 197.701 182.203 197.879 181.837 198.004C181.476 198.124 181.085 198.185 180.663 198.185C180.251 198.185 179.862 198.127 179.496 198.01C179.135 197.894 178.821 197.725 178.555 197.501C178.288 197.277 178.075 197.004 177.916 196.682C177.762 196.36 177.684 195.992 177.684 195.579H178.877C178.877 195.824 178.918 196.048 179 196.25C179.086 196.452 179.206 196.624 179.361 196.766C179.516 196.908 179.703 197.017 179.922 197.095C180.145 197.172 180.393 197.211 180.663 197.211C180.934 197.211 181.179 197.176 181.399 197.108C181.618 197.035 181.805 196.925 181.96 196.779C182.114 196.633 182.233 196.452 182.314 196.237C182.4 196.018 182.443 195.76 182.443 195.463C182.443 195.171 182.394 194.919 182.295 194.709C182.2 194.494 182.065 194.315 181.889 194.174C181.717 194.032 181.506 193.926 181.257 193.858C181.012 193.789 180.741 193.754 180.444 193.754H179.593V192.787ZM192.077 189.337L188.189 198.056H186.938L190.814 189.711H185.732V188.666H192.077V189.337ZM199.958 194.464C199.958 195.061 199.889 195.592 199.751 196.057C199.614 196.517 199.416 196.906 199.158 197.224C198.9 197.538 198.584 197.776 198.21 197.94C197.836 198.103 197.408 198.185 196.927 198.185C196.45 198.185 196.022 198.103 195.644 197.94C195.27 197.776 194.951 197.538 194.689 197.224C194.427 196.906 194.225 196.517 194.083 196.057C193.945 195.592 193.877 195.061 193.877 194.464V192.265C193.877 191.667 193.945 191.138 194.083 190.678C194.221 190.214 194.418 189.823 194.676 189.505C194.939 189.187 195.257 188.946 195.631 188.783C196.009 188.615 196.437 188.531 196.914 188.531C197.395 188.531 197.823 188.615 198.197 188.783C198.576 188.946 198.894 189.187 199.152 189.505C199.414 189.823 199.614 190.214 199.751 190.678C199.889 191.138 199.958 191.667 199.958 192.265V194.464ZM195.076 194.225L198.732 191.42C198.664 190.797 198.481 190.324 198.184 190.001C197.892 189.675 197.469 189.511 196.914 189.511C196.286 189.511 195.822 189.724 195.521 190.15C195.224 190.571 195.076 191.188 195.076 192V194.225ZM198.758 192.561L195.108 195.354C195.181 195.96 195.368 196.422 195.669 196.74C195.97 197.058 196.389 197.217 196.927 197.217C197.559 197.217 198.021 197.002 198.313 196.572C198.61 196.143 198.758 195.523 198.758 194.715V192.561ZM204.072 197.282C204.072 197.153 204.091 197.032 204.13 196.921C204.173 196.809 204.233 196.712 204.31 196.63C204.388 196.544 204.485 196.478 204.601 196.431C204.717 196.383 204.852 196.36 205.007 196.36C205.162 196.36 205.297 196.383 205.413 196.431C205.534 196.478 205.632 196.544 205.71 196.63C205.792 196.712 205.852 196.809 205.89 196.921C205.933 197.032 205.955 197.153 205.955 197.282C205.955 197.406 205.933 197.525 205.89 197.636C205.852 197.744 205.792 197.839 205.71 197.92C205.632 198.002 205.534 198.064 205.413 198.107C205.297 198.154 205.162 198.178 205.007 198.178C204.852 198.178 204.717 198.154 204.601 198.107C204.485 198.064 204.388 198.002 204.31 197.92C204.233 197.839 204.173 197.744 204.13 197.636C204.091 197.525 204.072 197.406 204.072 197.282ZM214.764 194.902H216.073V195.876H214.764V198.056H213.571V195.876H209.289V195.173L213.493 188.666H214.764V194.902ZM210.611 194.902H213.571V190.253L213.377 190.614L210.611 194.902ZM223.618 198.056H217.466V197.198L220.542 193.78C220.817 193.475 221.047 193.204 221.232 192.968C221.416 192.731 221.565 192.514 221.677 192.316C221.788 192.114 221.868 191.925 221.915 191.749C221.962 191.568 221.986 191.383 221.986 191.194C221.986 190.962 221.947 190.745 221.87 190.543C221.797 190.337 221.687 190.158 221.541 190.008C221.399 189.857 221.225 189.739 221.019 189.653C220.817 189.563 220.587 189.518 220.329 189.518C220.015 189.518 219.742 189.563 219.51 189.653C219.282 189.743 219.091 189.872 218.936 190.04C218.785 190.203 218.672 190.403 218.594 190.64C218.521 190.876 218.485 191.141 218.485 191.433H217.285C217.285 191.037 217.354 190.666 217.491 190.317C217.629 189.965 217.827 189.657 218.085 189.395C218.347 189.133 218.665 188.924 219.039 188.77C219.417 188.615 219.847 188.537 220.329 188.537C220.772 188.537 221.169 188.604 221.522 188.737C221.879 188.866 222.18 189.047 222.425 189.279C222.67 189.511 222.857 189.786 222.986 190.104C223.119 190.423 223.186 190.769 223.186 191.143C223.186 191.422 223.138 191.699 223.044 191.975C222.949 192.245 222.82 192.514 222.657 192.781C222.498 193.047 222.311 193.312 222.096 193.574C221.885 193.832 221.662 194.09 221.425 194.348L218.904 197.082H223.618V198.056ZM238.295 190.949C238.406 190.949 238.522 190.954 238.643 190.962C238.763 190.966 238.877 190.977 238.985 190.994C239.096 191.007 239.197 191.024 239.288 191.046C239.382 191.067 239.46 191.091 239.52 191.117L239.359 192.284C239.126 192.233 238.905 192.196 238.694 192.174C238.488 192.149 238.271 192.136 238.043 192.136C237.484 192.136 237.031 192.263 236.682 192.516C236.339 192.77 236.085 193.125 235.922 193.58V198.056H234.722V191.078H235.857L235.915 192.187C236.199 191.805 236.538 191.504 236.934 191.285C237.334 191.061 237.787 190.949 238.295 190.949ZM244.737 198.185C244.247 198.185 243.795 198.101 243.383 197.933C242.974 197.765 242.624 197.531 242.331 197.23C242.039 196.929 241.811 196.572 241.648 196.16C241.485 195.747 241.403 195.298 241.403 194.812V194.541C241.403 193.978 241.493 193.475 241.674 193.032C241.854 192.585 242.093 192.209 242.389 191.904C242.69 191.594 243.03 191.358 243.408 191.194C243.791 191.031 244.182 190.949 244.582 190.949C245.085 190.949 245.524 191.037 245.898 191.214C246.276 191.386 246.59 191.626 246.839 191.936C247.088 192.241 247.273 192.602 247.394 193.019C247.518 193.436 247.581 193.888 247.581 194.373V194.909H242.596C242.609 195.227 242.669 195.526 242.776 195.805C242.888 196.084 243.039 196.33 243.228 196.54C243.421 196.747 243.651 196.91 243.918 197.03C244.184 197.151 244.479 197.211 244.801 197.211C245.227 197.211 245.605 197.125 245.936 196.953C246.267 196.781 246.542 196.553 246.762 196.269L247.49 196.837C247.374 197.013 247.228 197.183 247.052 197.346C246.88 197.505 246.68 197.647 246.452 197.772C246.224 197.897 245.966 197.995 245.678 198.069C245.39 198.146 245.076 198.185 244.737 198.185ZM244.582 191.929C244.341 191.929 244.113 191.975 243.898 192.065C243.684 192.151 243.49 192.28 243.318 192.452C243.146 192.619 243 192.828 242.88 193.077C242.764 193.322 242.682 193.606 242.635 193.929H246.388V193.838C246.375 193.606 246.33 193.376 246.252 193.148C246.179 192.92 246.069 192.716 245.923 192.536C245.777 192.355 245.592 192.209 245.369 192.097C245.149 191.985 244.887 191.929 244.582 191.929ZM249.367 194.509C249.367 193.989 249.429 193.512 249.554 193.077C249.679 192.639 249.861 192.263 250.102 191.949C250.343 191.635 250.637 191.39 250.985 191.214C251.338 191.037 251.738 190.949 252.185 190.949C252.598 190.949 252.961 191.02 253.275 191.162C253.593 191.3 253.868 191.502 254.1 191.768L254.152 191.078H255.248V200.738H254.055V197.424C253.823 197.669 253.552 197.858 253.242 197.991C252.933 198.12 252.576 198.185 252.172 198.185C251.729 198.185 251.334 198.094 250.985 197.914C250.642 197.733 250.349 197.484 250.108 197.166C249.868 196.848 249.683 196.474 249.554 196.044C249.429 195.609 249.367 195.143 249.367 194.644V194.509ZM250.56 194.644C250.56 194.984 250.596 195.309 250.67 195.618C250.747 195.928 250.863 196.201 251.018 196.437C251.172 196.673 251.368 196.863 251.605 197.004C251.845 197.142 252.131 197.211 252.462 197.211C252.845 197.211 253.165 197.125 253.423 196.953C253.681 196.781 253.892 196.557 254.055 196.282V192.839C253.973 192.705 253.879 192.585 253.771 192.478C253.668 192.366 253.55 192.269 253.417 192.187C253.288 192.106 253.144 192.043 252.985 192C252.83 191.953 252.66 191.929 252.475 191.929C252.144 191.929 251.858 192 251.617 192.142C251.377 192.284 251.177 192.475 251.018 192.716C250.863 192.953 250.747 193.226 250.67 193.535C250.596 193.845 250.56 194.169 250.56 194.509V194.644ZM259.091 198.862H258.021L261.942 188.666H263.006L259.091 198.862ZM270.086 196.205C270.086 196.063 270.058 195.936 270.002 195.824C269.947 195.708 269.852 195.603 269.719 195.508C269.585 195.414 269.409 195.328 269.19 195.25C268.971 195.169 268.698 195.096 268.371 195.031C267.971 194.95 267.606 194.851 267.275 194.735C266.948 194.619 266.666 194.481 266.43 194.322C266.198 194.159 266.017 193.969 265.888 193.754C265.759 193.535 265.695 193.282 265.695 192.993C265.695 192.71 265.761 192.445 265.895 192.2C266.028 191.951 266.215 191.734 266.456 191.549C266.696 191.364 266.982 191.218 267.313 191.11C267.649 191.003 268.016 190.949 268.416 190.949C268.846 190.949 269.233 191.005 269.577 191.117C269.921 191.229 270.213 191.383 270.454 191.581C270.695 191.779 270.879 192.011 271.008 192.278C271.142 192.54 271.208 192.824 271.208 193.129H270.015C270.015 192.978 269.977 192.832 269.899 192.69C269.822 192.544 269.714 192.415 269.577 192.303C269.439 192.192 269.272 192.101 269.074 192.033C268.88 191.964 268.661 191.929 268.416 191.929C268.162 191.929 267.939 191.957 267.745 192.013C267.556 192.069 267.397 192.144 267.268 192.239C267.144 192.334 267.049 192.443 266.984 192.568C266.92 192.693 266.888 192.822 266.888 192.955C266.888 193.092 266.914 193.215 266.965 193.322C267.017 193.43 267.105 193.527 267.23 193.613C267.358 193.699 267.528 193.776 267.739 193.845C267.954 193.913 268.225 193.98 268.551 194.045C268.981 194.135 269.366 194.24 269.706 194.361C270.045 194.477 270.331 194.619 270.563 194.786C270.796 194.95 270.972 195.141 271.092 195.36C271.217 195.579 271.279 195.833 271.279 196.121C271.279 196.431 271.208 196.712 271.066 196.966C270.929 197.219 270.735 197.437 270.486 197.617C270.237 197.798 269.938 197.937 269.59 198.036C269.241 198.135 268.861 198.185 268.448 198.185C267.975 198.185 267.554 198.122 267.184 197.998C266.815 197.869 266.501 197.701 266.243 197.495C265.989 197.284 265.794 197.041 265.656 196.766C265.523 196.491 265.456 196.205 265.456 195.908H266.649C266.666 196.153 266.731 196.36 266.843 196.527C266.959 196.695 267.101 196.83 267.268 196.934C267.44 197.037 267.629 197.11 267.836 197.153C268.042 197.196 268.246 197.217 268.448 197.217C268.951 197.217 269.349 197.125 269.641 196.94C269.934 196.755 270.082 196.51 270.086 196.205ZM276.464 198.185C275.974 198.185 275.522 198.101 275.11 197.933C274.701 197.765 274.351 197.531 274.059 197.23C273.766 196.929 273.538 196.572 273.375 196.16C273.212 195.747 273.13 195.298 273.13 194.812V194.541C273.13 193.978 273.22 193.475 273.401 193.032C273.581 192.585 273.82 192.209 274.117 191.904C274.418 191.594 274.757 191.358 275.135 191.194C275.518 191.031 275.909 190.949 276.309 190.949C276.812 190.949 277.251 191.037 277.625 191.214C278.003 191.386 278.317 191.626 278.566 191.936C278.816 192.241 279 192.602 279.121 193.019C279.245 193.436 279.308 193.888 279.308 194.373V194.909H274.323C274.336 195.227 274.396 195.526 274.504 195.805C274.615 196.084 274.766 196.33 274.955 196.54C275.148 196.747 275.378 196.91 275.645 197.03C275.911 197.151 276.206 197.211 276.528 197.211C276.954 197.211 277.332 197.125 277.663 196.953C277.994 196.781 278.27 196.553 278.489 196.269L279.217 196.837C279.101 197.013 278.955 197.183 278.779 197.346C278.607 197.505 278.407 197.647 278.179 197.772C277.951 197.897 277.693 197.995 277.405 198.069C277.117 198.146 276.804 198.185 276.464 198.185ZM276.309 191.929C276.068 191.929 275.841 191.975 275.626 192.065C275.411 192.151 275.217 192.28 275.045 192.452C274.873 192.619 274.727 192.828 274.607 193.077C274.491 193.322 274.409 193.606 274.362 193.929H278.115V193.838C278.102 193.606 278.057 193.376 277.979 193.148C277.906 192.92 277.797 192.716 277.65 192.536C277.504 192.355 277.319 192.209 277.096 192.097C276.877 191.985 276.614 191.929 276.309 191.929ZM284.286 197.217C284.501 197.217 284.71 197.183 284.912 197.114C285.118 197.045 285.301 196.951 285.46 196.83C285.619 196.706 285.746 196.562 285.84 196.398C285.939 196.231 285.991 196.05 285.995 195.857H287.123C287.119 196.166 287.037 196.463 286.878 196.747C286.724 197.026 286.515 197.273 286.253 197.488C285.991 197.699 285.69 197.869 285.35 197.998C285.01 198.122 284.656 198.185 284.286 198.185C283.757 198.185 283.295 198.09 282.9 197.901C282.504 197.712 282.173 197.458 281.907 197.14C281.644 196.817 281.447 196.448 281.313 196.031C281.18 195.609 281.113 195.167 281.113 194.702V194.432C281.113 193.972 281.18 193.531 281.313 193.11C281.447 192.688 281.644 192.319 281.907 192C282.173 191.678 282.504 191.422 282.9 191.233C283.295 191.044 283.757 190.949 284.286 190.949C284.699 190.949 285.077 191.016 285.421 191.149C285.769 191.278 286.068 191.457 286.317 191.684C286.571 191.908 286.769 192.174 286.911 192.484C287.053 192.794 287.123 193.125 287.123 193.477H285.995C285.991 193.266 285.943 193.069 285.853 192.884C285.767 192.695 285.649 192.529 285.498 192.387C285.348 192.245 285.167 192.134 284.957 192.052C284.75 191.97 284.527 191.929 284.286 191.929C283.916 191.929 283.605 192.005 283.351 192.155C283.102 192.301 282.9 192.495 282.745 192.736C282.59 192.972 282.478 193.239 282.41 193.535C282.345 193.832 282.313 194.131 282.313 194.432V194.702C282.313 195.008 282.345 195.311 282.41 195.612C282.478 195.908 282.588 196.177 282.738 196.418C282.893 196.654 283.095 196.848 283.345 196.998C283.598 197.144 283.912 197.217 284.286 197.217Z" fill="#161825"/>
<path d="M67.4967 195.592H71.8947V197.056H65.6782V187.666H67.4967V195.592ZM74.0292 190.078H77.8274V195.598H79.7168V197.056H74.0292V195.598H76.0153V191.542H74.0292V190.078ZM75.8864 188.292C75.8864 188.154 75.91 188.028 75.9573 187.911C76.0089 187.791 76.0798 187.69 76.1701 187.608C76.2604 187.522 76.3679 187.456 76.4925 187.409C76.6215 187.361 76.7634 187.338 76.9181 187.338C77.2363 187.338 77.4878 187.428 77.6726 187.608C77.8618 187.785 77.9564 188.013 77.9564 188.292C77.9564 188.571 77.8618 188.801 77.6726 188.982C77.4878 189.158 77.2363 189.246 76.9181 189.246C76.7634 189.246 76.6215 189.223 76.4925 189.175C76.3679 189.128 76.2604 189.064 76.1701 188.982C76.0798 188.896 76.0089 188.795 75.9573 188.679C75.91 188.559 75.8864 188.43 75.8864 188.292ZM83.1088 190.078L83.2184 191.046C83.4678 190.697 83.7709 190.429 84.1277 190.239C84.4845 190.046 84.88 189.949 85.3142 189.949C85.6668 189.949 85.9892 190.001 86.2815 190.104C86.5739 190.207 86.8253 190.373 87.036 190.601C87.251 190.824 87.4165 191.114 87.5325 191.471C87.6529 191.824 87.7131 192.254 87.7131 192.761V197.056H85.9204V192.787C85.9204 192.512 85.8882 192.286 85.8237 192.11C85.7635 191.929 85.6753 191.787 85.5593 191.684C85.4432 191.581 85.3035 191.51 85.1401 191.471C84.9767 191.428 84.7919 191.407 84.5855 191.407C84.2803 191.407 84.0202 191.469 83.8053 191.594C83.5903 191.714 83.4162 191.882 83.2829 192.097V197.056H81.4838V190.078H83.1088ZM93.8651 196.075C93.6286 196.424 93.3427 196.697 93.0074 196.894C92.6764 197.092 92.3131 197.191 91.9176 197.191C91.5565 197.191 91.2254 197.135 90.9245 197.023C90.6236 196.912 90.3656 196.735 90.1507 196.495C89.9357 196.25 89.7681 195.94 89.6477 195.566C89.5316 195.188 89.4736 194.734 89.4736 194.205V190.078H91.2663V194.218C91.2663 194.502 91.2856 194.741 91.3243 194.934C91.3673 195.127 91.434 195.284 91.5242 195.405C91.6145 195.521 91.7327 195.605 91.8789 195.656C92.0251 195.708 92.2035 195.734 92.4141 195.734C92.771 195.734 93.0612 195.667 93.2847 195.534C93.5083 195.396 93.6781 195.209 93.7941 194.973V190.078H95.5933V197.056H93.9683L93.8651 196.075ZM100.539 192.258L102.074 190.078H104.002L101.661 193.502L104.086 197.056H102.152L100.546 194.773L98.953 197.056H97.012L99.4367 193.502L97.1023 190.078H99.0304L100.539 192.258Z" fill="#161825"/>
</svg>
