<svg width="179" height="30" viewBox="0 0 179 30" fill="none" xmlns="http://www.w3.org/2000/svg">
<path d="M15.4518 29.9927V24.1599C21.6628 24.1599 26.4538 18.0628 24.0592 11.6109C23.6234 10.4134 22.9287 9.32583 22.0242 8.42519C21.1196 7.52455 20.0273 6.83285 18.8245 6.39901C17.4286 5.87638 15.9265 5.69741 14.4461 5.87735C12.9657 6.05728 11.5509 6.59078 10.3222 7.43242C9.09354 8.27407 8.08736 9.3989 7.38937 10.7111C6.69139 12.0234 6.32227 13.4841 6.31347 14.969H0.457031C0.457031 5.24771 9.9517 -2.44065 20.3319 0.741844C22.5626 1.43948 24.5909 2.66358 26.244 4.30988C27.8972 5.95618 29.1263 7.97592 29.8265 10.1971C33.0211 20.5375 25.301 29.9927 15.4518 29.9927Z" fill="#576084"/>
<path d="M15.5402 24.1594H9.68378V18.4153H15.5402V24.1594ZM9.68378 28.667H5.24736V24.1594H9.68378V28.667ZM5.24736 24.1594H1.52539V20.4482H5.24736V24.1594ZM53.9607 8.69397C52.2752 7.54444 50.057 6.92001 47.5716 6.92001H42.1606V24.1523H47.5734C50.0582 24.1523 52.1879 23.5338 53.9625 22.2967C54.9318 21.5947 55.6971 20.6496 56.1807 19.5577C56.7152 18.4082 56.9789 16.9943 56.9789 15.4918C56.9789 13.9892 56.7135 12.5754 56.1807 11.5146C55.6462 10.1965 54.9371 9.31308 53.9607 8.69397ZM45.3551 9.8435H47.0406C48.9043 9.8435 50.5007 10.1983 51.7425 10.993C53.0735 11.7878 53.7024 13.2992 53.7024 15.5007C53.7024 17.7022 52.9897 19.3005 51.7425 20.1839C50.5898 20.8935 49.0807 21.3335 47.1279 21.3335H45.3551V9.8435ZM60.7935 6.66278C60.5469 6.65622 60.3016 6.70006 60.0727 6.79159C59.8438 6.88313 59.6362 7.02041 59.4626 7.19497C59.2604 7.35054 59.0985 7.55197 58.9903 7.78248C58.8822 8.01298 58.8309 8.26589 58.8408 8.52012C58.8408 9.01225 59.0372 9.48422 59.3867 9.8322C59.7362 10.1802 60.2102 10.3757 60.7045 10.3757C61.1987 10.3757 61.6728 10.1802 62.0223 9.8322C62.3718 9.48422 62.5681 9.01225 62.5681 8.52012C62.5746 8.27461 62.5305 8.03038 62.4386 7.80247C62.3467 7.57457 62.2088 7.36782 62.0336 7.19497C61.7681 6.84018 61.3209 6.66278 60.7864 6.66278H60.7935ZM59.1829 11.9652H62.2884V24.0725H59.1954V11.9652H59.1829ZM73.3919 13.0295C72.5011 12.2348 71.4321 11.7044 70.2864 11.7044C69.5044 11.6872 68.7277 11.8366 68.0084 12.1426C67.2891 12.4485 66.6437 12.9039 66.1155 13.4783C65.0072 14.6472 64.4022 16.2014 64.43 17.8086C64.43 19.4885 64.9645 20.9893 66.0335 22.1388C67.1025 23.2884 68.5172 23.8188 70.2045 23.8188C71.2902 23.8357 72.351 23.4939 73.2209 22.8466V23.111C73.2209 24.0831 72.9554 24.8849 72.4227 25.4171C71.89 25.9493 71.1755 26.2118 70.2045 26.2118C68.7791 26.2118 67.8972 25.6797 66.8335 24.1789L64.6955 26.2118L64.7845 26.3005C65.2282 26.9197 65.9373 27.5423 66.8246 28.1561C67.7119 28.7699 68.8646 29.0431 70.1956 29.0431C72.0592 29.0431 73.4792 28.5109 74.5429 27.3631C75.6066 26.2154 76.2284 24.7998 76.2284 22.9442V11.9652H73.2155V13.0295H73.3937H73.3919ZM72.5955 20.1875C72.061 20.8066 71.3483 21.0745 70.4575 21.0745C69.5666 21.0745 68.8539 20.8101 68.3194 20.1875C67.7849 19.5648 67.5212 18.7683 67.5212 17.8015C67.5212 16.8347 67.8045 16.0293 68.339 15.4102C68.8735 14.7911 69.5862 14.5232 70.4771 14.5232C71.3679 14.5232 72.0806 14.7875 72.6151 15.4102C73.1496 16.0329 73.4133 16.8294 73.4133 17.7962C73.4133 18.763 73.1478 19.5701 72.6151 20.1821L72.5955 20.1875ZM79.0916 11.9634H82.1971V24.0707H79.072V11.9652L79.0916 11.9634ZM80.5811 6.66278C80.3347 6.6567 80.0896 6.70053 79.8607 6.79163C79.6318 6.88273 79.424 7.01918 79.2497 7.19272C79.0754 7.36625 78.9383 7.57324 78.8468 7.80112C78.7553 8.02899 78.7113 8.27301 78.7174 8.51835C78.7174 9.01047 78.9138 9.48244 79.2633 9.83043C79.6128 10.1784 80.0868 10.3739 80.5811 10.3739C81.0753 10.3739 81.5494 10.1784 81.8989 9.83043C82.2484 9.48244 82.4447 9.01047 82.4447 8.51835C82.4509 8.27286 82.4068 8.02869 82.3152 7.80069C82.2236 7.57269 82.0863 7.36562 81.9119 7.19206C81.7374 7.0185 81.5293 6.88208 81.3002 6.7911C81.0711 6.70011 80.8259 6.65645 80.5793 6.66278H80.5811ZM88.8286 8.69397H85.8157V11.9652H84.034V14.7042H85.8157V19.7422C85.8157 21.3388 86.172 22.4812 86.7921 23.1003C87.4121 23.7194 88.5738 24.0725 90.0757 24.0725C90.5804 24.087 91.0854 24.0573 91.5848 23.9838H91.763V21.243L90.694 21.3317C89.9813 21.3317 89.4468 21.243 89.2686 20.9769C89.0032 20.7126 88.9123 20.1821 88.9123 19.3803V14.7929H91.7523V12.0521H88.9212L88.8286 8.69397ZM106.042 6.92001H109.147V24.1523H106.045V6.93065L106.042 6.92001ZM140.118 19.8327C139.665 20.3552 139.159 20.8306 138.609 21.2519C138.126 21.5436 137.571 21.6965 137.006 21.6936C136.589 21.69 136.178 21.601 135.798 21.4322C135.418 21.2634 135.077 21.0184 134.796 20.7126C134.175 20.003 133.905 19.21 133.905 18.1492C133.905 17.0884 134.171 16.2936 134.796 15.5858C135.066 15.2645 135.406 15.0096 135.791 14.841C136.176 14.6724 136.595 14.5946 137.015 14.6137C137.991 14.6137 139.055 15.2328 139.942 16.2936L141.982 14.3423C140.651 12.6623 138.965 11.8676 136.924 11.8676C135.238 11.8676 133.818 12.4867 132.576 13.7232C131.414 14.9365 130.775 16.5543 130.795 18.2308C130.795 20.0048 131.416 21.5889 132.576 22.7384C133.128 23.3359 133.801 23.8102 134.55 24.13C135.3 24.4499 136.109 24.608 136.924 24.594C139.142 24.594 140.916 23.6219 142.158 21.855L140.118 19.822V19.8327ZM152.629 13.7249C152.162 13.1125 151.55 12.6249 150.848 12.3058C150.042 11.9344 149.162 11.7523 148.275 11.7736C146.589 11.7736 145.169 12.3927 144.104 13.6291C143.096 14.9144 142.563 16.5062 142.595 18.1368C142.595 19.9923 143.129 21.4949 144.28 22.6444C145.431 23.7939 146.853 24.4184 148.717 24.4184C150.757 24.4184 152.444 23.6236 153.775 21.9437L153.864 21.855L151.824 19.9036C151.646 20.168 151.38 20.3454 151.111 20.6132C150.859 20.8775 150.556 21.0881 150.22 21.2323C149.759 21.4841 149.237 21.6067 148.711 21.5871C147.939 21.5983 147.185 21.3481 146.573 20.8775C146.039 20.4358 145.775 19.8132 145.682 19.022H153.846V17.8725C153.866 17.0888 153.745 16.3078 153.49 15.5663C153.36 14.8811 153.053 14.2416 152.599 13.7107L152.629 13.7249ZM145.975 16.5597C146.11 16.0249 146.386 15.5353 146.773 15.1405C146.983 14.9324 147.233 14.7699 147.509 14.6634C147.785 14.5568 148.081 14.5085 148.376 14.5214C149.089 14.5214 149.707 14.6988 150.062 15.1405C150.418 15.4953 150.596 16.0275 150.684 16.5597H145.975ZM164.431 12.9355C163.54 12.1408 162.213 11.786 160.617 11.786C159.64 11.8135 158.678 12.0242 157.78 12.4069C156.982 12.8486 156.177 13.4713 155.74 14.3582L157.7 16.2138C158.498 14.8886 159.386 14.4398 160.627 14.4398C161.208 14.4245 161.776 14.6129 162.231 14.972C162.433 15.1276 162.595 15.329 162.703 15.5595C162.811 15.79 162.863 16.0429 162.853 16.2972V16.9163C162.138 16.6763 161.389 16.5564 160.635 16.5615C159.126 16.5615 157.884 16.9163 156.907 17.6259C155.931 18.3355 155.482 19.3998 155.482 20.631C155.482 21.7805 155.838 22.6639 156.635 23.37C157.431 24.076 158.416 24.3421 159.562 24.3421C160.708 24.3421 161.78 23.9004 162.846 23.1003V24.0725H165.862V16.2954C165.862 14.8762 165.418 13.732 164.437 12.9373L164.431 12.9355ZM159.024 19.4761C159.38 19.2118 159.822 19.1213 160.449 19.1213C161.237 19.1478 162.015 19.2968 162.757 19.563V20.7126C162.022 21.356 161.073 21.7027 160.095 21.6847C159.56 21.6847 159.118 21.596 158.847 21.3299C158.577 21.0638 158.404 20.7977 158.404 20.4429C158.435 20.2472 158.507 20.0599 158.614 19.8927C158.72 19.7255 158.861 19.5819 159.026 19.4708L159.024 19.4761ZM177.652 13.1129C176.761 12.1408 175.611 11.6937 174.102 11.6937C172.86 11.6937 171.884 12.0485 171.175 12.7581V12.0485H168.157V24.1558H171.262V17.4432C171.262 16.5562 171.44 15.7632 171.884 15.2346C172.101 14.9765 172.375 14.7709 172.683 14.6332C172.992 14.4955 173.328 14.4294 173.666 14.4398C173.97 14.4251 174.274 14.4816 174.552 14.6048C174.831 14.728 175.076 14.9146 175.269 15.1494C175.686 15.7143 175.905 16.4 175.891 17.1008V24.17H178.982V17.0901C178.893 15.4108 178.45 14.085 177.652 13.1129ZM102.23 12.9355C101.34 12.1408 100.012 11.786 98.4159 11.786C97.4385 11.8125 96.4749 12.0226 95.5758 12.4051C94.7776 12.8468 93.9723 13.4695 93.5358 14.3565L95.4957 16.212C96.2939 14.8869 97.1811 14.4381 98.423 14.4381C99.0036 14.4227 99.5712 14.6111 100.027 14.9702C100.229 15.1258 100.391 15.3273 100.499 15.5578C100.607 15.7883 100.658 16.0412 100.648 16.2954V16.9145C99.9338 16.6745 99.1842 16.5546 98.4301 16.5597C96.9216 16.5597 95.6792 16.9145 94.7028 17.6241C93.7264 18.3337 93.2774 19.3981 93.2774 20.6292C93.2774 21.7787 93.6338 22.6622 94.4302 23.3682C95.2266 24.0742 96.2119 24.3403 97.3575 24.3403C98.5032 24.3403 99.5757 23.8986 100.641 23.0985V24.0707H103.658V16.2954C103.658 14.8762 103.123 13.732 102.232 12.9373L102.23 12.9355ZM96.7304 19.4761C97.0867 19.2118 97.5286 19.1213 98.1557 19.1213C98.9433 19.1478 99.7218 19.2968 100.463 19.563V20.7126C99.7287 21.356 98.7792 21.7027 97.8012 21.6847C97.2667 21.6847 96.8248 21.596 96.554 21.3299C96.2832 21.0638 96.1103 20.7977 96.1103 20.4429C96.243 20.0771 96.4553 19.7451 96.7322 19.4708L96.7304 19.4761ZM120.251 24.4201C118.495 24.4208 116.778 23.9031 115.318 22.9324C113.858 21.9617 112.72 20.5817 112.047 18.9668C111.375 17.352 111.199 15.5749 111.541 13.8603C111.883 12.1456 112.728 10.5705 113.969 9.33419C115.21 8.09784 116.792 7.25576 118.514 6.91446C120.236 6.57316 122.021 6.74797 123.643 7.41679C125.265 8.0856 126.652 9.21837 127.627 10.6718C128.603 12.1253 129.123 13.8341 129.123 15.5823C129.115 17.923 128.178 20.1655 126.516 21.821C124.853 23.4766 122.602 24.4108 120.251 24.4201ZM120.251 9.75125C119.109 9.7495 117.993 10.0848 117.043 10.7147C116.094 11.3447 115.353 12.241 114.915 13.2902C114.476 14.3394 114.361 15.4945 114.582 16.6092C114.803 17.7239 115.352 18.7483 116.158 19.5526C116.964 20.357 117.992 20.9052 119.111 21.128C120.23 21.3507 121.39 21.238 122.445 20.804C123.5 20.3701 124.401 19.6344 125.036 18.6901C125.671 17.7458 126.01 16.6352 126.011 15.4989C126.012 14.7443 125.864 13.9967 125.575 13.2992C125.286 12.6017 124.861 11.9679 124.325 11.4342C123.789 10.9005 123.153 10.4774 122.453 10.1892C121.752 9.90103 121.001 9.75339 120.243 9.7548" fill="#576084"/>
</svg>
