<svg width="192" height="31" viewBox="0 0 192 31" fill="none" xmlns="http://www.w3.org/2000/svg">
<path d="M22.499 7.86817H23.5803L26.6622 4.78227L26.8134 3.47162C21.0772 -1.59837 12.323 -1.05067 7.25945 4.69277C5.85256 6.28686 4.83304 8.18571 4.27539 10.2401C4.61807 10.0995 4.99906 10.076 5.35663 10.1762L11.5206 9.15751C11.5206 9.15751 11.8335 8.63751 11.9973 8.66948C14.7388 5.65391 19.3532 5.30227 22.5203 7.86817H22.499Z" fill="#576084"/>
<path d="M31.0546 10.2402C30.3459 7.62738 28.8922 5.27886 26.8701 3.48444L22.5452 7.81492C24.3714 9.30885 25.4122 11.5615 25.3675 13.9228V14.6921C27.4938 14.6921 29.2178 16.4184 29.2178 18.5474C29.2178 20.6764 27.4938 22.4026 25.3675 22.4026H17.6668L16.8984 23.1826V27.8072L17.6668 28.5765H25.3675C30.8971 28.6192 35.4158 24.1651 35.4584 18.6283C35.4839 15.2654 33.8301 12.1198 31.0546 10.2402Z" fill="#576084"/>
<path d="M9.9549 28.5275H17.6556V22.3557H9.9549C9.40577 22.3557 8.86515 22.2364 8.36496 22.0084L7.28372 22.3451L4.18047 25.431L3.91016 26.5136C5.64909 27.8306 7.77326 28.5382 9.9549 28.5275Z" fill="#576084"/>
<path d="M9.95485 8.50753C4.42305 8.5395 -0.0317559 13.0554 0.000170539 18.5942C0.0193264 21.6865 1.46027 24.5977 3.9101 26.4816L8.37555 22.0105C6.43868 21.1346 5.57666 18.85 6.45145 16.9106C7.32623 14.9713 9.60791 14.1082 11.5448 14.9841C12.3983 15.3698 13.0815 16.056 13.4689 16.9106L17.9343 12.4395C16.0358 9.95031 13.0815 8.49474 9.95485 8.50753Z" fill="#576084"/>
<path d="M55.9583 24.2183C53.2786 24.2524 50.7032 23.1933 48.8217 21.2838C46.8784 19.4552 45.7929 16.8936 45.8269 14.2233C45.795 11.5529 46.8805 8.99344 48.8217 7.16279C50.6947 5.2341 53.2722 4.15361 55.9583 4.17492C58.5167 4.14082 60.9835 5.13607 62.8033 6.93688L60.8792 8.89754C59.5617 7.62098 57.7909 6.92197 55.9583 6.94754C54.0363 6.9241 52.191 7.71049 50.8756 9.11278C49.5091 10.4703 48.7557 12.3287 48.7876 14.2552C48.7706 16.1605 49.524 17.9911 50.8756 19.3338C53.6596 22.1128 58.1484 22.166 60.9984 19.4531C61.8477 18.5239 62.367 17.339 62.4798 16.0859H55.9902V13.3154H65.1723C65.2617 13.8738 65.2978 14.4385 65.2808 15.0054C65.3958 17.3688 64.5401 19.6769 62.9119 21.3946C61.1006 23.2806 58.572 24.3078 55.9583 24.2183ZM77.3065 22.377C74.746 24.8342 70.7062 24.8342 68.1457 22.377C66.9048 21.1729 66.228 19.5042 66.2748 17.7759C66.228 16.0475 66.9069 14.3788 68.1457 13.1747C70.7083 10.7239 74.7438 10.7239 77.3065 13.1747C78.5452 14.3788 79.2242 16.0475 79.1773 17.7759C79.222 19.5064 78.5388 21.1751 77.2958 22.377H77.3065ZM70.1677 20.5698C71.4895 21.9849 73.7073 22.0574 75.1206 20.7318C75.1759 20.6785 75.2312 20.6252 75.2823 20.5698C76.0039 19.8218 76.3934 18.8159 76.3636 17.7759C76.3955 16.7338 76.006 15.7215 75.2823 14.9713C73.9222 13.552 71.6704 13.5029 70.2507 14.8647C70.2145 14.8988 70.1783 14.9351 70.1443 14.9713C69.4206 15.7215 69.0311 16.7338 69.063 17.7759C69.0354 18.8159 69.4291 19.8239 70.1549 20.5698H70.1677ZM91.386 22.377C88.8255 24.8342 84.7858 24.8342 82.2253 22.377C80.9844 21.1729 80.3075 19.5042 80.3544 17.7759C80.3075 16.0475 80.9865 14.3788 82.2253 13.1747C84.7858 10.7175 88.8255 10.7175 91.386 13.1747C92.6248 14.3788 93.3038 16.0475 93.2569 17.7759C93.3059 19.5042 92.6269 21.1729 91.386 22.377ZM84.2494 20.5698C85.5712 21.9849 87.789 22.0574 89.2023 20.7318C89.2576 20.6785 89.3129 20.6252 89.364 20.5698C90.0856 19.8218 90.4751 18.8159 90.4453 17.7759C90.4772 16.7338 90.0877 15.7215 89.364 14.9713C88.004 13.552 85.7521 13.5029 84.3345 14.8647C84.2984 14.8988 84.2622 14.9351 84.2281 14.9713C83.5045 15.7215 83.1149 16.7338 83.1469 17.7759C83.1192 18.8159 83.513 19.8239 84.2388 20.5698H84.2494ZM100.643 30.0001C99.3464 30.0406 98.0757 29.6357 97.0413 28.8514C96.1239 28.161 95.4003 27.2424 94.9426 26.1875L97.4074 25.1582C97.6756 25.789 98.0948 26.3431 98.6291 26.7715C99.1995 27.2318 99.9168 27.4747 100.651 27.4534C101.592 27.511 102.511 27.1551 103.171 26.4795C103.822 25.6931 104.144 24.6829 104.069 23.6642V22.7329H103.971C103.135 23.726 101.881 24.2674 100.587 24.1949C98.9462 24.1992 97.3776 23.5172 96.2623 22.311C95.0533 21.1154 94.385 19.4765 94.4127 17.7738C94.3829 16.0624 95.0512 14.4129 96.2623 13.2046C97.3754 11.9941 98.9441 11.3057 100.587 11.31C101.275 11.3079 101.956 11.4613 102.577 11.7533C103.116 11.9877 103.595 12.3393 103.984 12.7826H104.082V11.7533H106.764V23.2849C106.907 25.1283 106.285 26.9505 105.044 28.3208C103.863 29.4524 102.277 30.0577 100.643 30.0001ZM100.838 21.6844C101.773 21.7057 102.669 21.3072 103.282 20.6018C103.948 19.8367 104.301 18.8457 104.265 17.8292C104.306 16.7956 103.954 15.7875 103.282 15.0033C102.669 14.2957 101.773 13.8993 100.838 13.9206C99.8785 13.9015 98.9569 14.2957 98.3077 15.0033C97.5925 15.7598 97.203 16.7679 97.2265 17.8079C97.2052 18.8393 97.5925 19.8367 98.3077 20.5805C98.9526 21.2944 99.8742 21.6972 100.838 21.6844ZM111.534 4.90164V23.8283H108.711V4.90164H111.534ZM119.277 24.2183C117.568 24.2631 115.918 23.5918 114.724 22.3664C113.513 21.1516 112.851 19.4915 112.896 17.7759C112.832 16.0561 113.469 14.3831 114.658 13.1406C115.782 11.9557 117.353 11.2993 118.983 11.3313C119.726 11.3228 120.46 11.4677 121.146 11.7533C121.763 12.0026 122.325 12.3713 122.8 12.8359C123.208 13.2302 123.57 13.6692 123.881 14.1465C124.132 14.5493 124.345 14.9734 124.519 15.4124L124.811 16.1498L116.161 19.7131C116.697 20.9449 117.934 21.7206 119.275 21.6631C120.571 21.6674 121.774 20.9875 122.444 19.8772L124.607 21.3392C124.055 22.1298 123.349 22.8011 122.529 23.3105C121.559 23.9242 120.426 24.2397 119.277 24.2183ZM115.665 17.5798L121.418 15.1865C121.242 14.7646 120.924 14.4172 120.52 14.202C120.069 13.9462 119.558 13.8162 119.039 13.8226C118.16 13.8461 117.323 14.2147 116.714 14.852C115.976 15.5595 115.591 16.559 115.665 17.5798Z" fill="#576084"/>
<path d="M139.597 24.2183C134.677 24.3036 130.62 20.378 130.535 15.4508C130.532 15.3315 130.532 15.21 130.537 15.0907C130.422 10.1634 134.319 6.07804 139.238 5.96296C139.357 5.96083 139.478 5.96083 139.597 5.96083C142.058 5.88411 144.42 6.93689 146.01 8.81869L144.452 10.3339C143.284 8.86132 141.483 8.03656 139.608 8.11329C137.81 8.07279 136.071 8.76968 134.796 10.0398C133.47 11.3761 132.761 13.2046 132.838 15.0864C132.759 16.9682 133.47 18.7967 134.796 20.1329C136.071 21.4052 137.81 22.1 139.608 22.0595C141.702 22.0829 143.693 21.1495 145.014 19.5256L146.572 21.0856C145.757 22.0616 144.733 22.8416 143.578 23.3701C142.33 23.9498 140.97 24.2397 139.597 24.2183Z" fill="#576084"/>
<path d="M150.757 23.8283H148.518V6.34015H150.757V23.8283Z" fill="#576084"/>
<path d="M154.413 13.3026C156.854 10.8752 160.796 10.8752 163.237 13.3026C164.395 14.528 165.019 16.1647 164.968 17.8504C165.019 19.5362 164.395 21.1729 163.237 22.3983C160.796 24.8257 156.854 24.8257 154.413 22.3983C153.255 21.1729 152.632 19.5362 152.683 17.8504C152.632 16.1647 153.253 14.528 154.413 13.3026ZM156.077 20.9918C157.51 22.507 159.898 22.5731 161.413 21.1388C161.465 21.0919 161.513 21.0408 161.56 20.9918C162.35 20.1436 162.767 19.0119 162.718 17.8526C162.769 16.6932 162.352 15.5616 161.56 14.7134C160.128 13.1982 157.74 13.1321 156.224 14.5664C156.173 14.6132 156.124 14.6644 156.077 14.7134C155.288 15.5616 154.871 16.6932 154.92 17.8526C154.875 19.0098 155.296 20.1372 156.088 20.9811L156.077 20.9918Z" fill="#576084"/>
<path d="M177.371 23.8283H175.209V22.1724H175.145C174.76 22.8011 174.215 23.3168 173.566 23.6663C172.893 24.0563 172.127 24.263 171.348 24.2609C170.067 24.3483 168.817 23.8453 167.953 22.897C167.134 21.8591 166.723 20.557 166.795 19.2378V11.8747H169.034V18.8265C169.034 21.0578 170.018 22.1724 171.987 22.1724C172.874 22.2001 173.719 21.7973 174.258 21.0898C174.839 20.3545 175.147 19.4403 175.134 18.5026V11.8747H177.374V23.8283H177.371Z" fill="#576084"/>
<path d="M184.974 24.2183C183.437 24.2226 181.975 23.5555 180.972 22.3877C179.851 21.1473 179.251 19.5234 179.295 17.8505C179.251 16.1775 179.851 14.5536 180.972 13.3133C181.975 12.1475 183.437 11.4783 184.974 11.4826C185.825 11.4698 186.666 11.6701 187.417 12.0665C188.079 12.399 188.639 12.9041 189.039 13.5285H189.137L189.039 11.8726V6.34015H191.278V23.8283H189.116V22.1724H189.018C188.618 22.7968 188.058 23.3019 187.396 23.6344C186.651 24.0265 185.819 24.229 184.974 24.2183ZM185.342 22.1724C186.366 22.1873 187.347 21.7611 188.035 21.0024C188.795 20.135 189.184 19.0034 189.116 17.8505C189.184 16.6996 188.795 15.5659 188.035 14.6985C186.677 13.2024 184.365 13.0937 182.871 14.4555C182.786 14.5323 182.705 14.6154 182.628 14.6985C181.866 15.5595 181.477 16.689 181.547 17.8377C181.477 18.9864 181.866 20.1159 182.628 20.9768C183.318 21.7526 184.308 22.1873 185.342 22.1724Z" fill="#576084"/>
</svg>
