<svg width="81" height="31" viewBox="0 0 81 31" fill="none" xmlns="http://www.w3.org/2000/svg">
<path d="M22.5866 10.3464L17.9219 8.79442V2.0693L22.5923 3.44882L22.5866 10.3464Z" fill="#576084"/>
<path d="M23.8027 3.44882L28.4731 2.0693L28.4569 8.78977L23.8027 10.3464V3.44882Z" fill="#576084"/>
<path d="M27.5219 1.34107L23.1691 1.4782e-05L18.873 1.34107L23.1754 2.49072L27.5219 1.34107Z" fill="#576084"/>
<path d="M34.3483 10.3464L29.6836 8.79442V2.0693L34.354 3.44882L34.3483 10.3464Z" fill="#576084"/>
<path d="M35.5645 3.44882L40.2349 2.0693L40.2186 8.78977L35.5645 10.3464V3.44882Z" fill="#576084"/>
<path d="M39.2837 1.34107L34.9308 1.4782e-05L30.6348 1.34107L34.9371 2.49072L39.2837 1.34107Z" fill="#576084"/>
<path d="M4.94775 13.2779L0.277344 11.8983V18.6235L4.94207 20.1754L4.94775 13.2779Z" fill="#576084"/>
<path d="M6.1582 13.2779L10.8286 11.8983L10.8124 18.6189L6.1582 20.1754V13.2779Z" fill="#576084"/>
<path d="M9.87741 11.1701L5.52458 9.82906L1.22852 11.1701L5.53087 12.3198L9.87741 11.1701Z" fill="#576084"/>
<path d="M16.7038 20.1754L12.0391 18.6235V11.8983L16.7095 13.2779L16.7038 20.1754Z" fill="#576084"/>
<path d="M17.9219 13.2779L22.5923 11.8983L22.576 18.6189L17.9219 20.1754V13.2779Z" fill="#576084"/>
<path d="M21.6411 11.1701L17.2882 9.82906L12.9922 11.1701L17.2945 12.3198L21.6411 11.1701Z" fill="#576084"/>
<path d="M10.8229 30.0044L6.1582 28.4524V21.7273L10.8286 23.1068L10.8229 30.0044Z" fill="#576084"/>
<path d="M12.0391 23.1068L16.7095 21.7273L16.6933 28.4479L12.0391 30.0044V23.1068Z" fill="#576084"/>
<path d="M15.7583 20.9991L11.4054 19.6581L7.10938 20.9991L11.4117 22.1488L15.7583 20.9991Z" fill="#576084"/>
<path d="M31.4814 24.0594L31.1383 24.0606C31.0123 24.0606 30.8518 24.1454 30.8124 24.2829L29.7712 27.9395L28.7415 24.2908C28.7105 24.1765 28.6024 24.0606 28.4554 24.0606H28.049C27.9027 24.0606 27.796 24.178 27.7664 24.2932L26.8084 27.9039L25.8187 24.282C25.7796 24.1496 25.6151 24.0606 25.486 24.0606L24.9922 24.0597C24.8867 24.0597 24.7886 24.1049 24.736 24.1777C24.7004 24.227 24.6905 24.2829 24.7069 24.3315L26.2361 29.7281C26.2698 29.8416 26.3684 29.9559 26.5127 29.9559H27.0037C27.1364 29.9559 27.2527 29.8595 27.2862 29.7228L28.2274 26.128L29.2516 29.7269C29.2824 29.8371 29.3815 29.9559 29.5264 29.9559H30.0096C30.144 29.9559 30.2571 29.8628 30.2903 29.7264L31.7622 24.3337C31.7795 24.2818 31.7694 24.2241 31.7343 24.1754C31.6826 24.1039 31.5857 24.0594 31.4814 24.0594Z" fill="#576084"/>
<path d="M35.7275 26.3506H33.1332C33.1929 25.6248 33.6656 24.8723 34.4665 24.8433C35.3188 24.8711 35.7087 25.6064 35.7275 26.3506ZM34.4646 24.0208C32.7122 24.0208 31.9141 25.5653 31.9141 27.0002C31.9141 28.791 32.9063 29.948 34.4418 29.948C35.5407 29.948 36.3784 29.3945 36.7403 28.4274C36.7597 28.3721 36.7536 28.3121 36.7234 28.2583C36.6865 28.193 36.6166 28.1437 36.534 28.1255L36.0475 28.0328C35.9169 28.0124 35.7673 28.0895 35.7178 28.2014C35.4816 28.7387 35.0508 29.0436 34.5103 29.0595C33.9901 29.0434 33.5126 28.7354 33.2937 28.2752C33.1159 27.8993 33.0896 27.5287 33.0867 27.1519L36.6087 27.1507C36.6825 27.1507 36.759 27.1183 36.813 27.0638C36.8581 27.0186 36.8827 26.9625 36.8822 26.9062C36.8735 25.5112 36.234 24.0208 34.4646 24.0208Z" fill="#576084"/>
<path d="M41.214 27.0086C41.214 27.339 41.154 28.9887 39.9782 29.031C39.5842 29.016 39.186 28.785 38.9635 28.4437C38.7997 28.1855 38.7041 27.8286 38.6795 27.3869V26.4163C38.6987 25.6727 39.2237 24.8567 39.9744 24.8251C41.1541 24.8716 41.214 26.652 41.214 27.0086ZM40.1626 23.9706H40.0694C39.4877 23.9706 39.0305 24.2114 38.6795 24.7052L38.679 22.4302C38.679 22.3024 38.5467 22.186 38.4005 22.186H37.894C37.7617 22.186 37.6136 22.2905 37.6133 22.4302V29.5319C37.6138 29.6609 37.7461 29.7781 37.8921 29.7781L38.0409 29.7773C38.1813 29.7773 38.2813 29.6645 38.3151 29.5597L38.4735 29.0584C38.8416 29.5795 39.396 29.8856 39.9893 29.8856H40.0801C41.643 29.8856 42.3425 28.3702 42.3425 26.8684C42.3425 26.1209 42.1576 25.4061 41.8353 24.9075C41.4629 24.3296 40.8219 23.9706 40.1626 23.9706Z" fill="#576084"/>
<path d="M47.8882 26.849C47.5589 26.6131 47.1629 26.5343 46.7663 26.4553L46.0057 26.3147C45.46 26.2253 45.1441 26.0794 45.1441 25.5993C45.1441 25.0918 45.6717 24.8978 46.119 24.8858C46.6653 24.8995 47.0761 25.1425 47.2755 25.5698C47.3229 25.6705 47.4279 25.7383 47.5371 25.7383C47.5558 25.7383 47.5748 25.7362 47.5928 25.7323L48.0674 25.6277C48.1449 25.6107 48.2172 25.5578 48.256 25.4889C48.287 25.4343 48.2937 25.3746 48.2752 25.3213C47.9848 24.4779 47.2474 24.0322 46.1318 24.0322C45.1239 24.0344 44.0467 24.4812 44.0467 25.7291C44.0467 26.582 44.5844 27.1236 45.6458 27.3392L46.4971 27.5009C46.9645 27.5901 47.4425 27.7487 47.4425 28.249C47.4425 28.9896 46.5779 29.0651 46.3166 29.0705C45.7302 29.0579 45.0663 28.7972 44.9051 28.245C44.8727 28.1236 44.7195 28.0378 44.5851 28.0657L44.0886 28.1678C44.0139 28.1835 43.9456 28.2319 43.9058 28.2973C43.8724 28.3518 43.8629 28.4128 43.8783 28.4685C44.1344 29.3847 45.0216 29.9372 46.2515 29.9465L46.2788 29.9467C47.3773 29.9467 48.5509 29.4778 48.5509 28.1624C48.5509 27.627 48.3093 27.1483 47.8882 26.849Z" fill="#576084"/>
<path d="M52.9102 26.3559H50.3152C50.3745 25.6295 50.8473 24.8766 51.6482 24.849C52.5001 24.8759 52.8905 25.6111 52.9102 26.3559ZM51.6468 24.0258C49.894 24.0258 49.0957 25.5703 49.0957 27.0051C49.0957 28.7958 50.0881 29.9527 51.6238 29.9527C52.7229 29.9527 53.5606 29.3991 53.9228 28.4323C53.942 28.3769 53.936 28.3168 53.9055 28.2628C53.8687 28.1974 53.7986 28.1481 53.7161 28.1303L53.229 28.0375C53.115 28.0191 52.956 28.0779 52.9 28.2063C52.6635 28.7433 52.2327 29.0482 51.6926 29.0648C51.172 29.0482 50.6945 28.7402 50.4766 28.2802C50.2984 27.9051 50.272 27.5342 50.2694 27.1566L53.791 27.1557C53.8644 27.1557 53.9403 27.1235 53.9943 27.0693C54.0396 27.0239 54.0641 26.9678 54.0636 26.9112C54.0555 25.5163 53.4165 24.0258 51.6468 24.0258Z" fill="#576084"/>
<path d="M57.39 24.0914C57.3213 24.0839 57.2552 24.0802 57.1911 24.0802C56.6 24.0802 56.12 24.4006 55.7868 25.0126L55.788 24.4766C55.7875 24.3468 55.6576 24.2328 55.5101 24.2328H55.0702C54.9259 24.2328 54.7986 24.3473 54.7976 24.4787L54.7969 29.6852C54.7969 29.8158 54.9242 29.9305 55.0695 29.9305L55.5827 29.9303C55.7163 29.9303 55.8666 29.8259 55.8678 29.6852L55.8681 27.0603C55.8681 26.6275 55.9086 26.3014 56.116 25.9156C56.4123 25.3661 56.8261 25.0965 57.381 25.0922C57.5201 25.0912 57.6422 24.9702 57.6422 24.8331V24.3461C57.6422 24.2186 57.5313 24.1068 57.39 24.0914Z" fill="#576084"/>
<path d="M62.7782 23.9892L62.3729 23.9894C62.2459 23.9894 62.0832 24.0802 62.0437 24.2135L60.73 28.3298L59.3883 24.2176C59.3487 24.0811 59.1856 23.9894 59.0579 23.9894L58.4792 23.9888C58.373 23.9888 58.2702 24.036 58.2176 24.109C58.1823 24.1578 58.1727 24.2132 58.1901 24.2649L60.0263 29.6948C60.0616 29.8022 60.1552 29.9278 60.3032 29.9278H61.0036C61.1321 29.9278 61.2375 29.8406 61.2857 29.6943L63.0667 24.2666C63.0845 24.2151 63.075 24.1595 63.0399 24.1105C62.987 24.0369 62.8844 23.9892 62.7782 23.9892Z" fill="#576084"/>
<path d="M64.1085 21.9022C63.7352 21.9022 63.4316 22.2057 63.4316 22.5791C63.4316 22.9524 63.7352 23.2557 64.1085 23.2557C64.482 23.2557 64.7859 22.9524 64.7859 22.5791C64.7859 22.2057 64.482 21.9022 64.1085 21.9022Z" fill="#576084"/>
<path d="M64.3884 23.9563L63.8327 23.9557C63.6815 23.9557 63.5438 24.0777 63.5438 24.2113L63.541 29.7395C63.541 29.8064 63.5756 29.8728 63.6355 29.9221C63.6903 29.9669 63.7604 29.9928 63.8308 29.9928L64.3905 29.9937H64.3909C64.5443 29.9923 64.679 29.8737 64.679 29.7398V24.2113C64.679 24.0754 64.5431 23.9563 64.3884 23.9563Z" fill="#576084"/>
<path d="M69.581 27.7049L69.1169 27.7066C68.9873 27.7066 68.8787 27.7842 68.8304 27.919C68.6609 28.6481 68.2769 29.0259 67.6947 29.0426C66.5606 29.009 66.4726 27.4333 66.4726 26.9511C66.4726 25.9896 66.8066 24.9521 67.7391 24.9246C68.302 24.9419 68.7114 25.3442 68.8343 25.9998C68.8574 26.1336 68.9605 26.2348 69.1013 26.2524L69.598 26.2573C69.7464 26.2412 69.8628 26.1293 69.8617 25.9904C69.686 24.8057 68.8624 24.0399 67.7618 24.0399L67.7237 24.0409L67.6807 24.0399C66.0799 24.0399 65.3633 25.5292 65.3633 27.0051C65.3633 28.3583 65.9675 29.9383 67.6717 29.9383H67.7533C68.8265 29.9383 69.6365 29.1884 69.8685 27.9725C69.8737 27.9146 69.8536 27.8566 69.8124 27.8095C69.7592 27.7485 69.6742 27.7094 69.581 27.7049Z" fill="#576084"/>
<path d="M74.1657 26.3559H71.5704C71.6297 25.6293 72.1026 24.8766 72.904 24.849C73.7561 24.8759 74.1464 25.6111 74.1657 26.3559ZM72.9023 24.0258C71.1497 24.0258 70.3516 25.5703 70.3516 27.0051C70.3516 28.7958 71.3439 29.9527 72.8796 29.9527C73.9782 29.9527 74.8156 29.3995 75.1782 28.4325C75.197 28.3768 75.1908 28.3164 75.1605 28.2628C75.1232 28.1969 75.0552 28.1488 74.9713 28.1303L74.4849 28.0375C74.3704 28.0191 74.2119 28.0779 74.1559 28.2063C73.9187 28.7433 73.4876 29.0482 72.9478 29.065C72.4273 29.0482 71.9501 28.7402 71.7321 28.2802C71.5538 27.9046 71.5273 27.5337 71.5245 27.1566L75.0465 27.156C75.1206 27.156 75.197 27.1235 75.2512 27.0688C75.2961 27.0231 75.3204 26.9669 75.3195 26.9112C75.3114 25.5163 74.6722 24.0258 72.9023 24.0258Z" fill="#576084"/>
<path d="M79.7321 26.849C79.4022 26.6129 79.0058 26.5341 78.6098 26.4553L77.8492 26.3147C77.304 26.2253 76.9883 26.0794 76.9883 25.5993C76.9883 24.9447 77.8032 24.89 77.9622 24.8858C78.509 24.8995 78.9198 25.1425 79.1189 25.57C79.1666 25.6707 79.272 25.7383 79.3813 25.7383C79.4002 25.7383 79.419 25.7362 79.4374 25.7323L79.9117 25.6277C79.9892 25.6107 80.0613 25.5575 80.1 25.4888C80.1308 25.4341 80.1376 25.3746 80.1191 25.3213C79.829 24.4779 79.0914 24.0322 77.9753 24.0322C76.9677 24.0344 75.891 24.4812 75.891 25.7291C75.891 26.5822 76.4284 27.1238 77.4896 27.3392L78.3414 27.5009C78.8088 27.5901 79.2867 27.7487 79.2867 28.249C79.2867 28.9896 78.4221 29.0651 78.1608 29.0705C77.6171 29.0589 76.9212 28.8351 76.7494 28.2457C76.718 28.1236 76.5649 28.0379 76.4281 28.0657L75.9325 28.1678C75.8574 28.1837 75.7889 28.2324 75.7491 28.298C75.7161 28.3526 75.7066 28.4132 75.7221 28.4685C75.9776 29.3847 76.8647 29.9372 78.0947 29.9465L78.122 29.9467C79.2206 29.9467 80.3944 29.4778 80.3944 28.1624C80.3944 27.6267 80.153 27.1478 79.7321 26.849Z" fill="#576084"/>
<path fill-rule="evenodd" clip-rule="evenodd" d="M57.1381 13.3127V12.0573C57.1388 11.8669 57.2838 11.7392 57.4578 11.7393L63.0995 11.7392C63.2796 11.7392 63.4249 11.87 63.4249 12.0559V13.1325C63.4231 13.3127 63.2704 13.5483 62.9998 13.9225L60.0777 18.0818C61.162 18.0561 62.3098 18.218 63.2951 18.7702C63.5177 18.8947 63.5769 19.0794 63.5951 19.2597V20.5992C63.5951 20.7839 63.3923 20.9974 63.1796 20.8862C61.443 19.9792 59.1385 19.8802 57.2179 20.8967C57.0219 21.001 56.8164 20.7908 56.8164 20.6061V19.3333C56.8164 19.1303 56.8206 18.7814 57.0262 18.4707L60.4123 13.6289L57.4646 13.6282C57.2841 13.6282 57.1399 13.5002 57.1381 13.3127Z" fill="#576084"/>
<path fill-rule="evenodd" clip-rule="evenodd" d="M36.5587 21.1503H34.8418C34.6787 21.1397 34.5481 21.017 34.5352 20.8606L34.5364 12.0787C34.5364 11.903 34.6848 11.7626 34.8674 11.7626L36.4659 11.7617C36.6334 11.771 36.7673 11.8969 36.7787 12.0566V13.2041H36.8105C37.2267 12.0947 38.0118 11.5781 39.0691 11.5781C40.1424 11.5781 40.8155 12.0947 41.2962 13.2041C41.713 12.0947 42.658 11.5781 43.6682 11.5781C44.3892 11.5781 45.1733 11.8733 45.654 12.5382C46.1987 13.2778 46.0864 14.349 46.0864 15.2919L46.0854 20.8339C46.0854 21.0092 45.9372 21.1503 45.7547 21.1503H44.0405C43.8678 21.1397 43.732 21.0024 43.732 20.8347V16.1788C43.732 15.8094 43.7637 14.885 43.6838 14.5342C43.5553 13.9423 43.1706 13.7769 42.6746 13.7769C42.2576 13.7769 41.8248 14.0541 41.6485 14.4967C41.4724 14.9409 41.4887 15.68 41.4887 16.1788V20.8339C41.4887 21.0092 41.3405 21.1503 41.1576 21.1503H39.4431C39.2713 21.1397 39.1352 21.0024 39.1352 20.8347L39.1329 16.1788C39.1329 15.1992 39.2936 13.7584 38.0762 13.7584C36.8425 13.7584 36.8906 15.1625 36.8906 16.1788L36.8896 20.8339C36.8903 21.0092 36.7418 21.1503 36.5587 21.1503Z" fill="#576084"/>
<path fill-rule="evenodd" clip-rule="evenodd" d="M68.2974 13.37C67.031 13.37 66.9513 15.0884 66.9513 16.1607C66.9513 17.2323 66.9354 19.5236 68.2818 19.5236C69.6119 19.5236 69.6757 17.6756 69.6757 16.5484C69.6757 15.8094 69.644 14.9226 69.4197 14.2203C69.2268 13.6102 68.8426 13.37 68.2974 13.37ZM68.2818 11.5781C70.8291 11.5781 72.2072 13.7584 72.2072 16.5294C72.2072 19.2095 70.6845 21.3348 68.2818 21.3348C65.7821 21.3348 64.4199 19.1539 64.4199 16.4374C64.4199 13.7025 65.7975 11.5781 68.2818 11.5781Z" fill="#576084"/>
<path fill-rule="evenodd" clip-rule="evenodd" d="M75.511 21.1503H73.8007C73.6284 21.1397 73.4927 21.0024 73.4927 20.8347L73.4902 12.0488C73.5044 11.8888 73.647 11.7626 73.8192 11.7626L75.4118 11.7617C75.562 11.77 75.6851 11.8717 75.7166 12.0078V13.3516H75.7491C76.2292 12.1502 76.9026 11.5781 78.0876 11.5781C78.8569 11.5781 79.6104 11.8545 80.0907 12.6124C80.5391 13.3143 80.5391 14.4967 80.5391 15.3469V20.8734C80.5199 21.0292 80.3806 21.1503 80.2111 21.1503H78.4896C78.3308 21.14 78.2032 21.0231 78.184 20.8734V16.1049C78.184 15.144 78.2964 13.7392 77.1103 13.7392C76.694 13.7392 76.3099 14.0171 76.1174 14.4416C75.8768 14.9773 75.845 15.5131 75.845 16.1049V20.8339C75.842 21.0092 75.6936 21.1503 75.511 21.1503Z" fill="#576084"/>
<path fill-rule="evenodd" clip-rule="evenodd" d="M54.3716 21.1281C54.2578 21.2294 54.0949 21.2361 53.9665 21.1679C53.3966 20.6956 53.2942 20.4766 52.9826 20.0274C52.0404 20.9841 51.3732 21.2711 50.1532 21.2711C48.7076 21.2711 47.584 20.382 47.584 18.6041C47.584 17.2155 48.3383 16.2709 49.4141 15.8076C50.3454 15.4001 51.6462 15.3259 52.6415 15.2144V14.9925C52.6415 14.5853 52.6735 14.1035 52.4324 13.7518C52.2243 13.437 51.8228 13.3077 51.4691 13.3077C50.8143 13.3077 50.2326 13.6423 50.0894 14.3354C50.0603 14.4893 49.9469 14.6422 49.7914 14.6496L48.1282 14.47C47.9874 14.4384 47.8315 14.3265 47.8722 14.1128C48.2544 12.1004 50.0769 11.4924 51.7104 11.4924C52.5448 11.4924 53.6372 11.7145 54.2955 12.3441C55.1301 13.1222 55.0497 14.1592 55.0497 15.289V17.9547C55.0497 18.7566 55.3841 19.1085 55.6984 19.5407C55.8072 19.6965 55.8317 19.8812 55.692 19.9955C55.3415 20.2884 54.7186 20.8272 54.3763 21.1319L54.3716 21.1281ZM52.6415 16.9558C52.6415 17.6226 52.6574 18.1787 52.3201 18.7709C52.0472 19.2528 51.6133 19.5489 51.1316 19.5489C50.4739 19.5489 50.0887 19.049 50.0887 18.3079C50.0887 16.8509 51.4002 16.5856 52.6415 16.5856V16.9558Z" fill="#576084"/>
<path fill-rule="evenodd" clip-rule="evenodd" d="M31.8709 21.1281C31.7574 21.2294 31.5933 21.2361 31.4649 21.1679C30.895 20.6956 30.7929 20.4766 30.481 20.0274C29.5393 20.9841 28.8718 21.2711 27.6511 21.2711C26.206 21.2711 25.082 20.382 25.082 18.6041C25.082 17.2155 25.8371 16.2709 26.9128 15.8076C27.8443 15.4001 29.1449 15.3259 30.1403 15.2144V14.9925C30.1403 14.5853 30.1726 14.1035 29.9315 13.7518C29.7229 13.437 29.321 13.3077 28.9683 13.3077C28.3136 13.3077 27.7312 13.6423 27.5885 14.3354C27.5587 14.4893 27.4458 14.6422 27.2904 14.6496L25.6266 14.47C25.4861 14.4384 25.3301 14.3265 25.3704 14.1128C25.7527 12.1004 27.5753 11.4924 29.2086 11.4924C30.0441 11.4924 31.1356 11.7145 31.7941 12.3441C32.6291 13.1222 32.5484 14.1592 32.5484 15.289V17.9547C32.5484 18.7566 32.883 19.1085 33.1964 19.5407C33.3057 19.6965 33.3305 19.8812 33.1911 19.9955C32.8403 20.2884 32.217 20.8272 31.8749 21.1319L31.8709 21.1281ZM30.1403 16.9558C30.1403 17.6226 30.156 18.1787 29.8194 18.7709C29.5466 19.2528 29.1124 19.5489 28.6314 19.5489C27.9723 19.5489 27.5873 19.049 27.5873 18.3079C27.5873 16.8509 28.8984 16.5856 30.1403 16.5856V16.9558Z" fill="#576084"/>
</svg>
