<svg width="105" height="31" viewBox="0 0 105 31" fill="none" xmlns="http://www.w3.org/2000/svg">
<path d="M18.46 28.402C23.4368 27.5229 27.5474 26.7953 27.5947 26.7853L27.6805 26.7671L22.9818 21.1782C20.3976 18.1043 18.2832 15.5774 18.2832 15.5629C18.2832 15.5353 23.135 2.17459 23.1622 2.12706C23.1713 2.11117 26.4731 7.81157 31.1659 15.9452C35.5594 23.5601 39.1816 29.8386 39.2153 29.8974L39.2765 30.0044L24.3438 30.0025L9.41113 30.0005L18.46 28.402V28.402ZM75.7251 27.0504C73.4521 26.9047 72.1301 25.6103 71.7797 23.1876C71.6866 22.5432 71.6862 22.5265 71.6767 18.3425L71.6674 14.2932H72.6734H73.6794L73.6873 18.21C73.6945 21.74 73.699 22.1539 73.7327 22.4022C73.8697 23.41 74.1424 24.0878 74.6066 24.5743C74.9781 24.9636 75.4131 25.1915 76.0152 25.3125C76.2992 25.3696 77.1073 25.3697 77.3663 25.3127C77.9767 25.1784 78.4659 24.9128 78.8975 24.4814C79.3894 23.9897 79.7533 23.292 79.9293 22.5031L79.9887 22.2372L79.9953 18.2873L80.0019 14.3374H81.029H82.056V20.5468V26.7561H81.0395H80.0231V25.771C80.0231 25.1016 80.0157 24.7882 80.0002 24.7934C79.9876 24.7976 79.9354 24.8775 79.8842 24.9709C79.5339 25.6097 78.9503 26.1939 78.3108 26.5459C77.5442 26.9678 76.7755 27.1178 75.7251 27.0504L75.7251 27.0504ZM98.7968 27.0404C97.9944 26.98 97.1495 26.7042 96.459 26.277C95.0035 25.3767 94.1423 23.8927 93.8902 21.8505C93.8029 21.1438 93.7924 20.1945 93.8653 19.594C94.028 18.2522 94.5552 16.9351 95.306 15.9947C95.4985 15.7536 95.9351 15.317 96.1762 15.1245C96.8271 14.6048 97.5886 14.2414 98.397 14.0645C98.868 13.9615 99.6975 13.9131 100.198 13.9595C101.455 14.076 102.607 14.6679 103.39 15.5995C104.186 16.546 104.623 17.8685 104.679 19.4971C104.688 19.7523 104.69 20.1998 104.684 20.4915L104.673 21.0218L100.27 21.0274L95.8668 21.033V21.2295C95.8668 21.8276 96.0122 22.5088 96.2636 23.0885C96.4804 23.5883 96.8536 24.1341 97.1591 24.3982C97.7856 24.9398 98.5523 25.264 99.3913 25.342C99.7024 25.3709 100.495 25.3404 100.85 25.286C101.861 25.1305 102.823 24.7338 103.599 24.1516C103.691 24.0831 103.778 24.0191 103.794 24.0094C103.816 23.9952 103.822 24.1741 103.821 24.9264L103.82 25.8611L103.612 25.9898C102.734 26.5331 101.728 26.882 100.662 27.0126C100.344 27.0516 99.1771 27.0689 98.7968 27.0404L98.7968 27.0404ZM102.629 19.157C102.629 18.155 102.206 17.0421 101.609 16.469C101.182 16.06 100.667 15.81 100.054 15.7151C99.7644 15.6702 99.1533 15.6875 98.8477 15.7492C98.2016 15.8798 97.6671 16.1639 97.201 16.6245C96.7104 17.1092 96.3426 17.698 96.1113 18.3689C96.0281 18.6101 95.9308 19.0061 95.9006 19.2264L95.8862 19.3314H99.2574H102.629V19.157ZM42.9042 26.7285C42.9094 26.7133 44.4045 22.7855 46.2267 18.0001L49.5398 9.29937L50.6043 9.2993L51.6689 9.29923L51.7572 9.52573C52.0271 10.2179 58.3898 26.7372 58.3898 26.7458C58.3898 26.7515 57.8802 26.756 57.2573 26.7559L56.1248 26.7557L55.2078 24.3141L54.2907 21.8726L50.5983 21.8726L46.9059 21.8725L46.8738 21.9554C46.8562 22.001 46.4644 23.0996 46.0031 24.3967L45.1646 26.7552L44.0297 26.7556C43.1314 26.756 42.8968 26.7503 42.9042 26.7284V26.7285ZM53.6168 20.0094C53.6168 20.0055 52.9996 18.3325 52.2454 16.2915C50.8343 12.4732 50.7553 12.2435 50.6438 11.6305C50.5916 11.343 50.5651 11.335 50.5341 11.5973C50.5119 11.7848 50.4157 12.2043 50.3416 12.437C50.3048 12.5525 49.6693 14.2966 48.9294 16.3128C48.1896 18.329 47.5842 19.9871 47.5842 19.9975C47.5842 20.0079 48.9415 20.0164 50.6005 20.0164C52.2595 20.0164 53.6168 20.0132 53.6168 20.0094V20.0094ZM59.0748 26.4381V26.1201L62.7536 21.0629L66.4324 16.0057L63.1016 15.9947L59.7709 15.9836L59.7651 15.1384L59.7593 14.2932H64.5768H69.3943V14.5787V14.8642L65.7151 19.9489C63.6915 22.7455 62.0359 25.0384 62.0359 25.0441C62.0359 25.0499 63.6716 25.0546 65.6709 25.0546H69.3059V25.9053V26.7561H64.1903H59.0748V26.4381ZM86.0704 26.7414C86.0622 26.7332 86.0556 23.9291 86.0556 20.5099V14.2932H87.0611H88.0665V15.5748C88.0665 16.2798 88.075 16.8565 88.0855 16.8565C88.096 16.8565 88.1449 16.7411 88.1943 16.6001C88.4203 15.9538 88.8123 15.35 89.3174 14.8701C89.7724 14.4378 90.2924 14.1792 90.906 14.0803C91.0783 14.0525 91.2242 14.0472 91.5689 14.0562C92.0018 14.0674 92.2282 14.0991 92.4915 14.1851L92.5743 14.2122V15.2559V16.2995L92.3368 16.1806C91.9172 15.9705 91.5031 15.8874 91.0054 15.9133C90.6815 15.9301 90.4689 15.9717 90.2099 16.0689C89.6771 16.2689 89.2449 16.6218 88.9429 17.1036C88.5057 17.8011 88.1939 18.6977 88.1019 19.5217C88.0854 19.6696 88.0757 20.8739 88.0718 23.2481L88.0661 26.7561H87.0756C86.5308 26.7561 86.0785 26.7495 86.0704 26.7414ZM0.539062 26.6977C0.539062 26.6898 2.75305 22.8465 5.45902 18.157L10.379 9.63067L16.1126 4.81898C19.2661 2.17256 21.8548 0.00406351 21.8651 0.000108706C21.8755 -0.00384532 21.834 0.100564 21.773 0.23213C21.7119 0.363697 18.9102 6.37298 15.547 13.5861L9.43215 26.7008L4.98561 26.7064C2.54001 26.7095 0.539062 26.7056 0.539062 26.6977V26.6977Z" fill="#576084"/>
</svg>
