<svg width="128" height="31" viewBox="0 0 128 31" fill="none" xmlns="http://www.w3.org/2000/svg">
<path d="M124.121 16.4191C125.956 15.669 127.457 13.752 127.457 11.6684C127.457 8.91799 125.205 6.66766 122.453 6.66766H114.947C114.446 6.66766 114.113 7.00105 114.113 7.50112V22.5033C114.113 23.0034 114.446 23.3368 114.947 23.3368H115.781C116.281 23.3368 116.615 23.0034 116.615 22.5033V16.6691H121.619L125.205 22.92C125.372 23.1701 125.622 23.3368 125.956 23.3368H126.539C127.04 23.3368 127.457 22.92 127.457 22.42C127.457 22.2533 127.457 22.0866 127.373 22.0032L124.121 16.4191ZM116.615 14.1688V9.16803H122.286C123.704 9.16803 124.955 10.2515 124.955 11.6684C124.955 13.1686 123.954 14.1688 122.453 14.1688H116.615ZM109.109 6.66766H96.5987C96.0983 6.66766 95.7647 7.00105 95.7647 7.50112V8.33457C95.7647 8.83465 96.0983 9.16803 96.5987 9.16803H101.603V22.5033C101.603 23.0034 101.936 23.3368 102.437 23.3368H103.271C103.771 23.3368 104.105 23.0034 104.105 22.5033V9.16803H109.109C109.609 9.16803 109.943 8.83465 109.943 8.33457V7.50112C109.943 7.00105 109.609 6.66766 109.109 6.66766ZM95.7647 20.8364H88.2587V7.50112C88.2587 7.00105 87.9251 6.66766 87.4247 6.66766C87.3413 6.66766 86.6741 6.66766 86.5907 6.66766C86.0903 6.66766 85.7567 7.08439 85.7567 7.58446V22.42C85.7567 22.92 86.1737 23.3368 86.5907 23.3368H95.7647C96.2651 23.3368 96.5987 22.92 96.5987 22.42C96.5987 22.3366 96.5987 21.7532 96.5987 21.6699C96.5987 21.1698 96.2651 20.8364 95.7647 20.8364ZM80.7526 6.66766H79.9186C79.4182 6.66766 79.0846 7.00105 79.0846 7.50112V16.6691C79.0846 19.0861 77.3332 20.8364 74.9146 20.8364C72.496 20.8364 70.7446 19.0861 70.7446 16.6691V7.50112C70.7446 7.00105 70.411 6.66766 69.9106 6.66766H69.0766C68.5762 6.66766 68.2426 7.00105 68.2426 7.50112V16.5858C68.2426 20.3363 71.245 23.3368 74.9146 23.3368C78.5842 23.3368 81.5866 20.3363 81.5866 16.5858V7.50112C81.5866 7.00105 81.1696 6.66766 80.7526 6.66766ZM64.8232 6.66766H64.2394C63.9058 6.66766 63.5722 6.9177 63.4054 7.25108L58.2345 20.0863L53.0637 7.25108C52.8969 6.9177 52.5633 6.66766 52.2297 6.66766H51.6459C51.1455 6.66766 50.7285 7.08439 50.7285 7.58446C50.7285 7.66781 50.7285 7.8345 50.8119 7.91785L56.8167 22.8367C56.9835 23.1701 57.3171 23.4201 57.6507 23.4201H58.8183C59.1519 23.4201 59.4855 23.1701 59.6524 22.8367L65.6572 7.91785C65.7406 7.75116 65.7406 7.66781 65.7406 7.58446C65.7406 7.08439 65.3236 6.66766 64.8232 6.66766Z" fill="#576084"/>
<path d="M12.758 0.808452C12.4511 0.322547 11.909 0 11.2919 0H2.41972C1.46229 0 0.6875 0.775113 0.6875 1.73109C0.6875 2.0703 0.785078 2.38702 0.954381 2.65455L5.32206 9.5789L17.1257 7.7328L12.758 0.808452Z" fill="#576084"/>
<path d="M14.5783 3.69303C14.2714 3.20713 13.7285 2.88458 13.1122 2.88458H4.24004C3.28344 2.88458 2.50781 3.6597 2.50781 4.61567C2.50781 4.95572 2.60539 5.2716 2.77469 5.53914L5.32257 9.57806L17.1254 7.73196L14.5783 3.69303Z" fill="#576084"/>
<path d="M5.32157 9.57887C5.15227 9.31133 5.05469 8.99545 5.05469 8.6554C5.05469 7.69943 5.83031 6.92432 6.78691 6.92432H15.6599C16.277 6.92432 16.8183 7.24686 17.1244 7.73277L25.0649 20.3188C25.2342 20.5855 25.331 20.9022 25.331 21.2414C25.331 21.5815 25.2342 21.8973 25.0649 22.164L20.628 29.1967C20.322 29.6818 19.7799 30.0044 19.1635 30.0044C18.5455 30.0044 18.0043 29.6818 17.6973 29.1967L5.32157 9.57887Z" fill="#576084"/>
<path d="M27.6959 13.3478C28.002 13.8329 28.5449 14.1554 29.1621 14.1554C29.7792 14.1554 30.3213 13.8329 30.6266 13.3478L35.0635 6.31509C35.2328 6.04755 35.3304 5.73084 35.3304 5.39162C35.3304 5.0524 35.2328 4.73569 35.0635 4.46899L32.7533 0.808452C32.4472 0.322547 31.9051 0 31.2871 0H22.4167C21.4601 0 20.6836 0.775113 20.6836 1.73109C20.6836 2.0703 20.7812 2.38702 20.9505 2.65456L27.6959 13.3478Z" fill="#576084"/>
</svg>
