<svg width="602" height="273" viewBox="0 0 602 273" fill="none" xmlns="http://www.w3.org/2000/svg">
<path d="M141.729 272.056C139.425 271.194 138.78 270.35 139.328 268.91C139.581 268.243 140.068 267.697 140.41 267.697C140.752 267.697 142.248 268.483 143.735 269.444C145.222 270.405 147.04 271.41 147.775 271.677L149.112 272.162L147.467 272.198C146.563 272.217 145.236 272.319 144.518 272.423C143.801 272.527 142.546 272.362 141.729 272.056V272.056ZM136.499 267.629C136.065 267.387 135.341 267.305 134.891 267.448C134.324 267.628 133.886 267.36 133.466 266.576C133.133 265.953 132.536 265.332 132.139 265.195C131.229 264.882 129.321 261.791 128.259 258.909C127.723 257.453 127.001 256.447 126.145 255.96C124.626 255.096 124.517 254.704 125.693 254.33C127.038 253.903 127.289 251.531 126.156 249.941C125.616 249.182 125.331 248.29 125.494 247.866C125.686 247.365 125.156 246.486 123.871 245.178C122.25 243.526 121.95 242.925 121.878 241.185C121.831 240.058 121.557 238.852 121.268 238.504C120.905 238.067 120.831 236.496 121.027 233.39C121.24 230.024 121.116 227.946 120.53 225.05C119.66 220.75 119.216 212.738 119.442 205.429C119.49 203.869 119.288 201.728 118.993 200.67C118.274 198.096 114.966 194.845 110.877 192.697C107.952 191.16 107.541 190.766 106.398 188.406C105.706 186.976 104.383 184.84 103.458 183.658C102.533 182.476 101.527 180.741 101.223 179.802C100.258 176.821 98.5565 173.825 97.3965 173.065C96.7793 172.661 96.0752 171.609 95.832 170.728C95.4384 169.302 95.5422 168.904 96.7742 167.114C98.11 165.172 98.1258 165.093 97.223 164.857C95.0048 164.277 95.9377 161.312 99.9194 156.287C102.566 152.948 103.341 150.404 102.608 147.465C102.329 146.345 102.078 145.173 102.052 144.862C102.026 144.55 101.827 144.294 101.61 144.294C101.393 144.294 101.435 143.885 101.703 143.385C102.115 142.614 102.011 142.394 101.02 141.943C99.5753 141.285 97.3942 141.935 97.3858 143.027C97.3757 144.336 96.8 144.432 94.902 143.443C93.8854 142.913 92.8295 142.48 92.5555 142.48C92.2815 142.48 91.216 141.755 90.1876 140.869C89.1593 139.983 88.0627 139.056 87.7508 138.81C87.4389 138.563 87.1837 137.89 87.1837 137.315C87.1837 136.739 86.783 135.906 86.2934 135.463C85.8037 135.02 85.1692 133.949 84.8834 133.082C84.5077 131.944 84.2263 131.645 83.8682 132.003C83.1207 132.751 82.0141 132.609 79.3281 131.421C77.924 130.8 76.4611 129.739 75.8768 128.919C75.319 128.135 74.2533 127.179 73.5086 126.794C72.2796 126.159 71.9723 126.164 70.182 126.847L68.2096 127.6L62.1579 124.668C58.4354 122.864 55.5463 121.143 54.6515 120.197C53.264 118.73 53.2192 118.571 53.6808 116.752C54.1037 115.086 54.0319 114.57 53.1121 112.67C52.533 111.474 51.2679 109.636 50.3006 108.587C49.3334 107.537 48.6518 106.501 48.7861 106.284C48.9204 106.066 48.239 104.602 47.272 103.03C46.1734 101.243 45.3981 99.3296 45.2055 97.9292C44.9586 96.134 44.6709 95.5848 43.7602 95.1698C42.7947 94.7299 42.5248 94.786 41.972 95.5412C41.1935 96.6047 41.4148 97.7275 43.1362 101.448C43.8358 102.959 44.5587 105.2 44.7427 106.427C44.9268 107.655 45.4704 109.429 45.9507 110.371C47.0885 112.601 46.3538 112.562 44.5596 110.296C43.5014 108.96 43.2156 108.227 43.4259 107.389C43.6504 106.495 43.4293 106.064 42.3295 105.251C40.6614 104.017 40.3083 103.222 40.9211 102.077C41.2784 101.409 41.1145 100.677 40.2071 98.8861C39.2855 97.0676 39.0928 96.1866 39.3209 94.8361C39.6939 92.6285 38.7035 90.6304 36.8571 89.8656C35.791 89.424 35.4235 88.93 35.2063 87.6467C35.0526 86.7387 34.7583 85.3339 34.5522 84.5249C34.3379 83.6834 34.3535 82.9453 34.5887 82.7999C34.8148 82.6602 34.6668 82.0377 34.2599 81.4167C33.6606 80.5021 33.6196 80.0692 34.0439 79.138C34.332 78.5057 34.4407 77.7829 34.2855 77.5318C34.1303 77.2807 34.5171 76.5304 35.1449 75.8644C35.7728 75.1985 36.6087 73.8704 37.0025 72.9131C37.3963 71.9558 38.6098 70.1811 39.6992 68.9694C40.7886 67.7578 42.1697 65.6352 42.7683 64.2527C43.5992 62.3338 44.0863 61.7373 44.8271 61.7314C45.3608 61.7273 45.7691 61.9788 45.7345 62.2907C45.59 63.5905 46.6178 63.1901 47.7722 61.4968C48.4526 60.4987 48.8198 59.614 48.588 59.5308C48.3563 59.4476 48.1667 59.0722 48.1667 58.6964C48.1667 58.3207 47.2275 57.1004 46.0796 55.9847C44.1756 54.1343 44.0534 53.889 44.6865 53.1894C45.1994 52.6226 45.2597 52.2067 44.9176 51.5955C44.3165 50.5213 45.2651 48.1158 46.2936 48.1061C46.7184 48.1021 46.8397 47.9575 46.5788 47.7659C45.9937 47.3359 45.7286 46.3596 45.8108 44.9373C45.9421 42.6656 45.4449 41.7153 43.756 41.0096C42.845 40.629 41.4549 39.8258 40.6669 39.2248C39.8789 38.6237 38.8792 38.132 38.4453 38.132C38.0113 38.132 36.0389 37.719 34.0621 37.2143C30.8839 36.4028 30.3237 36.3708 29.2228 36.9374C26.9412 38.1117 24.524 38.5903 23.5385 38.0629C22.7994 37.6673 21.9927 37.9116 19.1798 39.3829C17.2814 40.3759 15.0137 41.3425 14.1403 41.5308C13.267 41.7192 11.5956 42.3554 10.4261 42.9447C7.109 44.6161 2.3572 46.301 1.04283 46.2718C0.19455 46.2529 0.768056 45.8809 3.02501 44.9859C6.86071 43.4648 10.8021 41.484 11.1666 40.8941C11.6157 40.1676 10.641 39.9069 9.47015 40.4403C8.60813 40.8331 8.07688 40.7964 7.08215 40.2752L5.80281 39.6048L7.19446 38.8852C8.76764 38.0717 9.26252 37.1513 8.90106 35.7112C8.551 34.3164 10.4811 33.2916 14.6391 32.6645C16.8732 32.3276 18.5716 31.7667 19.7151 30.9883C21.7315 29.6157 21.3851 28.5782 19.211 29.4787C18.1818 29.905 17.4322 29.9097 15.908 29.4993C14.0558 29.0005 13.9898 28.9293 14.8183 28.3235C16.2046 27.3098 19.0717 26.7001 20.9555 27.0184C22.1476 27.2198 23.124 27.0788 24.1261 26.5606L25.5742 25.8117L24.6209 24.7971C24.0967 24.239 23.6677 23.6624 23.6677 23.5158C23.6677 23.0948 26.3989 22.253 27.7646 22.253C28.4462 22.253 30.3148 21.7595 31.9171 21.1565C33.5194 20.5534 37.216 19.73 40.1318 19.3268C44.8611 18.6728 45.8625 18.6648 49.4087 19.2528C51.5952 19.6153 54.6091 20.0477 56.1062 20.2137C57.6034 20.3796 60.2533 20.9064 61.995 21.3842C66.0401 22.494 68.6748 22.4804 73.1938 21.3266C75.1893 20.8171 77.2061 20.5222 77.6757 20.6712C78.1452 20.8203 78.9436 20.7205 79.4498 20.4496C80.1473 20.0763 80.6882 20.1215 81.6834 20.6361C82.5826 21.1011 83.6924 21.2338 85.2036 21.057C86.7978 20.8705 88.1938 21.0636 90.2318 21.7527C91.7834 22.2774 93.5068 22.7067 94.0614 22.7067C95.0438 22.7067 95.0471 22.7233 94.1891 23.3548C93.3477 23.974 93.3453 24.0172 94.1354 24.3234C94.5901 24.4996 96.1689 24.5177 97.6438 24.3635C100.307 24.0851 100.33 24.093 101.073 25.5292L101.821 26.9752L102.791 25.7579C103.349 25.0584 104.675 24.266 105.908 23.8949C107.771 23.3341 108.337 23.336 110.208 23.9091C111.529 24.3137 113.111 24.4611 114.295 24.2901C115.803 24.0723 116.503 24.2079 117.487 24.9085C118.729 25.793 118.764 25.7935 119.865 24.9396C120.48 24.4631 121.745 23.8609 122.677 23.6014C124.907 22.9801 125.663 21.6562 124.324 20.7182C123.377 20.0548 123.418 20.0042 125.908 18.7833C127.764 17.8728 128.6 17.666 128.962 18.0278C129.324 18.3897 129.32 18.7878 128.949 19.4822C128.315 20.6657 129.104 22.4547 130.092 22.0756C130.447 21.9393 131.036 21.9424 131.401 22.0824C131.974 22.3023 131.965 22.4888 131.334 23.4525C129.589 26.1147 133.5 25.3604 136.147 22.524C137.224 21.3708 138.892 21.0212 140.455 21.621C141.464 22.0084 141.37 22.3255 139.698 24.1586C137.706 26.3431 136.686 26.7898 133.694 26.7898C132.248 26.7898 130.54 27.1031 129.745 27.5145C128.644 28.084 128.107 28.1314 127.238 27.7356C125.619 26.9978 125.055 27.6119 126.217 28.8483L127.208 29.9037L125.23 30.4652C124.142 30.7739 122.333 31.0564 121.21 31.0929C119.582 31.1458 119.168 31.3226 119.165 31.9663C119.163 32.5171 118.371 33.0968 116.67 33.7921C111.159 36.0449 106.484 40.1069 108.176 41.1718C108.493 41.3714 108.997 42.0904 109.295 42.7697C109.638 43.552 110.3 44.0976 111.1 44.2577C111.795 44.3968 113.588 45.1138 115.085 45.8511C116.583 46.5883 118.42 47.3251 119.169 47.4882C121.229 47.9374 121.247 47.9846 120.288 50.4198C119.466 52.5031 119.45 52.8004 120.086 54.031C120.468 54.7686 121.03 55.3648 121.335 55.356C122.822 55.3129 124.216 53.941 125.082 51.6684C125.907 49.5023 126.283 49.0983 128.653 47.8328C132.15 45.9651 133.604 44.1255 133.216 42.06C132.964 40.7145 133.095 40.3988 134.247 39.5788C134.972 39.062 135.933 37.8252 136.382 36.8303C137.385 34.6064 138.996 33.8355 141.713 34.2798C144.123 34.6737 146.973 36.2037 147.317 37.2882C147.459 37.7335 147.341 38.533 147.056 39.065C146.625 39.8708 146.707 40.2111 147.544 41.1027L148.55 42.1731L150.192 41.3219C151.095 40.8538 152.542 39.9405 153.409 39.2925L154.983 38.1143L155.353 39.1143C155.557 39.6643 155.614 40.3976 155.481 40.7439C155.348 41.0902 155.452 41.7697 155.711 42.254C156.003 42.7988 156.025 43.4151 155.77 43.8703C155.483 44.3836 155.675 45.1633 156.405 46.4488C157.451 48.2904 157.452 48.2919 156.533 48.9353C155.324 49.782 156.1 50.6799 157.426 49.9698C158.744 49.2647 160.252 49.3564 161.183 50.1982C162.558 51.4426 161.414 52.9313 157.764 54.6485C153.794 56.5162 152.025 56.8862 146.843 56.932C143.017 56.9659 142.51 57.0879 138.79 58.8712C136.607 59.9178 134.821 60.9538 134.821 61.1733C134.821 62.1094 135.509 62.028 138.148 60.7793C139.703 60.0435 141.708 59.4558 142.663 59.4556C144.294 59.4552 144.353 59.5057 143.844 60.4572C143.549 61.0083 142.913 61.779 142.43 62.1698C141.671 62.7843 141.627 63.0436 142.102 64.0861C142.814 65.6495 144.674 66.4018 146.899 66.0264L148.658 65.7296L147.306 66.6625C146.562 67.1756 145.337 67.7285 144.584 67.8912C143.83 68.0539 142.282 68.6566 141.143 69.2305C139.986 69.8131 138.825 70.1214 138.513 69.9285C137.795 69.4848 138.552 68.819 140.885 67.8444C142.96 66.9775 142.628 66.0566 140.392 66.4761C139.521 66.6395 136.697 67.7032 134.117 68.8399C130.089 70.6142 129.386 71.0827 129.151 72.1504C128.863 73.4628 127.88 74.0835 124.422 75.1354C123.319 75.471 121.89 76.282 121.246 76.9375C120.603 77.5931 119.37 78.5747 118.507 79.1188C117.644 79.6629 116.818 80.6162 116.672 81.2372C116.43 82.2606 116.373 82.2849 116.07 81.4965C115.503 80.0192 114.647 81.4635 114.598 83.9824C114.548 86.5633 113.239 88.3237 110.37 89.6718C107.429 91.054 103.243 94.32 102.395 95.8948C101.646 97.2852 101.615 97.8268 102.076 101.401C102.506 104.734 102.48 105.571 101.914 106.666C101.491 107.484 100.998 107.875 100.587 107.718C99.6137 107.344 98.423 103.338 98.7567 101.559C98.9885 100.324 98.8349 99.8556 97.9142 98.9906C97.1721 98.2934 96.4871 98.0284 95.9049 98.2132C95.4188 98.3675 94.0447 98.0749 92.8497 97.5626C91.0188 96.7778 90.4345 96.712 89.1273 97.1434C88.2411 97.4359 87.3606 98.1296 87.0723 98.7624C86.6433 99.7039 86.3592 99.8248 85.1744 99.57C84.4081 99.4051 83.2298 98.9886 82.5559 98.6444C80.8964 97.7965 79.967 97.8556 78.1029 98.9275C77.2334 99.4274 75.4592 100.384 74.1602 101.054C72.6673 101.823 71.6417 102.699 71.3728 103.434C71.1389 104.074 70.3023 106.567 69.5139 108.975L68.0803 113.352L68.8125 116.178C70.1578 121.37 72.0296 122.924 75.9295 122.087C78.8695 121.457 80.635 120.179 81.2841 118.213C81.6963 116.964 82.1409 116.551 83.4717 116.181C85.4748 115.625 86.3113 115.604 87.0806 116.093C87.7155 116.496 87.4923 117.158 84.6498 123.313C82.6994 127.535 82.8398 127.913 86.1813 127.431C89.2257 126.992 92.0085 127.329 92.3335 128.176C92.4603 128.506 92.2541 130.735 91.8755 133.128C91.1981 137.41 91.203 137.505 92.1781 139.083C92.7232 139.965 93.7452 140.985 94.4492 141.349C95.5731 141.93 95.9257 141.929 97.3398 141.338C99.5869 140.399 100.807 140.498 102.368 141.747C103.616 142.745 103.792 142.774 104.773 142.131C105.355 141.75 106.149 140.804 106.537 140.03C107.413 138.285 108.889 137.059 110.129 137.046C110.647 137.04 111.55 136.525 112.136 135.901C113.327 134.634 115.422 134.222 114.398 135.456C113.538 136.492 113.047 139.823 113.601 140.858C114.062 141.72 114.099 141.715 114.939 140.679C115.536 139.94 115.657 139.467 115.33 139.141C114.551 138.361 114.786 137.714 116.236 136.642C117.741 135.529 118.906 135.643 120.205 137.031C121.157 138.049 126.243 139.424 127.7 139.059C129.92 138.502 135.917 142.148 138.171 145.425C139.244 146.985 142.671 148.555 144.179 148.177C147.279 147.399 151.53 150.505 152.524 154.275C152.82 155.398 153.266 156.444 153.516 156.6C154.177 157.012 153.186 158.641 151.019 160.703C149.634 162.021 149.303 162.588 149.693 162.977C150.082 163.367 150.723 163.025 152.26 161.608C154.497 159.547 155.243 159.337 156.363 160.458C157.045 161.139 157.024 161.278 156.09 162.272C155.534 162.865 154.757 163.362 154.363 163.378C153.949 163.395 154.117 163.594 154.762 163.851C155.648 164.205 156.111 164.105 157.03 163.362C159.426 161.427 159.989 161.334 162.117 162.523C163.5 163.296 164.054 163.884 163.984 164.506C163.79 166.236 164.198 166.619 165.398 165.833C166.351 165.209 167.005 165.179 170.195 165.616C173.587 166.08 174.032 166.266 175.66 167.893C176.868 169.102 178.227 169.896 179.935 170.393C182.228 171.059 182.477 171.263 182.893 172.807C183.495 175.046 182.789 177.53 180.879 179.89C180.063 180.899 179.062 182.379 178.656 183.179C178.249 183.98 177.385 185.167 176.735 185.817C175.634 186.918 175.573 187.193 175.848 189.806C176.383 194.91 173.887 204.433 171.479 206.469C170.694 207.132 170.024 207.288 168.78 207.095C167.758 206.937 167.002 207.039 166.802 207.362C166.624 207.65 165.634 208.257 164.601 208.711C163.568 209.166 162.03 210.129 161.183 210.852C159.717 212.104 159.668 212.242 160.162 213.737C160.73 215.459 160.347 217.499 159.129 219.239C158.735 219.802 158.412 220.759 158.412 221.366C158.412 221.973 157.939 223.101 157.36 223.873C156.782 224.646 155.666 226.413 154.88 227.801C152.948 231.216 151.786 231.808 148.984 230.804C146.552 229.932 145.255 229.828 145.255 230.504C145.255 230.759 145.74 231.189 146.333 231.459C146.925 231.729 147.848 232.827 148.384 233.901C149.182 235.499 149.267 236.054 148.851 236.967C148.207 238.381 145.742 239.568 143.452 239.568C141.424 239.568 140.92 240.065 141.621 241.374C142.053 242.182 141.763 243.482 140.926 244.479C140.858 244.56 140.148 244.287 139.348 243.873C137.437 242.885 136.76 243.515 137.726 245.382C138.119 246.142 138.866 246.898 139.386 247.063C140.279 247.347 140.289 247.41 139.562 248.213C139.139 248.68 138.92 249.39 139.074 249.792C139.24 250.224 138.87 251.157 138.169 252.076C137.028 253.571 137.012 253.675 137.743 254.79C138.161 255.428 138.813 256.069 139.192 256.214C140.558 256.738 140.785 258.53 139.743 260.572C138.699 262.618 138.539 264.669 139.347 265.642C140.081 266.527 137.61 268.251 136.499 267.629H136.499ZM103.063 71.1338C104.275 68.6007 106.531 66.7142 108.347 66.7142C109.655 66.7142 109.67 66.9264 108.473 68.4483L107.532 69.6451L108.497 70.4272C109.276 71.0573 109.677 71.1118 110.564 70.7076C111.17 70.4317 111.791 69.8113 111.944 69.329C112.152 68.6727 112.491 68.5195 113.289 68.7199C114.029 68.9055 114.492 68.7467 114.796 68.203C115.718 66.5557 113.372 64.4491 111.645 65.3733C110.409 66.0346 108.795 64.7189 109.139 63.3314C109.267 62.8171 109.004 61.922 108.549 61.3215C107.612 60.0838 106.185 59.9535 103.063 60.8203C101.94 61.132 100.659 61.3731 100.217 61.356C99.7753 61.3389 99.5321 61.5167 99.677 61.7511C99.8219 61.9855 99.7753 62.1819 99.5734 62.1874C99.3715 62.1929 98.6983 62.5878 98.0774 63.0649L96.9485 63.9323L98.2163 64.4143C99.2074 64.7911 99.7917 64.7374 100.893 64.1681C102.186 63.499 102.426 63.4994 103.838 64.1728C104.689 64.5783 105.85 64.7866 106.438 64.639C107.022 64.4923 107.626 64.5749 107.779 64.8225C107.935 65.0756 107.296 65.4013 106.319 65.5663C103.664 66.0149 102.285 67.1206 100.359 70.3437C98.7502 73.0358 98.6579 73.3605 99.2991 74.0722C99.9282 74.7704 100.102 74.7815 100.965 74.1779C101.495 73.8073 102.439 72.4374 103.063 71.1339V71.1338ZM111.305 73.9342C112.92 73.1103 113.076 72.9033 112.507 72.3342C111.937 71.765 111.578 71.8021 109.726 72.6212C107.552 73.5829 106.862 74.8805 108.525 74.8805C109.034 74.8805 110.285 74.4547 111.305 73.9342ZM119.35 70.5061C120.295 69.8441 120.33 69.7143 119.663 69.3413C118.682 68.7923 115.766 69.7383 115.766 70.6057C115.766 71.4994 118.021 71.4367 119.35 70.5061ZM153.422 266.427C153.422 266.227 153.667 265.819 153.966 265.519C154.266 265.22 154.339 264.975 154.13 264.975C153.92 264.975 153.504 265.31 153.205 265.719C152.775 266.306 152.478 266.357 151.794 265.959C151.304 265.675 151.185 265.45 151.52 265.442C151.847 265.435 151.988 265.224 151.834 264.975C151.538 264.496 152.316 264.365 154.556 264.518C156.555 264.655 156.756 264.946 155.52 265.918C154.369 266.824 153.422 267.053 153.422 266.427ZM532.309 255.04C531.011 254.218 533.714 252.402 540.416 249.594C542.287 248.81 545.139 247.171 546.753 245.95C549.497 243.876 549.725 243.786 550.269 244.562C551.094 245.741 550.608 246.594 548.591 247.504C547.628 247.938 546.416 248.78 545.899 249.375C545.382 249.97 544.549 250.457 544.049 250.457C543.549 250.457 542.374 251.144 541.438 251.985C538.232 254.861 534.172 256.22 532.309 255.04ZM500.558 249.147C500.086 248.848 500.06 248.54 500.444 247.822C500.72 247.308 500.945 246.247 500.945 245.466C500.945 244.188 501.048 244.08 501.966 244.403C502.527 244.601 503.701 244.789 504.574 244.822C505.448 244.854 506.32 244.911 506.513 244.947C507.265 245.088 505.255 247.376 503.449 248.434C501.299 249.694 501.388 249.672 500.558 249.147ZM552.983 245.179C552.825 245.021 553.199 244.497 553.813 244.013C554.739 243.285 554.847 242.977 554.443 242.221C553.857 241.126 554.727 239.952 556.742 239.117C558.302 238.471 558.696 237.159 558.277 233.993C557.989 231.814 558.024 231.678 558.726 232.259C559.277 232.715 559.413 233.289 559.216 234.336C559.001 235.484 559.194 236.081 560.152 237.219C561.186 238.448 561.494 238.581 562.298 238.151C563.1 237.722 563.194 237.761 562.942 238.419C562.779 238.842 562.646 239.269 562.646 239.367C562.646 239.465 561.983 239.885 561.172 240.3C560.361 240.715 558.779 241.814 557.656 242.741C555.83 244.248 553.951 245.466 553.451 245.466C553.351 245.466 553.141 245.337 552.983 245.179ZM505.008 239.32C504.052 238.303 503.876 238.264 502.958 238.865C501.788 239.631 499.59 239.184 497.829 237.82C496.889 237.092 496.824 236.858 497.308 235.952C497.722 235.18 497.736 234.638 497.362 233.819C497.087 233.215 496.862 232.322 496.862 231.834C496.862 230.735 496.148 230.683 495.557 231.739C495.314 232.173 494.985 232.399 494.826 232.24C494.667 232.081 495.193 231.205 495.994 230.292C497.965 228.047 497.196 227.437 494.592 229.181C493.47 229.933 492.479 230.754 492.39 231.006C492.301 231.258 491.762 230.48 491.192 229.278C490.574 227.974 489.506 226.664 488.546 226.032C487.104 225.082 486.616 225.004 483.846 225.28C479.785 225.684 475.867 226.685 473.303 227.975C472.137 228.561 469.862 229.161 468.108 229.345C466.391 229.525 463.661 230.171 462.041 230.781C459.563 231.713 458.858 231.811 457.603 231.397C455.919 230.841 455.219 229.696 456.309 229.278C456.703 229.126 457.419 228.085 457.9 226.964C458.669 225.17 458.711 224.611 458.255 222.292C457.878 220.374 457.867 218.557 458.217 215.604C458.48 213.374 458.581 211.11 458.441 210.574C458.301 210.037 458.52 208.723 458.928 207.654C459.648 205.769 459.822 205.646 464.689 203.585C467.45 202.415 470.276 201.459 470.969 201.459C472.844 201.459 475.166 199.675 476.446 197.25C477.237 195.752 477.786 195.182 478.261 195.365C479.586 195.877 479.848 195.777 479.745 194.794C479.68 194.162 479.951 193.703 480.491 193.531C480.958 193.383 481.822 192.557 482.409 191.695C483.011 190.814 484.249 189.82 485.241 189.421C486.898 188.756 487.062 188.766 487.963 189.585C489.626 191.096 490.804 191.537 491.366 190.859C491.64 190.53 491.734 190.13 491.575 189.972C491.056 189.452 493.432 186.471 494.593 186.184C495.217 186.031 496.498 185.519 497.44 185.047C498.908 184.312 499.424 184.263 501.069 184.704C504.616 185.657 504.734 185.812 503.414 187.806C501.718 190.37 502.168 191.372 506.329 194.302C508.251 195.654 510.064 196.68 510.36 196.581C510.656 196.483 511.59 195.447 512.437 194.28C513.59 192.69 514.038 191.533 514.223 189.663C514.485 187.006 515.756 183.311 516.407 183.311C516.622 183.311 517.116 184.404 517.505 185.739C517.893 187.075 518.706 188.633 519.312 189.203C520.729 190.533 521.552 194.254 520.916 196.453C520.494 197.909 520.576 198.143 522.02 199.629C522.877 200.51 524.234 202.661 525.034 204.408C525.834 206.154 527.276 208.626 528.239 209.9L529.99 212.216L529.492 215.795C529.131 218.391 528.572 220.121 527.456 222.098C525.746 225.127 523.189 228.017 521.842 228.444C521.357 228.598 520.234 229.735 519.347 230.97C518.459 232.206 517.533 233.217 517.289 233.217C517.045 233.217 516.007 234.277 514.983 235.573C513.274 237.734 512.96 237.932 511.18 237.965C509.814 237.991 508.768 238.362 507.646 239.217L506.053 240.432L505.008 239.32H505.008ZM283.782 229.781C282.821 228.82 282.66 228.329 282.875 227.005C283.077 225.76 282.885 225.028 282.022 223.758C281.409 222.856 280.907 221.896 280.907 221.624C280.907 221.353 280.105 220.056 279.125 218.742C277.609 216.71 277.298 215.899 277.048 213.329C276.607 208.794 275.159 203.886 273.213 200.329C272.256 198.58 271.337 196.309 271.17 195.282C270.816 193.098 271.703 189.847 273.728 185.909L275.075 183.289L274.318 181.01C273.895 179.735 273.688 178.226 273.848 177.586C274.037 176.836 273.834 175.943 273.263 174.999C272.782 174.206 272.069 172.434 271.678 171.062C271.155 169.229 270.426 168.037 268.932 166.57C266.056 163.749 265.682 162.639 266.575 159.569C268.391 153.32 266.429 149.675 261.634 150.394C259.768 150.674 259.696 150.639 259.433 149.32C259.23 148.309 258.682 147.713 257.305 147.011C255.515 146.098 254.749 146.094 252.552 146.989C252.053 147.193 250.011 147.897 248.015 148.555C245.014 149.544 244.112 149.671 242.806 149.292C241.568 148.933 240.525 149.026 237.993 149.721C235.375 150.439 234.427 150.516 233.012 150.126C230.061 149.311 224.992 144.742 224.271 142.247C223.713 140.316 220.242 135.816 219.061 135.492C218.31 135.286 218.218 135.127 218.677 134.83C219.14 134.532 219.059 134.381 218.337 134.192C217.191 133.892 217.077 132.955 218.185 132.945C218.864 132.939 218.88 132.874 218.299 132.499C217.87 132.222 217.823 132.056 218.17 132.052C218.53 132.047 218.393 131.488 217.775 130.44C216.905 128.965 216.887 128.77 217.551 128.036C219.581 125.793 220.026 120.964 218.483 117.921C217.746 116.469 218.22 114.462 219.792 112.376C220.384 111.591 221.539 109.68 222.36 108.13C223.795 105.418 226.994 101.648 227.86 101.648C228.818 101.648 231.909 98.3245 231.909 97.2943C231.909 94.9687 233.3 92.65 235.567 91.1953C236.785 90.4136 238.212 89.0771 238.739 88.2252C239.816 86.4828 239.968 86.4259 241.222 87.3C241.715 87.643 242.938 88.0613 243.94 88.2295C245.469 88.486 246.2 88.3014 248.477 87.0838C252.394 84.9888 254.815 84.4656 259.298 84.7452C262.254 84.9296 263.585 84.8117 265.018 84.2383C267.128 83.394 268.952 83.8937 268.458 85.1808C268.31 85.5675 268.401 86.1395 268.66 86.4518C268.986 86.8449 268.983 87.408 268.652 88.2809C268.235 89.3775 268.327 89.7039 269.36 90.7822C270.014 91.4642 271.184 92.1494 271.96 92.3047C275.606 93.0339 276.643 93.5061 277.396 94.7808C277.948 95.7145 278.671 96.1938 279.866 96.4181C280.796 96.5925 282.146 97.04 282.866 97.4124C284.089 98.045 284.248 98.022 285.268 97.0637C285.954 96.4194 286.265 95.7373 286.104 95.2305C285.963 94.7865 286.07 94.0072 286.342 93.4988C287.044 92.1872 289.037 92.3159 292.149 93.8738C295.539 95.571 301.968 96.782 304.248 96.1527C305.344 95.85 306.398 95.846 307.357 96.1409C310.492 97.1044 312.098 96.3503 312.526 93.7131C312.668 92.8372 312.911 92.1206 313.065 92.1206C313.358 92.1206 313.512 90.8036 313.554 87.924C313.568 86.9883 313.789 86.2227 314.046 86.2227C314.351 86.2227 314.336 85.894 314.002 85.2697C313.444 84.2272 312.313 84.251 309.605 85.3622C308.321 85.8893 307.963 85.8668 306.813 85.1873C305.321 84.3061 303.79 84.1739 303.348 84.8882C303.02 85.4193 300.7 85.047 299.442 84.2613C298.538 83.6968 297.694 82.0165 297.694 80.7828C297.694 80.3097 297.234 79.599 296.673 79.2035C295.804 78.5914 295.753 78.4182 296.333 78.039C296.707 77.794 297.477 77.7027 298.044 77.836C298.766 78.0061 299.431 77.7214 300.27 76.8823C301.06 76.0926 302.02 75.6568 303.096 75.5997C303.992 75.5521 305.291 75.1408 305.982 74.6858C307.481 73.6978 310.884 73.9724 313.525 75.2942C317.086 77.0767 320.249 76.9718 321.522 75.0291C322.184 74.0184 322.188 73.8061 321.559 72.847C321.176 72.2626 319.337 70.9162 317.472 69.855L314.081 67.9255L314.716 66.6968C315.065 66.0211 315.237 65.3538 315.097 65.214C314.957 65.0742 315.011 64.691 315.216 64.3625C315.421 64.034 315.629 63.5016 315.678 63.1794C315.782 62.4922 315.05 62.6819 311.442 64.2775C309.348 65.2038 309.036 65.4876 309.501 66.0474C309.805 66.4142 310.489 66.7232 311.02 66.7342C311.764 66.7497 311.588 66.9637 310.248 67.6706C308.622 68.5289 308.44 68.54 307.382 67.847C306.478 67.2545 306.36 66.9788 306.788 66.4624C307.214 65.9497 307.15 65.7525 306.478 65.5C306.014 65.3254 305.414 64.8907 305.147 64.534C303.847 62.8019 299.724 67.3584 298.525 71.8519C297.962 73.961 297.981 74.0707 299.041 74.8699L300.14 75.6993L298.123 76.1153C297.014 76.3441 295.518 76.3708 294.8 76.1746C293.475 75.8126 291.796 76.3582 291.796 77.1507C291.796 77.3836 291.487 77.4557 291.11 77.3108C290.732 77.166 290.133 77.2885 289.778 77.5831C289.227 78.04 289.29 78.4143 290.202 80.1302C291.19 81.989 291.221 82.2433 290.604 83.479C289.832 85.0274 289.114 84.9122 288.022 83.065C287.262 81.7773 287.267 81.7477 288.273 81.6048C289.544 81.4245 289.625 80.6159 288.393 80.4189C285.582 79.9695 284.083 78.4883 284.083 76.1604C284.083 74.3438 282.399 72.3412 280.357 71.7294C279.296 71.4115 278.142 70.7439 277.794 70.2459C277.445 69.7479 276.424 69.0331 275.525 68.6575C274.626 68.2818 273.62 67.5881 273.289 67.1159C272.814 66.4381 272.502 66.3566 271.807 66.7286C271.323 66.9877 270.926 67.4918 270.926 67.8487C270.926 69.0266 276.709 74.3556 279.536 75.7825C282.533 77.2953 283.001 77.8356 280.918 77.3782C279.062 76.9705 278.556 77.3786 279.191 78.7723C279.637 79.7512 279.564 80.049 278.667 80.9111L277.625 81.9127L277.862 80.5612C278.238 78.4159 275.41 75.3342 273.064 75.3342C272.204 75.3342 268.901 72.1297 268.036 70.4562C267.111 68.668 266.082 68.3226 264.624 69.311C262.428 70.7998 260.782 71.3032 259.06 71.0122C256.772 70.6257 255.332 71.4235 255.697 72.8762C255.887 73.6346 255.781 73.9732 255.353 73.9732C255.013 73.9732 254.142 74.4833 253.417 75.1068C252.692 75.7303 251.942 76.2407 251.751 76.241C251.19 76.2418 249.607 79.1081 249.605 80.1265C249.603 81.1004 247.829 83.0193 246.117 83.8988C245.572 84.1788 244.303 84.4079 243.297 84.4079C241.914 84.4079 241.347 84.636 240.967 85.3452C240.47 86.274 240.455 86.2719 239.292 85.1092C238.201 84.0183 237.573 83.7453 235.372 83.4048C234.215 83.2259 234.02 80.6077 234.885 76.8776C235.255 75.283 235.436 73.4962 235.288 72.9068C234.859 71.1939 236.204 70.1839 238.456 70.5297C243.654 71.3282 246.695 71.3723 247.408 70.6596C248.387 69.6802 248.829 66.4503 248.231 64.6393C247.841 63.4581 247.305 62.9752 245.705 62.3643C243.353 61.4657 243.303 60.5965 245.603 60.5734C246.48 60.5646 247.744 60.1989 248.413 59.7606C249.082 59.3224 249.821 59.0827 250.056 59.2281C250.698 59.6244 253.126 58.2246 253.933 56.9937C254.322 56.3988 255.09 55.7978 255.638 55.658C256.187 55.5182 257.656 54.453 258.904 53.2908C260.672 51.6432 261.601 51.1266 263.117 50.9456C264.996 50.7213 266.886 49.1761 265.999 48.5892C265.447 48.2245 264.987 46.0276 265.294 45.2274C265.439 44.8483 266.082 44.1952 266.721 43.7762L267.884 43.0143L267.585 44.8811C267.326 46.5013 267.392 46.7302 268.086 46.6143C268.525 46.5409 269.347 46.2268 269.912 45.9163C270.773 45.4436 270.984 45.4666 271.211 46.0577C271.599 47.0709 270.518 48.2622 269.772 47.643C269.36 47.3009 269.099 47.3133 268.868 47.6858C268.631 48.0701 268.445 48.0492 268.172 47.6075C267.967 47.2762 267.696 47.1093 267.568 47.2366C267.441 47.3638 267.804 48.0535 268.374 48.769C269.336 49.9753 269.52 50.0325 270.89 49.5547C272.064 49.1454 272.628 49.1733 273.628 49.6902C274.756 50.2737 275.137 50.2459 277.306 49.4218C279.206 48.6998 279.955 48.6072 280.796 48.9904C281.57 49.3429 282.143 49.3357 282.861 48.9643C284.902 47.9098 285.467 47.1147 285.214 45.6552C284.839 43.4919 285.526 42.7833 287.338 43.4671C288.57 43.9324 288.931 43.9139 289.488 43.3568C290.077 42.767 290.027 42.5491 289.06 41.5201C288.13 40.5302 288.065 40.2841 288.632 39.9015C289 39.6534 290.378 39.5645 291.695 39.704C294.104 39.9592 297.107 39.0179 296.584 38.1713C296.126 37.4299 293.36 37.2157 291.017 37.7401C288.939 38.2051 288.393 38.1675 286.8 37.4493C284.327 36.3338 284.035 35.0287 285.732 32.6639C287.916 29.6202 288.315 28.6502 287.693 27.9006C286.772 26.7906 285.867 27.1525 283.763 29.4723C282.651 30.6981 281.135 31.9518 280.395 32.2583C279.655 32.5648 278.74 33.4149 278.361 34.1473C277.744 35.3402 277.745 35.5901 278.371 36.5443C278.754 37.1302 279.482 37.7408 279.988 37.9013C281.38 38.343 281.104 39.1721 279.114 40.5342C278.501 40.9531 277.685 42.1382 277.299 43.1678C276.815 44.458 276.08 45.3384 274.934 46.0003C273.317 46.9335 273.244 46.9372 272.351 46.1289C271.845 45.6713 271.309 44.738 271.159 44.055C271.009 43.3719 270.327 42.1439 269.645 41.326L268.403 39.8391L266.829 40.7986C265.964 41.3263 264.847 41.7543 264.348 41.7497C262.908 41.7364 261.241 40.1813 261.13 38.7472C261.074 38.0345 260.889 37.102 260.718 36.6747C260.312 35.6586 262.344 33.7528 264.455 33.1699C266.574 32.5848 270.871 29.5729 271.604 28.1597C271.929 27.5311 273.033 26.2661 274.056 25.3486C275.08 24.4311 275.917 23.4783 275.917 23.2311C275.917 22.984 276.887 22.4362 278.072 22.0138C279.257 21.5915 281.248 20.8251 282.495 20.3109C284.027 19.6795 285.942 19.3457 288.393 19.283C292.675 19.1734 295.476 19.741 297.787 21.1868C298.946 21.9123 299.861 22.1598 300.737 21.9847C302.303 21.6714 310.653 24.2595 311.001 25.1661C311.351 26.0774 308.956 26.9376 306.895 26.6408C305.952 26.5049 304 26.1414 302.558 25.8331C300.617 25.4181 299.805 25.405 299.427 25.7826C299.049 26.1603 299.238 26.4391 300.154 26.8565C300.835 27.1665 301.686 27.9909 302.047 28.6885C302.966 30.4646 305.907 31.9125 307.425 31.3355C308.883 30.781 308.873 30.6062 307.335 29.7715C305.912 28.9995 306.568 28.8326 308.356 29.5121C309.783 30.0546 311.399 29.3796 311.023 28.3986C310.846 27.939 311.342 27.6073 312.741 27.2489C315.734 26.4819 315.953 26.3722 315.705 25.7653C314.766 23.4694 314.753 23.5353 316.119 23.6913C316.848 23.7746 317.381 24.0864 317.32 24.3945C317.26 24.6989 317.64 25.1776 318.164 25.4582C318.952 25.8797 319.573 25.7295 321.739 24.5944C324.914 22.93 327.386 22.3873 328.308 23.1524C328.822 23.579 329.674 23.582 332.141 23.1659C333.886 22.8716 335.512 22.7533 335.754 22.903C335.996 23.0527 336.328 22.9588 336.492 22.6942C336.849 22.1158 335.86 20.8032 335.319 21.1377C334.666 21.5415 332.52 20.8181 332.987 20.3513C333.457 19.8813 346.083 22.8234 346.838 23.579C347.348 24.0884 348.96 23.4088 348.96 22.6848C348.96 22.4409 348.06 21.8038 346.959 21.2691C343.547 19.6113 343.328 16.9562 346.537 16.1507C348.399 15.6833 349.205 16.2225 351.781 19.6616C355.125 24.1265 355.04 23.8993 353.947 25.4338C353.138 26.5701 353.089 26.836 353.651 27.0514C354.714 27.4596 356.991 26.0313 357.311 24.7548C357.687 23.2591 356.986 21.9844 355.312 21.1188C353.996 20.4383 353.043 19.1914 353.043 18.1492C353.043 17.7939 353.537 17.7053 354.518 17.8845C355.989 18.1531 357.205 17.6198 360.536 15.2461C361.297 14.7033 362.585 14.3455 363.883 14.3161C366.517 14.2564 367.369 13.8143 366.611 12.9011C366.314 12.543 366.165 12.1556 366.281 12.0401C366.86 11.4607 374.329 10.4166 376.05 10.6746C377.705 10.9228 378.217 10.7885 379.579 9.74984C380.455 9.08154 381.172 8.35483 381.172 8.13492C381.172 7.58036 377.207 7.62989 376.862 8.18877C376.387 8.95776 375.771 8.69018 375.944 7.79006C376.09 7.03005 375.706 6.90638 372.402 6.64909C363.378 5.9465 362.645 5.78164 363.727 4.6991C364.679 3.74734 367.013 3.76579 368.967 4.74052C369.768 5.1399 371.094 5.46666 371.914 5.46666C372.735 5.46666 373.532 5.67082 373.686 5.92034C373.84 6.16987 374.635 6.37402 375.452 6.37402C377.715 6.37402 382.09 7.3514 381.815 7.79558C381.681 8.01184 382.105 8.18877 382.756 8.18877C383.407 8.18877 384.592 8.54036 385.391 8.97007C386.465 9.54796 387.965 9.75585 391.153 9.76862C394.58 9.78234 395.719 9.95834 396.711 10.6274C397.397 11.0902 397.955 11.5986 397.952 11.757C397.948 11.9155 396.901 12.6211 395.625 13.3252C392.543 15.0255 393.195 15.7665 396.922 14.8005C399.337 14.1749 399.892 14.1708 401.891 14.7645C403.531 15.2516 404.555 15.3141 405.667 14.9951C406.778 14.6766 407.918 14.745 409.852 15.2462C411.869 15.769 412.915 15.8222 414.194 15.467C417.113 14.6564 420.703 14.8854 422.787 16.0149C423.822 16.5763 425.732 17.6151 427.03 18.3234C429.331 19.5788 429.432 19.5926 431.028 18.877C432.364 18.278 433.109 18.2279 435.08 18.6046C437.039 18.9791 437.752 18.9335 438.855 18.363C439.934 17.8049 440.108 17.5306 439.696 17.0342C438.9 16.0744 441.726 15.7176 445.199 16.3396C446.789 16.6244 448.805 16.9088 449.678 16.9715C450.552 17.0342 452.258 17.5319 453.47 18.0775C455.319 18.9095 456.714 19.098 462.123 19.2466C467.255 19.3876 468.888 19.5929 470.127 20.2528C471.383 20.9225 472.816 21.0929 477.58 21.1393C481.963 21.1821 483.927 21.3899 485.228 21.9488C487.326 22.8509 488.166 22.52 487.024 21.2411C486.202 20.3211 486.207 20.3198 489.376 20.6347C494.686 21.1622 501.057 22.3243 503.213 23.1589C504.336 23.5935 506.476 24.0985 507.969 24.2811C509.462 24.4637 511.64 25.098 512.81 25.6906C514.585 26.5902 515.162 26.6895 516.302 26.2922C517.86 25.7488 518.872 26.1401 521.252 28.2077L522.731 29.4924L521.616 29.7722C520.498 30.0529 517.527 29.3175 516.504 28.5065C516.203 28.268 515.781 28.1815 515.566 28.3143C515.351 28.447 514.29 28.2506 513.208 27.8778C510.673 27.0047 509.548 27.3327 510.702 28.608C511.491 29.4791 511.473 29.4974 509.97 29.3925C507.157 29.1963 507.93 30.0271 512.06 31.638C514.306 32.514 516.24 33.3238 516.357 33.4376C516.783 33.8498 515.379 34.3607 514.357 34.1654C513.236 33.951 510.472 35.1547 510.472 35.8576C510.472 36.091 510.036 36.6888 509.502 37.186C508.61 38.0167 508.426 38.0356 507.233 37.4189C506.117 36.8418 505.761 36.8358 504.688 37.3762C504.002 37.7219 502.829 38.1518 502.082 38.3317C501.335 38.5115 500.469 38.8696 500.158 39.1274C499.245 39.8852 500.855 42.0909 503.123 43.1885C504.358 43.7863 505.252 44.5873 505.518 45.3339C505.751 45.9891 506.245 47.0652 506.617 47.7253C507.222 48.801 507.216 48.9541 506.566 49.2036C506.09 49.3864 505.95 49.7528 506.157 50.2719C506.331 50.7065 506.527 51.5725 506.593 52.1963C506.66 52.8201 506.86 53.6693 507.038 54.0835C507.27 54.6226 507.078 54.9265 506.363 55.1535C505.567 55.4061 505.031 55.1017 503.722 53.6546C502.818 52.6559 501.311 51.2808 500.373 50.599C499.435 49.9171 497.754 48.1441 496.637 46.6588C494.668 44.0389 494.627 43.9195 495.281 42.6556C495.651 41.9391 495.962 40.8834 495.97 40.3096C495.98 39.7357 496.267 38.7592 496.61 38.1395C497.265 36.9558 497.013 36.0108 495.612 34.4037C494.692 33.3486 493.056 34.1395 493.469 35.4398C493.849 36.6377 492.682 37.0259 491.341 36.1479C490.759 35.7672 489.42 35.318 488.365 35.1497C486.554 34.8606 486.42 34.9162 485.95 36.1475C485.677 36.8647 485.563 37.9985 485.696 38.667C485.903 39.7086 485.759 39.9218 484.687 40.1571C483.958 40.3173 482.709 40.1278 481.692 39.7026C480.574 39.2355 479.521 39.0943 478.763 39.3098C478.113 39.4948 475.912 39.6628 473.874 39.6831C470.645 39.7152 470.023 39.8562 469.041 40.778C468.422 41.36 467.677 42.7891 467.387 43.9538C467.097 45.1186 466.565 46.526 466.205 47.0814C465.583 48.0414 465.643 48.1384 467.421 49.0455C469.351 50.03 471.455 50.2893 473.05 49.7393C474.28 49.3151 478.034 52.2413 479.206 54.5384C479.686 55.4793 480.479 56.4636 480.969 56.7257C482.822 57.7175 483.198 64.2245 481.649 68.4787C480.576 71.4242 479.375 72.3872 477.612 71.7168C476.938 71.4607 476.319 71.2511 476.235 71.2511C476.152 71.2511 475.647 72.0886 475.114 73.1123C474.413 74.4566 474.276 75.1337 474.622 75.5501C475.283 76.3467 474.794 77.3829 473.472 77.9852C472.862 78.2632 472.363 78.6883 472.363 78.9299C472.363 79.1715 473.782 80.346 475.517 81.5399C477.724 83.0589 478.903 84.2255 479.444 85.425C479.869 86.3679 480.134 87.2142 480.033 87.3058C479.932 87.3973 479.004 87.8979 477.972 88.4182L476.096 89.3641L474.967 86.7726C473.703 83.8722 472.619 82.7058 470.71 82.1919C469.749 81.9331 469.414 81.5663 469.414 80.7719C469.414 80.0437 468.943 79.4249 467.943 78.8391C466.487 77.9857 466.458 77.9867 464.908 78.9447C463.356 79.9035 463.339 79.9041 462.862 79.0139C462.598 78.5201 462.382 77.8035 462.382 77.4216C462.382 77.0397 462 76.5232 461.534 76.2737C460.841 75.9027 460.403 76.1269 459.129 77.5054C458.273 78.4323 457.175 79.4161 456.691 79.6917C455.939 80.1194 455.899 80.3002 456.417 80.9249C456.751 81.3276 457.905 82.149 458.981 82.7503C460.692 83.7067 461.019 83.761 461.596 83.184C462.145 82.6355 462.591 82.6154 464.247 83.0648L466.238 83.6052L465.128 84.3469C463.07 85.7224 462.422 86.4444 462.128 87.6858C461.887 88.7046 462.031 89.011 462.945 89.4278C463.556 89.7059 464.484 90.8155 465.007 91.8935C465.531 92.9716 466.577 94.2185 467.332 94.6645C468.993 95.6453 469.474 96.6874 468.515 97.2241C467.621 97.7245 468.048 98.4722 469.228 98.4722C470.641 98.4722 470.649 99.3151 469.283 104.18C467.629 110.071 466.136 112.037 462.23 113.466C460.691 114.029 458.82 114.523 458.072 114.565C456.332 114.661 454.982 115.398 453.805 116.895L452.871 118.082L452.435 116.936C451.866 115.441 450.562 115.065 448.691 115.856C446.976 116.582 445.845 117.739 445.389 119.235C444.981 120.574 446.426 122.929 448.819 124.824C450.783 126.379 452.986 130.283 453.504 133.123C453.954 135.594 453.156 137.215 451.017 138.18C450.042 138.619 449.13 139.34 448.99 139.781C448.654 140.841 446.64 142.161 446.27 141.563C446.116 141.314 446.11 140.733 446.257 140.271C446.403 139.809 446.396 139.1 446.241 138.696C446.017 138.113 445.769 138.061 445.053 138.444C444.307 138.843 444.019 138.742 443.417 137.869C441.936 135.722 437.645 132.272 436.455 132.272C436.036 132.272 435.874 132.776 435.946 133.86C436.003 134.733 435.826 136.436 435.551 137.644C435.102 139.611 435.148 139.972 435.993 141.114C436.511 141.815 437.064 142.902 437.221 143.529C437.381 144.166 438.693 145.621 440.194 146.824C442.695 148.83 442.958 149.226 444.011 152.558C444.633 154.527 445.142 156.331 445.142 156.567C445.142 157.337 444.194 157.025 442.216 155.605C440.171 154.136 438.865 151.813 437.776 147.707C437.304 145.924 436.785 145.16 435.314 144.078C433.509 142.75 433.455 142.634 433.6 140.438C433.683 139.19 433.887 137.422 434.055 136.508C434.29 135.222 434.095 134.3 433.192 132.425C432.55 131.093 431.791 129.048 431.505 127.879C430.866 125.269 429.964 124.832 428.37 126.36C427.711 126.991 427.044 127.508 426.888 127.508C426.166 127.508 425.174 125.971 425.412 125.221C425.844 123.859 423.186 119.112 421.631 118.468C420.78 118.115 420.002 117.261 419.481 116.106C418.577 114.1 417.562 113.332 416.548 113.887C416.18 114.088 414.707 114.493 413.275 114.787C410.65 115.325 409.708 116.12 410.068 117.494C410.2 118 409.741 118.489 408.639 119.014C407.746 119.44 406.784 120.297 406.501 120.917C406.218 121.538 405.596 122.171 405.117 122.323C404.639 122.474 403.901 123.169 403.477 123.865C403.053 124.562 401.791 125.836 400.673 126.695C399.142 127.872 398.664 128.53 398.74 129.358C399.185 134.196 398.502 138.244 396.836 140.647C395.211 142.992 395.097 143.057 393.723 142.431C392.966 142.086 392.5 141.413 392.307 140.385C392.149 139.542 391.235 137.168 390.277 135.109C384.475 122.649 383.618 120.271 384.112 118.022C384.446 116.501 383.645 114.207 382.87 114.467C382.56 114.571 382.301 114.945 382.294 115.298C382.255 117.368 379.929 117.686 378.112 115.869L376.908 114.665L377.944 114.282C379.109 113.851 379.002 112.688 377.817 112.901C377.395 112.977 376.431 112.517 375.674 111.88C374.917 111.243 374.122 110.722 373.909 110.722C373.695 110.722 373.39 110.311 373.231 109.809C372.813 108.492 370.406 107.346 369.2 107.89C368.114 108.379 358.267 108.277 356.618 107.759C356.025 107.572 354.926 106.719 354.178 105.862C352.825 104.314 352.804 104.308 350.775 104.855C348.852 105.373 348.573 105.324 345.983 104.017C343.745 102.887 343.075 102.278 342.384 100.746C341.503 98.7913 339.545 97.3761 338.355 97.8328C337.98 97.9766 337.542 98.6913 337.382 99.4209C337.152 100.469 337.387 101.15 338.499 102.662C339.274 103.715 340.118 105.358 340.374 106.312C340.926 108.361 342.016 108.97 342.919 107.735C343.464 106.99 343.611 106.964 343.98 107.548C344.216 107.921 344.343 108.431 344.263 108.68C344.01 109.464 346.628 110.755 347.85 110.448C348.467 110.293 349.786 109.242 350.781 108.112C352.348 106.331 352.896 106.211 352.628 107.706C352.448 108.713 353.239 109.892 354.55 110.57C356.575 111.617 359.395 113.948 359.395 114.575C359.395 114.864 358.865 115.595 358.217 116.2C357.569 116.805 356.636 118.085 356.144 119.045C354.949 121.376 351.484 124.786 350.311 124.786C348.955 124.786 346.938 125.931 346.135 127.156C345.754 127.737 344.754 128.556 343.912 128.976C339.6 131.129 334.408 133.311 332.947 133.585C331.385 133.879 331.259 133.808 330.431 132.176C329.952 131.23 329.408 129.334 329.223 127.962C328.982 126.177 328.514 125.042 327.581 123.976C326.863 123.157 326.276 122.289 326.276 122.049C326.276 121.808 325.457 120.768 324.457 119.737C323.21 118.452 322.405 117.059 321.9 115.313C321.495 113.91 320.67 112.151 320.067 111.402C315.904 106.232 314.671 104.408 314.05 102.505C313.227 99.9812 312.532 99.5737 312.211 101.427L311.983 102.743L310.448 100.805C308.083 97.8191 307.785 99.1764 310.005 102.822C311.056 104.547 312.731 107.591 313.727 109.588C314.723 111.584 316.015 113.849 316.597 114.621C317.197 115.416 317.656 116.659 317.656 117.486C317.656 119.196 318.166 120.263 320.17 122.744C320.975 123.743 321.771 125.2 321.939 125.983C322.153 126.987 323.029 128.037 324.911 129.547C327.773 131.842 329.626 134.237 330.087 136.233C330.259 136.983 330.914 137.753 331.745 138.182C333.01 138.837 333.455 138.819 337.454 137.952C339.839 137.436 342.365 136.715 343.068 136.352L344.346 135.691L344.65 137.487C344.926 139.119 344.629 139.905 341.399 146.099C337.926 152.76 337.764 152.98 334.311 155.706C332.367 157.24 330.333 159.119 329.791 159.88C329.249 160.642 327.514 162.699 325.936 164.451C321.33 169.565 320.703 174.063 323.758 180.091C324.534 181.623 324.837 182.782 324.653 183.515C324.501 184.124 324.599 185.663 324.871 186.935C325.301 188.938 325.252 189.473 324.509 190.93C323.436 193.032 322.583 193.787 319.584 195.29C318.274 195.946 317.202 196.678 317.202 196.914C317.202 197.151 316.284 198.38 315.161 199.644C314.038 200.908 313.119 202.148 313.119 202.399C313.119 202.651 313.54 203.681 314.054 204.689C315.597 207.713 314.56 209.903 310.863 211.435C309.305 212.08 308.793 213.398 309.179 215.774C309.381 217.019 309.252 217.433 308.547 217.81C308.06 218.071 307.18 219.041 306.591 219.966C304.731 222.887 299.385 228.055 296.956 229.28C294.93 230.302 294.411 230.392 292.922 229.981C291.61 229.619 290.55 229.676 288.349 230.229C284.784 231.124 285.162 231.161 283.782 229.781L283.782 229.781ZM343.539 85.0768C344.71 84.4712 344.877 84.1377 344.877 82.4102C344.877 81.1718 344.612 80.2161 344.167 79.8462C343.776 79.5219 343.143 78.6506 342.76 77.9098C342.126 76.6844 342.129 76.5881 342.79 76.8417C343.662 77.1766 344.877 76.7738 344.877 76.1496C344.877 75.9029 344.455 75.1084 343.939 74.3839C343.162 73.2926 342.851 73.1471 342.124 73.5358C341.537 73.8501 341.248 73.8531 341.248 73.5446C341.248 73.2914 340.438 72.6711 339.448 72.1661C337.258 71.0488 336.478 69.8107 337.162 68.5343C337.679 67.5682 339.526 66.8913 340.314 67.3788C341.378 68.036 341.691 67.0671 340.814 65.8349C338.686 62.8466 335.723 63.0433 332.049 66.4167C329.678 68.5937 329.472 69.1723 330.813 69.89C331.312 70.157 331.72 70.6792 331.72 71.0503C331.72 71.4214 332.527 72.6004 333.513 73.6705C335.785 76.1349 336.202 77.261 335.921 80.1776L335.694 82.5257L338.811 84.125C340.526 85.0046 341.989 85.7344 342.064 85.7466C342.139 85.7589 342.802 85.4575 343.539 85.0768H343.539ZM331.04 211.805C329.759 211.079 329.577 210.695 329.242 208.017C328.975 205.877 329.086 205.412 330.366 203.332C331.667 201.217 331.761 200.81 331.474 198.513C331.06 195.197 331.765 193.454 333.693 193.031C335.508 192.633 339.438 189.164 340.379 187.128L341.099 185.572L341.599 186.67C342.857 189.431 342.729 190.644 340.54 196.701C339.369 199.942 338.112 203.818 337.748 205.315C336.581 210.107 335.918 211.262 334.007 211.834C331.973 212.444 332.17 212.446 331.04 211.805ZM554.525 203.918C553.078 202.334 552.211 200.975 552.211 200.288C552.211 198.766 552.456 198.899 553.765 201.133C554.391 202.201 555.523 203.668 556.279 204.393C557.036 205.118 557.656 205.878 557.656 206.081C557.656 206.953 556.69 206.286 554.525 203.918ZM352.136 203.274C352.136 203.024 352.34 202.82 352.59 202.82C352.839 202.82 353.043 203.024 353.043 203.274C353.043 203.523 352.839 203.727 352.59 203.727C352.34 203.727 352.136 203.523 352.136 203.274ZM591.051 202.446C590.891 202.187 590.981 201.839 591.251 201.672C591.925 201.255 592.164 201.586 591.714 202.314C591.473 202.704 591.239 202.751 591.051 202.446ZM355.312 201.712C355.312 201.602 355.516 201.386 355.766 201.232C356.015 201.078 356.219 201.168 356.219 201.432C356.219 201.696 356.015 201.912 355.766 201.912C355.516 201.912 355.312 201.822 355.312 201.712ZM579.253 197.108C578.811 195.956 579.372 195.553 580.622 196.122C581.702 196.614 581.725 196.689 580.973 197.24C579.921 198.009 579.589 197.983 579.253 197.108ZM582.127 195.09C581.241 194.542 581.855 194.105 583.265 194.279C584.371 194.416 584.396 194.466 583.606 194.952C583.102 195.263 582.498 195.319 582.127 195.09ZM560.945 193.425C560.013 191.419 560.34 190.648 561.303 192.58C562.306 194.589 562.323 194.655 561.852 194.65C561.665 194.648 561.257 194.097 560.945 193.425ZM562.682 193.103C562.662 192.625 562.77 192.357 562.92 192.508C563.071 192.659 563.087 193.05 562.956 193.378C562.811 193.739 562.704 193.632 562.682 193.103H562.682ZM599.617 188.747C599.201 188.076 599.595 187.732 600.564 187.922C601.273 188.06 601.28 188.133 600.64 188.664C600.13 189.087 599.841 189.111 599.617 188.747ZM331.493 186.487C331.339 186.238 331.429 186.033 331.693 186.033C331.958 186.033 332.174 186.238 332.174 186.487C332.174 186.737 332.084 186.941 331.974 186.941C331.864 186.941 331.648 186.737 331.493 186.487ZM530.661 182.225C527.79 181.319 526.488 180.478 525.359 178.799C524.068 176.881 521.705 175.428 520.499 175.811C520.011 175.966 519.19 176.808 518.674 177.682C517.797 179.169 517.628 179.251 516.033 178.968C515.096 178.801 513.786 178.159 513.124 177.541C512.281 176.756 511.635 176.508 510.978 176.717C510.46 176.881 509.711 176.832 509.312 176.609C508.688 176.26 508.749 176.097 509.747 175.443C510.902 174.686 510.904 174.676 510.129 173.05C509.506 171.745 508.647 171.064 505.838 169.652C503.907 168.681 501.723 167.886 500.986 167.886C499.298 167.886 498.602 166.331 499.873 165.402C500.629 164.849 500.518 164.711 498.546 163.753C496.452 162.736 496.422 162.693 497.422 162.137C497.987 161.823 498.897 161.559 499.445 161.551C500.508 161.533 501.852 163.067 501.852 164.296C501.852 164.706 502.293 165.602 502.833 166.288C503.799 167.516 503.824 167.521 504.534 166.634C504.931 166.139 506.196 165.195 507.346 164.536L509.438 163.337L512.337 164.645C513.931 165.365 516.195 166.299 517.367 166.721C518.539 167.143 520.883 168.399 522.576 169.511C525.809 171.635 527.214 173.425 526.408 174.396C525.752 175.187 528.331 178.791 531.002 180.814C533.937 183.036 533.887 183.242 530.661 182.225ZM550.406 182.188C550.048 181.757 550.013 181.497 550.314 181.497C550.863 181.497 551.502 182.357 551.187 182.672C551.073 182.786 550.721 182.568 550.406 182.188V182.188ZM474.177 180.341C473.52 179.978 473.329 179.71 473.724 179.705C474.534 179.694 475.83 180.449 475.525 180.754C475.407 180.872 474.8 180.686 474.177 180.341ZM481.848 179.742C483.134 177.935 485.148 177.162 487.009 177.76C488.366 178.195 488.387 178.231 487.31 178.275C486.672 178.3 485.185 178.933 484.005 179.682C481.311 181.39 480.661 181.408 481.848 179.742ZM547.675 180.362C547.062 179.624 547.208 179.531 548.318 179.957C548.713 180.109 549.036 180.415 549.036 180.638C549.036 181.265 548.301 181.117 547.675 180.362ZM549.799 179.962C549.629 179.518 549.502 178.813 549.518 178.397C549.537 177.896 549.695 178.01 549.985 178.736C550.226 179.338 550.352 180.042 550.266 180.301C550.18 180.559 549.97 180.407 549.799 179.962ZM584.877 180.389C584.877 180.279 585.081 180.063 585.33 179.909C585.58 179.755 585.784 179.845 585.784 180.109C585.784 180.373 585.58 180.589 585.33 180.589C585.081 180.589 584.877 180.499 584.877 180.389ZM468.844 178.484C468.53 178.352 468.389 178.057 468.53 177.828C468.877 177.268 471.785 177.299 472.136 177.867C472.29 178.117 472.149 178.324 471.822 178.327C471.496 178.33 470.82 178.421 470.321 178.529C469.822 178.636 469.157 178.616 468.844 178.484V178.484ZM475.579 178.143C474.755 177.15 475.705 176.847 477.842 177.423C479.996 178.003 479.988 178.093 477.756 178.496C476.597 178.705 475.96 178.602 475.579 178.143ZM543.697 177.867C543.383 177.365 543.327 176.96 543.572 176.96C543.814 176.96 544.232 177.368 544.499 177.867C544.766 178.366 544.822 178.775 544.624 178.775C544.426 178.775 544.008 178.366 543.697 177.867ZM546.538 177.411C545.325 176.07 545.974 175.86 547.223 177.188C547.808 177.811 548.078 178.321 547.824 178.321C547.57 178.321 546.991 177.911 546.538 177.411ZM461.474 177.332C459.852 177.107 457.566 176.608 456.392 176.223C455.219 175.838 453.837 175.658 453.321 175.821C452.282 176.151 447.864 174.852 447.864 174.217C447.864 172.767 451.931 172.657 454.092 174.048C454.899 174.568 455.535 174.603 457.241 174.22C459.131 173.797 459.525 173.849 460.635 174.67C461.326 175.181 462.097 175.599 462.348 175.599C463.245 175.599 465.968 177.116 465.738 177.488C465.609 177.697 465.261 177.839 464.964 177.804C464.666 177.769 463.096 177.557 461.474 177.332ZM542.911 175.145C542.459 174.646 542.294 174.238 542.543 174.238C542.793 174.238 543.367 174.646 543.818 175.145C544.27 175.644 544.435 176.052 544.186 176.052C543.936 176.052 543.362 175.644 542.911 175.145ZM540.05 174.57C539.792 174.26 539.45 173.394 539.289 172.647C539.031 171.444 539.06 171.392 539.543 172.196C539.843 172.695 540.38 173.44 540.735 173.852C541.112 174.289 541.202 174.713 540.95 174.868C540.713 175.015 540.307 174.881 540.05 174.57ZM530.442 173.128L529.314 172.504L531.062 172.176C532.023 171.996 533.5 171.242 534.344 170.501C535.265 169.692 535.876 169.399 535.872 169.767C535.861 170.69 535.303 171.401 533.607 172.652C531.836 173.959 531.92 173.946 530.442 173.128ZM445.337 171.361C443.67 170.412 440.664 166.738 439.685 164.454C439.157 163.223 437.947 161.194 436.996 159.947C436.045 158.699 434.954 157.066 434.571 156.317C434.188 155.568 433.024 154.139 431.985 153.141C429.794 151.037 428.446 148.825 429.364 148.841C430.555 148.862 433.619 150.566 434.934 151.938C438.56 155.723 439.303 156.397 441.014 157.451C442.666 158.469 443.448 159.528 443.527 160.854C443.542 161.103 444.011 161.818 444.571 162.442C445.13 163.066 446.186 164.239 446.916 165.049C447.647 165.859 448.377 167.123 448.538 167.858C449.066 170.263 447.13 172.383 445.337 171.361ZM353.951 171.062C353.951 170.812 354.155 170.608 354.405 170.608C354.654 170.608 354.858 170.812 354.858 171.062C354.858 171.311 354.654 171.516 354.405 171.516C354.155 171.516 353.951 171.311 353.951 171.062ZM473.948 171.058C473.793 170.806 473.791 170.203 473.944 169.717C474.098 169.231 473.911 168.357 473.526 167.771C472.895 166.806 472.901 166.604 473.59 165.619C474.009 165.022 474.503 163.416 474.688 162.052C474.917 160.369 475.368 159.229 476.092 158.505C477.082 157.515 477.331 157.471 479.557 157.893C481.468 158.255 482.22 158.211 483.26 157.673C485.002 156.772 485.129 156.812 484.551 158.082C483.815 159.696 482.346 160.212 480.796 159.4C478.03 157.95 474.359 160.105 476.296 162.041C477.008 162.753 477.401 162.818 478.72 162.44C480.98 161.791 481.871 161.911 480.468 162.673C478.879 163.536 478.578 164.494 479.396 166.078C479.769 166.798 480.074 167.915 480.074 168.56C480.074 169.592 479.965 169.675 479.166 169.247C478.666 168.979 477.945 168.014 477.564 167.102C476.876 165.455 476.864 165.449 475.984 166.33C475.212 167.102 475.16 167.445 475.582 168.975C475.964 170.358 475.939 170.816 475.462 171.118C474.661 171.626 474.288 171.611 473.946 171.058H473.948ZM536.194 168.638C535.766 167.985 534.787 167.126 534.018 166.728C533.248 166.33 532.721 165.902 532.845 165.778C533.551 165.072 537.488 168.276 537.152 169.283C537.049 169.592 536.638 169.315 536.194 168.638ZM464.949 167.128C464.264 166.769 463.342 166.591 462.9 166.731C461.771 167.09 457.288 166.177 456.843 165.499C456.49 164.959 455.451 161.635 454.895 159.266C454.742 158.615 454.895 157.769 455.252 157.28C455.771 156.571 456.04 156.517 456.862 156.957C457.73 157.422 457.914 157.342 458.39 156.298C458.687 155.645 459.678 154.729 460.591 154.263C461.559 153.77 462.488 152.846 462.817 152.051C463.197 151.134 463.891 150.518 464.929 150.175C465.779 149.895 467.007 148.967 467.658 148.114C468.309 147.261 469.083 146.563 469.379 146.563C469.674 146.563 470.57 147.237 471.368 148.06L472.819 149.558L471.656 151.123C470.334 152.9 470.403 154.429 471.901 156.533L472.808 157.806L471.678 158.547C471.056 158.954 470.549 159.537 470.55 159.844C470.554 160.883 467.647 166.872 466.918 167.327C466.411 167.644 465.82 167.584 464.949 167.128ZM491.304 167.12C490.365 166.874 490.235 166.071 491.134 166.071C491.477 166.071 492.437 166.207 493.268 166.373C494.546 166.629 494.642 166.728 493.892 167.022C492.906 167.407 492.468 167.424 491.304 167.12ZM563.554 161.334C563.554 161.224 563.758 161.008 564.007 160.854C564.257 160.7 564.461 160.79 564.461 161.054C564.461 161.318 564.257 161.535 564.007 161.535C563.758 161.535 563.554 161.444 563.554 161.334ZM489.715 160.104C489.352 159.741 489.331 159.321 489.645 158.733C489.894 158.268 489.978 157.691 489.83 157.451C489.421 156.789 490.445 155.183 491.277 155.183C491.944 155.183 491.941 155.261 491.248 156.027C490.648 156.689 490.582 157.127 490.938 158.064C491.658 159.959 490.875 161.264 489.714 160.104H489.715ZM261.853 158.612C261.853 158.502 262.057 158.286 262.306 158.132C262.556 157.978 262.76 158.068 262.76 158.332C262.76 158.596 262.556 158.812 262.306 158.812C262.057 158.812 261.853 158.722 261.853 158.612ZM576.484 157.451C576.329 157.202 576.419 156.998 576.684 156.998C576.948 156.998 577.164 157.202 577.164 157.451C577.164 157.701 577.074 157.905 576.964 157.905C576.854 157.905 576.638 157.701 576.484 157.451ZM264.575 153.168C264.575 153.058 264.779 152.842 265.028 152.688C265.278 152.533 265.482 152.623 265.482 152.888C265.482 153.152 265.278 153.368 265.028 153.368C264.779 153.368 264.575 153.278 264.575 153.168ZM482.802 146.347C481.937 144.328 481.821 144.237 480.49 144.53C479.162 144.821 479.116 144.786 479.613 143.856C480.025 143.087 480.407 142.934 481.383 143.148C482.324 143.355 482.925 143.146 483.847 142.292C484.517 141.67 485.07 140.795 485.076 140.346C485.09 139.201 486.775 143.041 487.159 145.095C487.451 146.654 487.415 146.738 486.706 146.151C485.653 145.279 484.64 146.184 485.504 147.224C485.848 147.639 485.892 147.924 485.612 147.924C485.353 147.924 484.819 148.047 484.427 148.198C483.9 148.4 483.474 147.915 482.802 146.347ZM400.082 147.148C399.575 146.325 399.287 142.628 399.653 141.646C400.042 140.606 400.071 140.619 401.227 142.327C402.612 144.374 403.055 145.687 402.598 146.388C402.161 147.059 400.362 147.603 400.082 147.148ZM501.399 144.802C501.399 144.552 501.603 144.222 501.852 144.068C502.102 143.913 502.306 143.991 502.306 144.241C502.306 144.49 502.102 144.821 501.852 144.975C501.603 145.129 501.399 145.051 501.399 144.802ZM572.627 144.748C572.627 144.499 572.717 144.294 572.827 144.294C572.937 144.294 573.154 144.499 573.308 144.748C573.462 144.998 573.372 145.202 573.108 145.202C572.843 145.202 572.627 144.998 572.627 144.748ZM469.641 142.127C469.641 141.933 470.55 140.759 471.662 139.518C473.291 137.7 473.687 137.443 473.703 138.194C473.715 138.707 473.033 139.881 472.188 140.803C470.756 142.367 469.641 142.946 469.641 142.127ZM479.467 140.916C479.302 140.486 479.335 139.832 479.542 139.463C479.861 138.892 479.994 138.886 480.442 139.426C480.843 139.909 480.825 140.253 480.368 140.879C479.805 141.648 479.749 141.651 479.467 140.916V140.916ZM132.039 139.149C132.317 138.814 132.41 138.406 132.246 138.241C132.082 138.077 132.371 137.943 132.888 137.943C133.605 137.943 133.772 138.158 133.591 138.85C133.453 139.377 132.972 139.758 132.444 139.758C131.734 139.758 131.645 139.624 132.039 139.149ZM482.511 139.029C482.342 138.556 482.121 138.017 482.02 137.829C481.919 137.642 482.029 137.489 482.264 137.489C482.717 137.489 483.354 139.352 483.017 139.689C482.908 139.798 482.681 139.501 482.511 139.029ZM477.914 137.845C477.277 137.077 477.898 135.984 478.851 136.197C479.448 136.33 479.47 136.519 478.991 137.406C478.528 138.263 478.328 138.344 477.914 137.845ZM483.278 136.286C482.757 135.624 482.407 135.006 482.499 134.914C482.868 134.545 484.144 135.358 484.822 136.393C485.866 137.985 484.542 137.893 483.278 136.286ZM475.819 134.529C475.415 134.125 475.085 133.56 475.085 133.273C475.085 132.986 475.533 133.199 476.08 133.746C476.628 134.294 476.959 134.859 476.815 135.003C476.671 135.146 476.223 134.933 475.819 134.529ZM119.698 134.465C119.531 134.298 119.395 133.951 119.395 133.693C119.395 133.409 119.607 133.436 119.932 133.761C120.227 134.057 120.364 134.404 120.235 134.533C120.106 134.662 119.864 134.631 119.698 134.465ZM117.127 133.86C117.127 133.61 117.217 133.406 117.327 133.406C117.437 133.406 117.653 133.61 117.807 133.86C117.962 134.109 117.872 134.313 117.607 134.313C117.343 134.313 117.127 134.109 117.127 133.86ZM138.45 132.952C138.45 132.703 138.54 132.499 138.65 132.499C138.76 132.499 138.976 132.703 139.131 132.952C139.285 133.202 139.195 133.406 138.931 133.406C138.666 133.406 138.45 133.202 138.45 132.952ZM480.383 132.883C479.928 132.627 479.066 132.54 478.467 132.69C477.588 132.911 476.983 132.557 475.338 130.865C473.015 128.475 472.564 127.467 473.245 126.194C473.508 125.702 473.724 124.685 473.724 123.935C473.724 121.473 475.373 121.572 476.582 124.108C477.252 125.512 477.257 125.814 476.627 127.321C475.949 128.943 475.962 129.015 477.172 130.277C478.045 131.189 478.7 131.498 479.39 131.325C479.974 131.179 480.603 131.36 480.946 131.774C481.763 132.758 481.406 133.461 480.383 132.883H480.383ZM135.728 130.03C135.728 129.92 135.932 129.704 136.182 129.55C136.431 129.395 136.635 129.485 136.635 129.75C136.635 130.014 136.431 130.23 136.182 130.23C135.932 130.23 135.728 130.14 135.728 130.03ZM206.957 128.415C206.957 128.166 207.161 127.962 207.41 127.962C207.66 127.962 207.864 128.166 207.864 128.415C207.864 128.665 207.66 128.869 207.41 128.869C207.161 128.869 206.957 128.665 206.957 128.415ZM134.367 126.654C134.367 126.405 134.571 126.074 134.821 125.92C135.07 125.766 135.274 125.844 135.274 126.093C135.274 126.343 135.07 126.673 134.821 126.828C134.571 126.982 134.367 126.904 134.367 126.654ZM130.514 124.791C130.355 124.534 130.537 124.458 130.941 124.613C131.727 124.914 131.871 125.24 131.218 125.24C130.983 125.24 130.666 125.038 130.514 124.791ZM202.647 124.786C202.492 124.536 202.582 124.332 202.847 124.332C203.111 124.332 203.327 124.536 203.327 124.786C203.327 125.035 203.237 125.24 203.127 125.24C203.017 125.24 202.801 125.035 202.647 124.786ZM132.325 123.879C132.171 123.629 132.261 123.425 132.525 123.425C132.79 123.425 133.006 123.629 133.006 123.879C133.006 124.128 132.916 124.332 132.806 124.332C132.696 124.332 132.48 124.128 132.325 123.879ZM134.367 123.879C134.367 123.629 134.457 123.425 134.567 123.425C134.677 123.425 134.893 123.629 135.048 123.879C135.202 124.128 135.112 124.332 134.847 124.332C134.583 124.332 134.367 124.128 134.367 123.879ZM103.176 122.671C102.864 122.545 102.609 122.255 102.609 122.026C102.609 121.372 104.612 121.54 105.585 122.276C106.421 122.909 106.397 122.941 105.104 122.921C104.356 122.909 103.488 122.797 103.176 122.671ZM114.656 122.413C114.249 122.186 113.35 122.124 112.659 122.276C111.967 122.428 110.903 122.353 110.294 122.109C109.315 121.718 109.402 121.671 111.043 121.71C113.455 121.766 114.099 121.373 113.483 120.222C113.045 119.404 113.177 119.342 115.341 119.342C117.435 119.342 120.455 120.302 120.967 121.13C121.307 121.681 115.469 122.868 114.656 122.413ZM123.359 122.7C122.821 122.163 123.489 121.61 124.677 121.61C125.391 121.61 125.752 121.824 125.636 122.177C125.427 122.812 123.836 123.178 123.359 122.7ZM451.59 121.979C450.388 120.777 451.577 119.342 453.774 119.342C454.747 119.342 454.748 119.35 453.913 120.78C452.939 122.447 452.358 122.747 451.59 121.979ZM127.108 121.886C127.108 121.787 127.414 121.59 127.789 121.446C128.163 121.302 128.469 121.383 128.469 121.624C128.469 121.866 128.163 122.064 127.789 122.064C127.414 122.064 127.108 121.984 127.108 121.886ZM107.496 118.633C107.356 118.493 106.398 118.367 105.368 118.353C103.946 118.333 103.605 118.193 103.954 117.773C104.291 117.367 103.807 116.826 102.139 115.746C98.8688 113.627 97.0429 113.213 94.8458 114.092C92.7857 114.916 92.6279 114.939 92.6279 114.42C92.6279 113.47 96.2386 112.426 98.8386 112.624C101.325 112.813 102.717 113.342 107.6 115.954C111.612 118.101 111.617 118.105 110.322 118.474C108.851 118.894 107.815 118.952 107.496 118.633ZM110.775 114.805C111.655 114.236 112.136 114.236 112.136 114.805C112.136 115.054 111.677 115.255 111.116 115.252C110.29 115.246 110.225 115.16 110.775 114.805ZM472.09 114C471.816 113.819 471.344 113.201 471.041 112.627C470.585 111.761 470.633 111.341 471.318 110.168C472.376 108.356 473.091 108.13 473.434 109.498C473.795 110.938 472.751 114.437 472.09 114ZM113.754 113.396C114.057 112.906 115.766 112.85 115.766 113.33C115.765 113.518 115.256 113.7 114.634 113.736C114.012 113.772 113.616 113.619 113.754 113.396ZM104.783 109.023C104.057 108.19 104.163 107.092 104.968 107.092C105.226 107.092 105.333 107.491 105.205 107.978C105.078 108.465 105.207 108.947 105.493 109.05C105.778 109.152 105.891 109.368 105.744 109.528C105.597 109.689 105.164 109.461 104.783 109.023ZM107.418 105.459C107.257 105.038 107.227 104.592 107.351 104.467C107.476 104.342 107.71 104.584 107.872 105.005C108.033 105.426 108.063 105.872 107.938 105.997C107.814 106.122 107.58 105.88 107.418 105.459ZM104.575 105.051C104.575 104.676 104.964 104.37 105.439 104.37C106.207 104.37 106.228 104.446 105.623 105.051C105.248 105.425 104.86 105.731 104.759 105.731C104.658 105.731 104.575 105.425 104.575 105.051ZM485.066 95.1043C485.066 94.7492 484.57 93.8696 483.965 93.1498C482.527 91.4409 483.036 90.3003 484.739 91.4161C485.963 92.2181 486.603 93.8568 486.151 95.0335C485.809 95.9259 485.066 95.9744 485.066 95.1043ZM133.006 92.3742C133.006 92.2641 133.21 92.048 133.46 91.8937C133.709 91.7395 133.913 91.8295 133.913 92.0938C133.913 92.358 133.709 92.5743 133.46 92.5743C133.21 92.5743 133.006 92.4842 133.006 92.3742ZM487.594 91.8166C487.3 91.05 487.995 90.3255 489.036 90.3128C489.757 90.3039 489.77 91.3182 489.058 92.0298C488.319 92.7696 487.939 92.7143 487.594 91.8166ZM491.74 90.1605C490.859 88.8162 489.614 88.6316 486.766 89.4227C485.608 89.7444 484.81 89.748 484.271 89.434C483.835 89.1801 483.718 88.9661 484.01 88.9586C484.303 88.951 485.158 88.4272 485.909 87.7946C486.879 86.9786 487.59 86.7232 488.356 86.9155C489.168 87.1193 490.045 86.7294 491.888 85.3442C495.478 82.6473 495.802 81.7969 494.342 78.9152C492.94 76.1494 493.331 75.2589 495.408 76.4857C496.919 77.3785 498.343 79.9361 497.93 81.0144C497.781 81.4025 498.003 82.6204 498.423 83.721C499.018 85.2783 499.074 85.9331 498.677 86.6745C498.095 87.7634 496.473 88.4911 494.629 88.4911C493.596 88.4911 493.288 88.7562 492.95 89.9336L492.536 91.3762L491.74 90.1605V90.1605ZM307.947 88.612C307.406 88.0705 307.694 87.5837 308.555 87.5837C309.04 87.5837 309.562 87.3795 309.716 87.13C310.138 86.4476 310.857 86.5847 310.585 87.2954C310.305 88.0248 308.34 89.0053 307.947 88.612ZM292.476 87.8269L291.115 87.2037L292.93 87.1731C295.19 87.1349 296.855 87.5588 296.528 88.089C296.163 88.6796 294.038 88.5421 292.476 87.8269ZM274.149 83.3012C272.333 82.3717 272.248 82.2557 273.196 82.0078C274.331 81.7109 276.844 82.0803 276.792 82.5365C276.775 82.6924 276.622 83.158 276.452 83.5712C276.173 84.2504 275.953 84.2245 274.149 83.3012ZM265.056 78.3928C264.663 77.2665 264.694 76.8354 265.204 76.3252C266.126 75.4028 266.843 76.051 266.843 77.8077C266.843 79.8826 265.705 80.2552 265.056 78.3928ZM254.417 78.7698C254.739 77.9311 256.119 77.7892 255.842 78.6234C255.738 78.9353 255.313 79.2564 254.898 79.3369C254.372 79.439 254.226 79.2674 254.417 78.7698ZM491.469 73.5914C490.638 72.4251 490.615 72.2101 491.229 71.3345C491.831 70.4744 491.829 70.2166 491.208 69.0167C490.188 67.043 490.331 66.9236 492.101 68.2736C492.976 68.9409 494.702 69.7871 495.938 70.1539C498.49 70.912 499.106 71.5071 497.776 71.9295C497.273 72.089 496.862 72.5159 496.862 72.8781C496.862 73.3716 496.549 73.4567 495.614 73.2175C493.22 72.605 492.54 72.7546 492.694 73.8597C492.882 75.2138 492.576 75.1469 491.469 73.5914H491.469ZM265.785 74.1244C265.258 73.5982 265.457 72.7189 266.163 72.448C266.654 72.2594 266.843 72.4977 266.843 73.3069C266.843 74.3959 266.399 74.7389 265.785 74.1244ZM488.59 64.5592C488.205 64.1225 487.277 62.5399 486.528 61.0422C485.779 59.5446 483.799 56.7944 482.128 54.9306C480.261 52.8483 479.312 51.4677 479.667 51.3494C479.985 51.2435 480.666 51.7179 481.181 52.4036C482.429 54.0658 483.966 55.5091 486.391 57.2964C488.402 58.7779 489.396 60.1492 488.099 59.6514C486.603 59.0774 486.976 60.4399 488.912 62.6194C490.041 63.8901 490.964 65.025 490.964 65.1414C490.964 65.6932 489.21 65.2631 488.59 64.5592ZM156.598 63.7652C156.598 63.3909 156.795 63.0847 157.037 63.0847C157.279 63.0847 157.359 63.3909 157.215 63.7652C157.072 64.1395 156.874 64.4457 156.776 64.4457C156.678 64.4457 156.598 64.1395 156.598 63.7652ZM154.227 62.3012L152.537 62.1239L155.717 58.9748C157.466 57.2428 159.126 55.8257 159.406 55.8257C159.701 55.8257 159.612 56.159 159.195 56.62C158.251 57.6636 158.895 58.8361 160.621 59.2152C161.374 59.3807 162.125 59.9581 162.416 60.5951C162.881 61.6175 162.802 61.7217 161.231 62.1582C159.582 62.6162 157.613 62.6564 154.227 62.3012ZM43.6778 59.0463C42.1063 57.5783 41.931 56.9598 42.9731 56.5599C43.9063 56.2018 45.6291 57.3693 46.282 58.8024C46.9672 60.3061 46.9551 60.3626 45.9463 60.3626C45.4736 60.3626 44.4528 59.7703 43.6778 59.0463ZM243.478 56.7413C243.977 56.4952 244.959 56.0868 245.661 55.8338C247.206 55.2763 246.95 54.6825 244.995 54.2917C243.655 54.0236 243.608 53.9554 244.375 53.3946C244.831 53.0607 245.072 52.5723 244.909 52.3093C244.743 52.0405 245.21 51.6231 245.974 51.3567C246.722 51.0958 247.335 50.6809 247.335 50.4346C247.335 49.3867 246.389 47.6239 245.864 47.6925C244.652 47.8505 244.091 47.6369 244.287 47.0923C244.398 46.7804 244.306 46.1679 244.082 45.7312C243.498 44.5958 244.84 42.2476 246.087 42.2221C246.274 42.2186 246.376 42.4655 246.314 42.7715C246.252 43.0775 246.68 43.4005 247.265 43.4893L248.33 43.6509L247.313 44.7339L246.295 45.8169L247.442 46.2529C248.673 46.721 249.86 48.2458 251.068 50.9125C251.647 52.1902 252.027 52.5242 252.703 52.3475C254.09 51.9849 254.254 52.9245 252.953 53.7767C252.072 54.3542 251.905 54.6795 252.291 55.0655C252.677 55.4514 251.916 55.7104 249.277 56.0913C247.335 56.3715 245.032 56.7331 244.159 56.8948C242.944 57.1197 242.784 57.0837 243.478 56.7413ZM235.827 54.2352C235.672 53.8307 235.849 52.9119 236.221 52.1932C236.647 51.3687 236.73 50.7836 236.445 50.6073C235.658 50.1214 235.953 49.5013 237.108 49.2114C237.722 49.0574 238.461 48.6452 238.752 48.2954C239.356 47.5671 242.151 47.4331 242.571 48.1123C242.724 48.3614 242.532 49.0193 242.144 49.5743C241.755 50.1293 241.437 51.1262 241.437 51.7897C241.437 52.8015 241.126 53.104 239.509 53.6653C238.448 54.0335 237.25 54.4777 236.845 54.6526C236.371 54.8576 236.009 54.7094 235.827 54.2352ZM244.159 49.7277C244.159 49.6177 244.363 49.4015 244.613 49.2473C244.862 49.0931 245.066 49.1831 245.066 49.4473C245.066 49.7116 244.862 49.9278 244.613 49.9278C244.363 49.9278 244.159 49.8378 244.159 49.7277ZM42.8131 47.5418C42.3687 47.0063 42.397 46.7567 42.9547 46.2939C43.8767 45.5287 44.334 46.0478 43.7974 47.2504C43.4273 48.0797 43.2927 48.1196 42.8131 47.5418ZM42.1037 44.1297C41.9505 43.8818 42.1291 43.4267 42.5006 43.1184C43.2383 42.5062 43.3923 42.9863 42.7723 43.9649C42.5353 44.3388 42.2729 44.4035 42.1037 44.1297ZM12.7792 43.8404C12.7792 43.5212 14.1549 42.963 16.1065 42.4902C16.8463 42.311 17.2837 42.3542 17.1367 42.5921C16.9962 42.8194 16.3156 43.1195 15.6242 43.259C14.9328 43.3985 14.0099 43.6509 13.5732 43.8198C13.1365 43.9888 12.7792 43.998 12.7792 43.8404V43.8404ZM282.382 38.7389C281.545 38.4011 281.693 37.8806 282.647 37.8087C283.104 37.7743 283.478 38.0371 283.478 38.3927C283.478 39.0682 283.321 39.1179 282.382 38.7389ZM182.684 36.4201C179.814 34.8544 178.441 32.449 179.273 30.4407C179.667 29.4902 179.679 28.8925 179.318 28.218C178.566 26.8142 179.547 25.1691 182.053 23.6268C183.244 22.8942 184.433 21.8938 184.695 21.4037C185.422 20.0457 184.774 17.7187 183.51 17.1425C182.87 16.8509 182.521 16.3897 182.663 16.0212C182.985 15.1819 181.474 12.3153 179.97 10.9108C178.863 9.87715 178.386 9.77422 174.595 9.74938C169.432 9.71558 168.47 9.42857 168.556 7.94717C168.591 7.3318 168.728 6.82818 168.859 6.828C168.99 6.82783 170.828 6.61489 172.942 6.3548C175.642 6.02271 178.062 5.33784 181.072 4.05458C185.731 2.06774 186.086 2.02892 197.202 2.29021C200.713 2.37272 203.942 2.11293 208.091 1.41428C211.954 0.763649 214.797 0.518384 216.332 0.703247C217.636 0.860318 219.525 0.75672 220.591 0.469624C223.065 -0.196612 229.494 0.604807 232.022 1.8947C233.517 2.65727 234.308 2.75797 236.83 2.50686C239.554 2.23562 239.76 2.2713 238.941 2.87274C238.442 3.23927 236.911 3.687 235.539 3.8677C232.561 4.25982 229.824 6.38238 230.55 7.73762C230.863 8.32223 230.638 8.82121 229.627 9.7903C228.892 10.4945 228.183 11.4096 228.051 11.8238C227.735 12.8191 223.725 14.6713 221.736 14.7403C219.527 14.8171 219.296 15.2866 221.004 16.2275C221.811 16.6719 222.989 17.4293 223.622 17.9104L224.772 18.7852L223.732 19.17C222.935 19.4649 222.288 19.2748 220.961 18.3554C219.161 17.1077 217.224 17.1014 218.257 18.3466C218.66 18.8322 218.563 19.0208 217.809 19.2181C216.123 19.659 217.316 20.5308 219.175 20.2167C220.358 20.0167 221.024 20.1221 221.394 20.568C221.834 21.0985 221.26 21.3442 217.956 22.0387C215.774 22.4973 212.866 22.8893 211.494 22.9098C208.944 22.9479 207.107 23.6798 204.404 25.734C203.523 26.4039 201.65 27.0677 199.458 27.487C194.877 28.3635 193.329 29.3771 190.569 33.3072C188.352 36.4639 187.016 37.6405 185.633 37.6516C185.259 37.6547 183.932 37.1004 182.684 36.4201ZM150.516 33.3857C149.542 32.7871 148.348 31.6706 147.863 30.9046C146.916 29.4093 146.043 29.2193 143.487 29.9523C142.622 30.2005 141.651 30.2244 141.263 30.0071C139.919 29.2553 142.346 28.5159 145.048 28.8535C147.104 29.1103 147.56 29.0371 147.8 28.4125C148.282 27.1576 150.486 26.2582 151.711 26.8166C152.466 27.1603 153.152 27.1507 154.115 26.7829C155.411 26.2882 155.429 26.2435 154.583 25.6217C154.098 25.2661 153.546 24.9751 153.354 24.9751C153.163 24.9751 152.472 24.0637 151.819 22.9498C151.167 21.8358 149.943 20.4983 149.101 19.9776C147.669 19.0926 147.479 19.077 146.198 19.7394C145.079 20.3184 144.432 20.359 142.66 19.9611C141.467 19.6934 139.802 19.6032 138.96 19.7607C137.498 20.034 134.821 19.3188 134.821 18.6552C134.821 17.436 138.663 14.7 140.945 14.2938L142.76 13.9709L141.463 15.353C139.674 17.2594 140.346 18.1368 142.29 16.4307C143.114 15.707 144.538 14.9742 145.455 14.8022C146.856 14.5393 147.457 14.7107 149.216 15.8759C151.556 17.4263 151.737 17.4678 153.057 16.7614C153.851 16.336 154.146 16.4529 155.009 17.5354C155.606 18.2841 156.94 19.0995 158.24 19.5109C160.312 20.1665 160.454 20.3092 160.454 21.7384C160.454 22.8101 160.763 23.4864 161.491 24.0068C164.535 26.1842 164.469 26.0943 163.81 27.1492C162.907 28.5956 162.194 28.7004 160.194 27.6805C158.804 26.971 158.196 26.8737 157.496 27.2484C156.639 27.7069 156.63 27.8049 157.32 29.1385C157.886 30.2331 157.937 30.7857 157.553 31.6299C157.079 32.6701 157.003 32.6862 155.716 32.0207C153.186 30.7124 151.483 31.5733 153.843 32.9675C154.582 33.4042 155.084 33.9283 154.958 34.1321C154.519 34.843 152.274 34.4659 150.516 33.3857V33.3857ZM243.705 33.9732C243.705 33.7653 244.011 33.5951 244.386 33.5951C244.76 33.5951 245.066 33.7653 245.066 33.9732C245.066 34.1811 244.76 34.3513 244.386 34.3513C244.011 34.3513 243.705 34.1811 243.705 33.9732ZM133.41 31.5333C132.516 31.0631 131.821 31.0228 130.568 31.3687C128.439 31.9567 127.694 31.5264 128.775 30.3323C130.158 28.8036 131.096 28.5029 132.765 29.0536C134.643 29.6734 135.477 30.5947 134.97 31.4906C134.647 32.0618 134.427 32.0678 133.41 31.5333ZM223.516 31.3267C222.768 30.8345 221.815 30.5394 221.399 30.671C220.826 30.8523 220.699 30.695 220.875 30.0225C221.145 28.9903 225.131 27.5005 226.478 27.9282C226.948 28.0773 228.149 27.9547 229.147 27.6558C230.713 27.1865 231.128 27.222 232.187 27.9158L233.414 28.7194L232.321 29.5708C231.399 30.2894 229.689 30.9128 225.558 32.0365C225.183 32.1383 224.265 31.8189 223.516 31.3267ZM100.341 22.8575C99.7167 22.7589 98.1971 22.2253 96.9636 21.6717L94.7209 20.6651L97.871 20.4382C99.6035 20.3135 101.021 20.0072 101.021 19.7577C101.021 19.5082 99.7961 19.1946 98.299 19.0609C96.3222 18.8843 95.9495 18.7601 96.9379 18.6072C98.5928 18.3512 98.712 17.6345 97.1648 17.2437C96.0506 16.9624 96.0587 16.9452 97.626 16.2699C100.342 15.0996 103.235 14.8754 105.799 15.6366C107.903 16.2616 108.232 16.2589 109.224 15.6088C109.926 15.149 110.342 15.0721 110.378 15.3955C110.41 15.6737 110.461 16.1396 110.492 16.4307C110.597 17.4135 111.502 17.2864 112.582 16.1369C113.582 15.0729 115.314 14.5631 115.31 15.3343C115.31 15.5214 114.906 16.3353 114.414 17.1428L113.518 18.611L114.982 19.3748L116.446 20.1386L114.043 21.2358C111.873 22.2258 111.428 22.2825 109.484 21.816C107.599 21.3638 107.058 21.4155 105.158 22.2298C103.013 23.1494 102.56 23.2084 100.341 22.8575ZM118.536 22.5379C118.126 22.0441 118.296 21.8012 119.355 21.3625C120.092 21.0572 121.149 20.9554 121.716 21.1352C122.698 21.4471 122.676 21.4961 121.182 22.2916C119.276 23.3065 119.181 23.3153 118.536 22.5379ZM243.705 20.4382C244.585 19.8698 245.066 19.8698 245.066 20.4382C245.066 20.6878 244.607 20.8888 244.045 20.885C243.22 20.8794 243.155 20.7939 243.705 20.4382ZM326.957 19.1796C324.637 18.2634 324.685 18.3135 325.36 17.5003C325.675 17.1199 325.755 16.8023 325.538 16.7943C325.32 16.7864 325.55 16.4714 326.049 16.0943C326.548 15.7172 326.96 15.2643 326.964 15.0879C326.98 14.4169 328.827 12.6473 330.132 12.0526C330.881 11.7115 332.82 11.3271 334.442 11.1984C336.064 11.0696 338.237 10.8337 339.27 10.6741C340.37 10.5043 341.266 10.5737 341.432 10.8416C341.753 11.3621 341.139 11.5833 337.618 12.2159C334.124 12.8437 332.024 13.8219 330.64 15.4659C329.183 17.1978 329.134 18.2913 330.473 19.2249L331.493 19.937L330.132 19.9167C329.384 19.9055 327.955 19.5738 326.957 19.1796V19.1796ZM89.3409 17.8641C88.6092 17.1325 88.776 16.9732 92.2864 15.0515C96.3994 12.7998 98.4661 12.5009 102.155 13.6242L104.197 14.2458L101.475 14.7855C99.2485 15.2269 94.5307 16.8046 90.8051 18.3535C90.425 18.5115 89.7689 18.2922 89.3409 17.8641ZM122.117 17.2769C122.117 17.0354 121.556 16.5155 120.87 16.1216L119.622 15.4055L121.293 15.6682C122.48 15.8549 123.071 15.7437 123.334 15.2841C123.648 14.7375 126.535 13.6438 127.687 13.6355C127.88 13.634 127.722 14.2447 127.336 14.9925C126.425 16.7536 122.117 18.6393 122.117 17.2769ZM129.181 15.9523C128.531 14.9005 132.97 13.2725 134.856 13.8711C136.231 14.3073 135.312 15.0568 132.915 15.4553C131.842 15.6337 130.628 15.923 130.216 16.0982C129.805 16.2735 129.339 16.2078 129.181 15.9523ZM143.668 12.6114C140.673 12.3733 138.167 12.1266 138.099 12.0632C137.694 11.6868 138.705 10.4616 139.794 10.0105C140.865 9.56704 141.358 9.62589 142.824 10.3719C144.253 11.099 145.174 11.2199 147.828 11.0286C149.617 10.8996 151.658 10.9404 152.364 11.1192L153.649 11.4442L152.061 12.2927C151.187 12.7594 150.167 13.1195 149.792 13.0929C149.418 13.0663 146.662 12.8496 143.668 12.6114ZM274.228 10.7573C272 9.61633 271.785 9.09891 273.535 9.08916C274.221 9.08532 275.089 8.86192 275.463 8.59268C276.052 8.16948 276.044 8.13488 275.405 8.33732C274.999 8.46613 274.429 8.33386 274.139 8.04365C273.737 7.64229 273.528 7.6494 273.266 8.0733C273.024 8.46579 272.526 8.51223 271.584 8.23019C269.191 7.51374 268.658 7.19567 268.658 6.48533C268.658 5.88364 269.258 5.82853 272.968 6.08934C275.794 6.28796 277.278 6.23291 277.278 5.92946C277.278 5.03637 278.537 5.47737 278.871 6.48741L279.208 7.5082L279.409 6.48741C279.519 5.92597 279.902 5.46661 280.258 5.46661C280.615 5.46661 280.907 5.22162 280.907 4.92219C280.907 4.49875 281.028 4.49875 281.452 4.92219C281.769 5.23888 283.287 5.46661 285.081 5.46661C288.325 5.46661 289.087 6.04654 286.923 6.869C285.799 7.29642 283.844 7.17551 281.701 6.54607C281.265 6.41779 280.909 6.47972 280.91 6.68368C280.913 7.10236 283.463 8.64242 284.152 8.64242C284.4 8.64242 284.888 8.92883 285.238 9.27888C285.784 9.82504 285.78 9.95176 285.206 10.172C284.838 10.3132 284.537 10.2082 284.537 9.93874C284.537 9.62198 283.96 9.55706 282.904 9.75507C281.761 9.96951 281.365 9.91067 281.582 9.55884C281.753 9.28247 281.646 8.75905 281.345 8.39569C280.763 7.69471 279.093 7.48009 279.093 8.10632C279.093 8.31052 278.429 9.21116 277.618 10.1077L276.144 11.7379L274.228 10.7573L274.228 10.7573ZM153.875 9.75921C153.089 9.29751 151.976 9.16377 150.246 9.32295C148.629 9.47174 147.385 9.34346 146.712 8.95837C145.783 8.42746 146.01 8.36696 148.844 8.3899C152.387 8.41859 153.943 7.66011 152.024 6.8397C151.113 6.44995 151.246 6.41457 152.808 6.63103C154.848 6.91362 155.641 6.36709 154.53 5.44466C153.344 4.46107 154.648 4.15572 158.864 4.42892C161.474 4.59798 163.114 4.50316 163.784 4.14443C165.068 3.45721 164.564 2.58241 163.096 2.95079C162.082 3.20538 155.042 2.78761 155.339 2.49045C155.552 2.27808 165.525 1.35437 172.074 0.940538C175.471 0.725886 179.248 0.426453 180.468 0.275133L182.684 0L179.025 1.75794C175.593 3.40613 170.013 5.01293 167.721 5.01293C167.163 5.01293 165.559 5.62541 164.156 6.37399C162.753 7.12257 161.324 7.73504 160.98 7.73504C160.636 7.73504 159.152 8.34494 157.682 9.09036C156.212 9.83578 155.01 10.441 155.01 10.4353C155.01 10.4297 154.499 10.1254 153.875 9.75921ZM145.029 5.61427C142.83 5.12774 142.749 4.94472 144.365 4.10728C146.72 2.8866 148.949 2.57373 149.962 3.32155C150.764 3.91362 150.718 4.00514 149.142 4.93477C147.5 5.90365 146.834 6.01373 145.029 5.61427Z" fill="#272D46"/>
</svg>
