<svg width="470" height="490" viewBox="0 0 470 490" fill="none" xmlns="http://www.w3.org/2000/svg">
<path d="M461.993 109.8C485.272 172.431 452.294 250.913 432.894 310.064C413.883 369.216 407.675 409.423 384.784 438.033C361.893 467.028 321.543 485.199 277.312 489.065C233.47 493.318 184.972 483.266 131.818 454.657C78.6636 425.661 20.4658 377.335 4.55838 313.544C-11.349 249.753 15.422 170.111 68.576 107.867C121.73 45.2359 201.655 -0.384172 281.192 0.00243878C360.341 0.775661 439.102 47.169 461.993 109.8Z" fill="#262742"/>
<path fill-rule="evenodd" clip-rule="evenodd" d="M224.037 227.541L214.686 231.048V234.178V237.308L224.037 240.652C229.181 242.491 233.454 243.998 233.533 244C233.611 244.002 233.653 242.602 233.625 240.889L233.574 237.773L228.482 236.055C225.681 235.109 223.332 234.281 223.262 234.213C223.138 234.094 232.994 230.353 233.417 230.359C233.534 230.361 234.784 231.651 236.195 233.226C237.606 234.801 240.336 237.85 242.262 240.001C244.188 242.153 245.813 243.929 245.873 243.949C245.933 243.969 250.19 242.413 255.334 240.492L264.686 236.998V233.845V230.692L255.334 227.348C250.19 225.509 245.961 224.002 245.936 224C245.91 223.998 245.89 225.408 245.89 227.134L245.891 230.271L250.993 231.987C253.798 232.93 256.128 233.756 256.17 233.822C256.211 233.888 254.311 234.661 251.947 235.54C249.583 236.419 247.26 237.287 246.786 237.47L245.924 237.801L239.749 230.899C236.353 227.103 233.533 224.005 233.482 224.015C233.431 224.026 229.181 225.612 224.037 227.541Z" fill="white"/>
<path fill-rule="evenodd" clip-rule="evenodd" d="M198 262.479V273.139H200.496H202.993L203.05 266.629L203.108 260.119L207.237 266.622L211.367 273.125L213.812 273.132L216.257 273.139V262.486V251.833H213.869H211.482L211.424 258.386L211.367 264.938L207.223 258.44L203.078 251.942L200.539 251.881L198 251.82V262.479ZM222.886 259.827C221.356 260.33 219.51 262.193 218.956 263.793C218.328 265.606 218.396 268.126 219.113 269.66C220.206 271.997 222.543 273.575 224.904 273.572C226.276 273.571 227.258 273.275 228.49 272.494L229.515 271.844V272.491V273.139H231.797H234.079V266.508V259.877H231.797H229.515V260.421C229.515 261.078 229.418 261.091 228.704 260.529C227.392 259.497 224.829 259.187 222.886 259.827ZM244.022 259.739C243.573 259.907 242.864 260.305 242.446 260.624L241.686 261.204V260.541V259.877H239.404H237.122V266.508V273.139H239.404H241.686V269.149C241.686 265.356 241.71 265.123 242.181 264.424C243.19 262.927 244.767 262.698 245.946 263.877L246.685 264.617V268.878V273.139H249.076H251.466V268.801C251.466 266.416 251.358 263.959 251.226 263.341C250.934 261.981 249.821 260.646 248.483 260.052C247.246 259.502 245.064 259.349 244.022 259.739ZM258.965 259.735C256.594 260.353 254.806 261.736 253.84 263.698C253.109 265.184 253.098 267.761 253.816 269.334C254.967 271.854 257.367 273.338 260.591 273.522C264.414 273.74 267.269 272.198 268.642 269.172C269.179 267.988 269.21 265.581 268.707 264.101C268.187 262.573 266.321 260.753 264.614 260.109C263.022 259.509 260.478 259.34 258.965 259.735ZM274.679 259.747C272.366 260.369 271.244 261.702 271.244 263.827C271.244 265.63 271.865 266.368 274.452 267.641C276.282 268.54 276.579 268.762 276.637 269.272C276.693 269.754 276.601 269.889 276.137 270.005C275.277 270.221 274.105 269.959 273.175 269.343C272.716 269.039 272.253 268.791 272.147 268.791C272.04 268.791 271.555 269.477 271.07 270.317L270.186 271.843L270.661 272.153C272.245 273.19 273.28 273.465 275.591 273.465C276.941 273.465 278.209 273.346 278.694 273.174C281.152 272.304 282.31 269.664 281.255 267.338C280.763 266.254 279.76 265.539 277.668 264.78C275.868 264.128 275.385 263.732 275.726 263.188C276.063 262.65 277.292 262.612 278.728 263.097L279.963 263.514L280.718 262.013L281.473 260.513L280.694 260.187C278.907 259.44 276.477 259.262 274.679 259.747ZM225.277 263.652C224.086 264.2 223.573 264.972 223.485 266.348C223.389 267.851 223.853 268.747 225.012 269.297C227.548 270.501 230.132 268.23 229.318 265.514C228.847 263.942 226.749 262.975 225.277 263.652ZM260.051 263.652C258.861 264.2 258.348 264.972 258.26 266.348C258.164 267.851 258.628 268.747 259.787 269.297C262.322 270.501 264.907 268.23 264.093 265.514C263.622 263.942 261.523 262.975 260.051 263.652Z" fill="white"/>
<rect x="84" y="211.857" width="74.2857" height="74.2857" rx="2.97143" fill="#576084"/>
<path d="M135.87 242.17C137.321 241.081 138.627 239.776 139.643 238.252C138.337 238.833 136.813 239.268 135.29 239.413C136.886 238.47 138.047 237.019 138.627 235.205C137.176 236.076 135.508 236.729 133.839 237.092C132.388 235.568 130.429 234.698 128.253 234.698C124.045 234.698 120.636 238.107 120.636 242.315C120.636 242.895 120.708 243.475 120.854 244.056C114.542 243.693 108.884 240.646 105.111 236.076C104.458 237.164 104.096 238.47 104.096 239.921C104.096 242.532 105.402 244.854 107.505 246.232C106.272 246.16 105.039 245.869 104.023 245.289V245.362C104.023 249.061 106.635 252.108 110.117 252.834C109.537 252.979 108.811 253.124 108.158 253.124C107.65 253.124 107.215 253.051 106.707 252.979C107.65 256.026 110.48 258.202 113.817 258.275C111.205 260.306 107.941 261.539 104.386 261.539C103.733 261.539 103.153 261.467 102.572 261.394C105.909 263.57 109.899 264.804 114.252 264.804C128.253 264.804 135.87 253.269 135.87 243.185C135.87 242.823 135.87 242.532 135.87 242.17Z" fill="white"/>
<rect x="202.857" y="93" width="74.2857" height="74.2857" rx="2.97143" fill="#576084"/>
<path d="M234.327 141.158C234.327 141.013 234.182 140.868 233.965 140.868C233.747 140.868 233.602 141.013 233.602 141.158C233.602 141.304 233.747 141.449 233.965 141.376C234.182 141.376 234.327 141.304 234.327 141.158ZM232.078 140.796C232.078 140.941 232.223 141.158 232.441 141.158C232.586 141.231 232.804 141.158 232.876 141.013C232.876 140.868 232.804 140.723 232.586 140.651C232.369 140.578 232.151 140.651 232.078 140.796ZM235.343 140.723C235.125 140.723 234.98 140.868 234.98 141.086C234.98 141.231 235.198 141.304 235.415 141.231C235.633 141.158 235.778 141.086 235.706 140.941C235.706 140.796 235.488 140.651 235.343 140.723ZM240.058 112.866C230.047 112.866 222.357 120.556 222.357 130.567C222.357 138.619 227.363 145.511 234.617 147.978C235.561 148.123 235.851 147.542 235.851 147.107C235.851 146.599 235.851 144.133 235.851 142.609C235.851 142.609 230.773 143.698 229.684 140.433C229.684 140.433 228.886 138.329 227.726 137.821C227.726 137.821 226.057 136.661 227.798 136.661C227.798 136.661 229.612 136.806 230.628 138.547C232.223 141.376 234.835 140.578 235.923 140.07C236.068 138.91 236.504 138.112 237.084 137.604C233.021 137.169 228.886 136.588 228.886 129.624C228.886 127.593 229.467 126.65 230.628 125.344C230.41 124.836 229.83 122.95 230.845 120.411C232.296 119.975 235.851 122.369 235.851 122.369C237.302 121.934 238.825 121.789 240.348 121.789C241.944 121.789 243.468 121.934 244.919 122.369C244.919 122.369 248.401 119.903 249.924 120.411C250.94 122.95 250.287 124.836 250.142 125.344C251.303 126.65 252.028 127.593 252.028 129.624C252.028 136.588 247.748 137.169 243.686 137.604C244.338 138.184 244.919 139.272 244.919 141.013C244.919 143.407 244.846 146.454 244.846 147.035C244.846 147.542 245.209 148.123 246.152 147.905C253.407 145.511 258.34 138.619 258.34 130.567C258.34 120.556 250.142 112.866 240.058 112.866ZM229.394 137.894C229.249 137.967 229.322 138.184 229.394 138.329C229.539 138.402 229.684 138.474 229.83 138.402C229.902 138.329 229.902 138.112 229.757 137.967C229.612 137.894 229.467 137.821 229.394 137.894ZM228.596 137.314C228.524 137.459 228.596 137.531 228.741 137.604C228.886 137.676 229.032 137.676 229.104 137.531C229.104 137.459 229.032 137.386 228.886 137.314C228.741 137.241 228.669 137.241 228.596 137.314ZM230.918 139.925C230.845 139.998 230.845 140.215 231.063 140.36C231.208 140.506 231.426 140.578 231.498 140.433C231.571 140.36 231.571 140.143 231.426 139.998C231.28 139.853 231.063 139.78 230.918 139.925ZM230.12 138.837C229.975 138.91 229.975 139.127 230.12 139.272C230.265 139.417 230.41 139.49 230.555 139.417C230.628 139.345 230.628 139.127 230.555 138.982C230.41 138.837 230.265 138.765 230.12 138.837Z" fill="white"/>
<rect x="202.857" y="330.714" width="74.2857" height="74.2857" rx="2.97143" fill="#576084"/>
<path d="M257.845 363.856C257.99 363.711 258.135 363.687 258.28 363.783C258.474 363.88 258.571 364.025 258.571 364.219V379.018C258.571 379.985 258.232 380.807 257.555 381.484C256.878 382.161 256.056 382.5 255.088 382.5H224.91C223.943 382.5 223.12 382.161 222.443 381.484C221.766 380.807 221.428 379.985 221.428 379.018V364.219C221.428 364.025 221.5 363.904 221.645 363.856C221.839 363.759 222.008 363.759 222.153 363.856C223.749 365.065 227.473 367.798 233.325 372.054C233.422 372.15 233.736 372.416 234.268 372.852C234.848 373.287 235.308 373.625 235.646 373.867C235.985 374.061 236.42 374.327 236.952 374.665C237.484 374.955 237.992 375.173 238.476 375.318C239.008 375.463 239.516 375.536 239.999 375.536C240.434 375.536 240.87 375.487 241.305 375.391C241.74 375.246 242.151 375.1 242.538 374.955C242.925 374.762 243.336 374.52 243.771 374.23C244.207 373.94 244.569 373.698 244.86 373.504C245.15 373.263 245.488 372.997 245.875 372.706C246.262 372.416 246.528 372.199 246.673 372.054C252.38 367.943 256.104 365.21 257.845 363.856ZM239.999 373.214C239.612 373.214 239.129 373.093 238.548 372.852C238.016 372.561 237.581 372.32 237.242 372.126C236.904 371.884 236.396 371.522 235.719 371.038C235.09 370.506 234.752 370.24 234.703 370.24C228.803 365.936 224.596 362.816 222.081 360.882C221.645 360.543 221.428 360.084 221.428 359.503V358.125C221.428 357.158 221.766 356.336 222.443 355.658C223.12 354.981 223.943 354.643 224.91 354.643H255.088C256.056 354.643 256.878 354.981 257.555 355.658C258.232 356.336 258.571 357.158 258.571 358.125V359.503C258.571 360.084 258.353 360.543 257.918 360.882C255.548 362.719 251.34 365.839 245.295 370.24C245.247 370.24 244.884 370.506 244.207 371.038C243.578 371.522 243.094 371.884 242.756 372.126C242.417 372.32 241.958 372.561 241.378 372.852C240.846 373.093 240.386 373.214 239.999 373.214Z" fill="white"/>
<rect x="321.715" y="211.857" width="74.2857" height="74.2857" rx="2.97143" fill="#576084"/>
<path d="M364.254 235.945C367.204 238.218 368.679 240.951 368.679 244.143C368.679 247.335 367.204 250.067 364.254 252.34C361.303 254.613 357.749 255.75 353.59 255.75C350.688 255.75 348.004 255.145 345.537 253.936C343.457 255.145 341.305 255.75 339.081 255.75C338.984 255.75 338.887 255.726 338.79 255.677C338.694 255.581 338.621 255.484 338.573 255.387C338.476 255.145 338.5 254.928 338.645 254.734C339.661 253.767 340.532 252.461 341.257 250.817C339.419 248.834 338.5 246.609 338.5 244.143C338.5 240.951 339.975 238.218 342.926 235.945C345.876 233.672 349.43 232.536 353.59 232.536C357.749 232.536 361.303 233.672 364.254 235.945ZM377.529 260.103C378.255 261.747 379.125 263.053 380.141 264.02C380.286 264.214 380.31 264.431 380.213 264.673C380.117 264.915 379.947 265.036 379.706 265.036C377.481 265.036 375.329 264.431 373.249 263.222C370.783 264.431 368.098 265.036 365.197 265.036C362.101 265.036 359.296 264.383 356.782 263.077C354.267 261.771 352.429 260.054 351.268 257.926C352.139 258.023 352.912 258.071 353.59 258.071C358.378 258.071 362.464 256.717 365.85 254.009C369.283 251.252 371 247.964 371 244.143C371 243.611 370.976 243.127 370.928 242.692C373.684 243.563 375.933 244.989 377.674 246.972C379.415 248.907 380.286 251.059 380.286 253.429C380.286 255.895 379.367 258.12 377.529 260.103Z" fill="white"/>
<mask id="path-12-inside-1" fill="white">
<path fill-rule="evenodd" clip-rule="evenodd" d="M122.999 132.929V197H119.285V129.214H119.286V129.214H187.071V132.929H122.999Z"/>
</mask>
<path fill-rule="evenodd" clip-rule="evenodd" d="M122.999 132.929V197H119.285V129.214H119.286V129.214H187.071V132.929H122.999Z" fill="#E94560"/>
<path d="M122.999 132.929V131.929H121.999V132.929H122.999ZM122.999 197V198H123.999V197H122.999ZM119.285 197H118.285V198H119.285V197ZM119.285 129.214V128.214H118.285V129.214H119.285ZM119.286 129.214V130.214H120.286V129.214H119.286ZM119.286 129.214V128.214H118.286V129.214H119.286ZM187.071 129.214H188.071V128.214H187.071V129.214ZM187.071 132.929V133.929H188.071V132.929H187.071ZM121.999 132.929V197H123.999V132.929H121.999ZM122.999 196H119.285V198H122.999V196ZM120.285 197V129.214H118.285V197H120.285ZM119.285 130.214H119.286V128.214H119.285V130.214ZM120.286 129.214V129.214H118.286V129.214H120.286ZM119.286 130.214H187.071V128.214H119.286V130.214ZM186.071 129.214V132.929H188.071V129.214H186.071ZM187.071 131.929H122.999V133.929H187.071V131.929Z" fill="#262742" mask="url(#path-12-inside-1)"/>
<mask id="path-14-inside-2" fill="white">
<path fill-rule="evenodd" clip-rule="evenodd" d="M292.93 129.214H360.715V132.929V197H357.001V132.929H292.93V129.214Z"/>
</mask>
<path fill-rule="evenodd" clip-rule="evenodd" d="M292.93 129.214H360.715V132.929V197H357.001V132.929H292.93V129.214Z" fill="#E94560"/>
<path d="M360.715 129.214H361.715V128.214H360.715V129.214ZM292.93 129.214V128.214H291.93V129.214H292.93ZM360.715 197V198H361.715V197H360.715ZM357.001 197H356.001V198H357.001V197ZM357.001 132.929H358.001V131.929H357.001V132.929ZM292.93 132.929H291.93V133.929H292.93V132.929ZM360.715 128.214H292.93V130.214H360.715V128.214ZM361.715 132.929V129.214H359.715V132.929H361.715ZM361.715 197V132.929H359.715V197H361.715ZM357.001 198H360.715V196H357.001V198ZM356.001 132.929V197H358.001V132.929H356.001ZM292.93 133.929H357.001V131.929H292.93V133.929ZM291.93 129.214V132.929H293.93V129.214H291.93Z" fill="#262742" mask="url(#path-14-inside-2)"/>
<mask id="path-16-inside-3" fill="white">
<path fill-rule="evenodd" clip-rule="evenodd" d="M122.999 367.857H119.285V300.071H122.999V364.143H187.071V367.857H122.999V367.857Z"/>
</mask>
<path fill-rule="evenodd" clip-rule="evenodd" d="M122.999 367.857H119.285V300.071H122.999V364.143H187.071V367.857H122.999V367.857Z" fill="#E94560"/>
<path d="M119.285 367.857V368.857H118.285V367.857H119.285ZM122.999 367.857H123.999V368.857H122.999V367.857ZM119.285 300.071H118.285V299.071H119.285V300.071ZM122.999 300.071V299.071H123.999V300.071H122.999ZM122.999 364.143V365.143H121.999V364.143H122.999ZM187.071 364.143V363.143H188.071V364.143H187.071ZM187.071 367.857H188.071V368.857H187.071V367.857ZM122.999 367.857H121.999V366.857H122.999V367.857ZM119.285 366.857H122.999V368.857H119.285V366.857ZM120.285 300.071V367.857H118.285V300.071H120.285ZM122.999 301.071H119.285V299.071H122.999V301.071ZM121.999 364.143V300.071H123.999V364.143H121.999ZM187.071 365.143H122.999V363.143H187.071V365.143ZM186.071 367.857V364.143H188.071V367.857H186.071ZM122.999 366.857H187.071V368.857H122.999V366.857ZM121.999 367.857V367.857H123.999V367.857H121.999Z" fill="#262742" mask="url(#path-16-inside-3)"/>
<mask id="path-18-inside-4" fill="white">
<path fill-rule="evenodd" clip-rule="evenodd" d="M357.001 367.857H360.715V300.071H357.001V364.143H292.929V367.857H357.001V367.857Z"/>
</mask>
<path fill-rule="evenodd" clip-rule="evenodd" d="M357.001 367.857H360.715V300.071H357.001V364.143H292.929V367.857H357.001V367.857Z" fill="#E94560"/>
<path d="M360.715 367.857V368.857H361.715V367.857H360.715ZM357.001 367.857H356.001V368.857H357.001V367.857ZM360.715 300.071H361.715V299.071H360.715V300.071ZM357.001 300.071V299.071H356.001V300.071H357.001ZM357.001 364.143V365.143H358.001V364.143H357.001ZM292.929 364.143V363.143H291.929V364.143H292.929ZM292.929 367.857H291.929V368.857H292.929V367.857ZM357.001 367.857H358.001V366.857H357.001V367.857ZM360.715 366.857H357.001V368.857H360.715V366.857ZM359.715 300.071V367.857H361.715V300.071H359.715ZM357.001 301.071H360.715V299.071H357.001V301.071ZM358.001 364.143V300.071H356.001V364.143H358.001ZM292.929 365.143H357.001V363.143H292.929V365.143ZM293.929 367.857V364.143H291.929V367.857H293.929ZM357.001 366.857H292.929V368.857H357.001V366.857ZM358.001 367.857V367.857H356.001V367.857H358.001Z" fill="#262742" mask="url(#path-18-inside-4)"/>
</svg>
